{
.appVersion = "1352";
DisplayStrings = (

glyphs = (
{
color = 3;
glyphname = .notdef;
lastChange = "2021-11-29 03:28:48 +0000";
layers = (
{
layerId = "6AABE730-D951-472C-A552-DEE34E1BBDD6";
paths = (
{
closed = 1;
nodes = (
"407 40 LINE",
"407 538 LINE",
"87 538 LINE",
"87 40 LINE"
);
},
{
closed = 1;
nodes = (
"147 139 LINE",
"230 292 LINE",
"147 443 LINE",
"158 465 LINE",
"241 314 LINE",
"326 466 LINE",
"339 443 LINE",
"253 290 LINE",
"339 139 LINE",
"326 117 LINE",
"241 267 LINE",
"158 117 LINE"
);
},
{
closed = 1;
nodes = (
"443 -5 LINE",
"454 7 LINE",
"454 575 LINE",
"443 587 LINE",
"52 587 LINE",
"40 575 LINE",
"40 7 LINE",
"52 -5 LINE"
);
},
{
closed = 1;
nodes = (
"66 21 LINE",
"66 561 LINE",
"430 561 LINE",
"430 21 LINE"
);
}
);
width = 494;
},
{
layerId = "D686CB0C-BBDB-4E69-8E5A-045D5C85CA47";
paths = (
{
closed = 1;
nodes = (
"407 40 LINE",
"407 538 LINE",
"87 538 LINE",
"87 40 LINE"
);
},
{
closed = 1;
nodes = (
"147 139 LINE",
"230 292 LINE",
"147 443 LINE",
"158 465 LINE",
"241 314 LINE",
"326 466 LINE",
"339 443 LINE",
"253 290 LINE",
"339 139 LINE",
"326 117 LINE",
"241 267 LINE",
"158 117 LINE"
);
},
{
closed = 1;
nodes = (
"443 -5 LINE",
"454 7 LINE",
"454 575 LINE",
"443 587 LINE",
"52 587 LINE",
"40 575 LINE",
"40 7 LINE",
"52 -5 LINE"
);
},
{
closed = 1;
nodes = (
"66 21 LINE",
"66 561 LINE",
"430 561 LINE",
"430 21 LINE"
);
}
);
width = 494;
}
);
note = .notdef;
},
{
glyphname = A;
lastChange = "2021-11-29 03:25:47 +0000";
layers = (
{
background = {
paths = (
{
closed = 1;
nodes = (
"35 0 LINE",
"78 203 LINE",
"62 159 LINE",
"297 159 LINE",
"281 203 LINE",
"324 0 LINE",
"334 0 LINE",
"203 620 LINE",
"158 620 LINE",
"25 0 LINE"
);
},
{
closed = 1;
nodes = (
"64 168 LINE",
"295 168 LINE",
"297 124 LINE",
"196 601 LINE",
"194 611 LINE",
"166 611 LINE",
"164 601 LINE",
"62 124 LINE"
);
}
);
};
layerId = "6AABE730-D951-472C-A552-DEE34E1BBDD6";
paths = (
{
closed = 1;
nodes = (
"35 0 LINE",
"70 163 LINE",
"65 159 LINE",
"294 159 LINE",
"289 163 LINE",
"324 0 LINE",
"334 0 LINE",
"203 620 LINE",
"158 620 LINE",
"25 0 LINE"
);
},
{
closed = 1;
nodes = (
"166 611 LINE",
"176 611 LINE",
"184 611 LINE",
"194 611 LINE",
"289 164 LINE",
"292 168 LINE",
"67 168 LINE",
"70 164 LINE"
);
}
);
width = 349;
},
{
background = {
paths = (
{
closed = 1;
nodes = (
"155 0 LINE",
"171 109 LINE",
"229 109 LINE",
"247 0 LINE",
"407 0 LINE",
"270 620 LINE",
"138 620 LINE",
"0 0 LINE"
);
},
{
closed = 1;
nodes = (
"201 402 LINE",
"202 413 LINE",
"203 402 LINE",
"222 220 LINE",
"181 220 LINE"
);
},
{
closed = 1;
nodes = (
"155 0 LINE",
"177 142 LINE",
"125 98 LINE",
"277 98 LINE",
"225 142 LINE",
"248 0 LINE",
"408 0 LINE",
"281 620 LINE",
"128 620 LINE",
"0 0 LINE"
);
},
{
closed = 1;
nodes = (
"201 411 LINE",
"202 439 LINE",
"203 439 LINE",
"204 411 LINE",
"227 175 LINE",
"268 220 LINE",
"136 220 LINE",
"176 175 LINE"
);
}
);
};
layerId = "D686CB0C-BBDB-4E69-8E5A-045D5C85CA47";
paths = (
{
closed = 1;
nodes = (
"155 0 LINE",
"173 120 LINE",
"153 98 LINE",
"250 98 LINE",
"226 120 LINE",
"248 0 LINE",
"408 0 LINE",
"281 620 LINE",
"128 620 LINE",
"0 0 LINE"
);
},
{
closed = 1;
nodes = (
"201 411 LINE",
"202 439 LINE",
"203 439 LINE",
"204 411 LINE",
"223 204 LINE",
"242 220 LINE",
"166 220 LINE",
"179 204 LINE"
);
}
);
width = 408;
}
);
note = A;
unicode = 0041;
},
{
glyphname = AE;
lastChange = "2021-11-29 03:15:47 +0000";
layers = (
{
background = {
paths = (
{
closed = 1;
nodes = (
"35 0 LINE",
"78 203 LINE",
"62 159 LINE",
"264 159 LINE",
"256 203 LINE",
"257 0 LINE",
"267 0 LINE",
"266 620 LINE",
"158 620 LINE",
"25 0 LINE"
);
},
{
closed = 1;
nodes = (
"164 601 LINE",
"166 611 LINE",
"255 611 LINE",
"255 601 LINE",
"256 123 LINE",
"264 168 LINE",
"64 168 LINE",
"62 124 LINE"
);
}
);
};
layerId = "6AABE730-D951-472C-A552-DEE34E1BBDD6";
paths = (
{
closed = 1;
nodes = (
"257 0 LINE",
"512 0 LINE",
"512 8 LINE",
"267 8 LINE",
"267 351 LINE",
"495 351 LINE",
"499 360 LINE",
"267 360 LINE",
"267 611 LINE",
"512 611 LINE",
"512 620 LINE",
"257 620 LINE"
);
},
{
closed = 1;
nodes = (
"264 159 LINE",
"264 168 LINE",
"64 168 LINE",
"64 159 LINE"
);
},
{
closed = 1;
nodes = (
"35 0 LINE",
"168 620 LINE",
"158 620 LINE",
"25 0 LINE"
);
},
{
closed = 1;
nodes = (
"266 611 LINE",
"266 620 LINE",
"158 620 LINE",
"158 611 LINE"
);
}
);
width = 547;
},
{
background = {
paths = (
{
closed = 1;
nodes = (
"47 0 LINE",
"69 142 LINE",
"17 98 LINE",
"169 98 LINE",
"117 142 LINE",
"140 0 LINE",
"300 0 LINE",
"173 620 LINE",
"20 620 LINE",
"-108 0 LINE"
);
},
{
closed = 1;
nodes = (
"93 411 LINE",
"94 439 LINE",
"95 439 LINE",
"96 411 LINE",
"119 175 LINE",
"160 220 LINE",
"28 220 LINE",
"68 175 LINE"
);
}
);
};
layerId = "D686CB0C-BBDB-4E69-8E5A-045D5C85CA47";
paths = (
{
closed = 1;
nodes = (
"315 0 LINE",
"664 0 LINE",
"664 120 LINE",
"469 120 LINE",
"469 273 LINE",
"622 273 LINE",
"640 393 LINE",
"469 393 LINE",
"469 500 LINE",
"664 500 LINE",
"664 620 LINE",
"315 620 LINE"
);
},
{
closed = 1;
nodes = (
"347 99 LINE",
"347 220 LINE",
"82 220 LINE",
"82 99 LINE"
);
},
{
closed = 1;
nodes = (
"155 0 LINE",
"315 620 LINE",
"182 620 LINE",
"0 0 LINE"
);
},
{
closed = 1;
nodes = (
"338 500 LINE",
"338 620 LINE",
"211 620 LINE",
"211 500 LINE"
);
}
);
width = 681;
}
);
unicode = 00C6;
},
{
glyphname = B;
lastChange = "2021-11-29 03:15:47 +0000";
layers = (
{
layerId = "6AABE730-D951-472C-A552-DEE34E1BBDD6";
paths = (
{
closed = 1;
nodes = (
"40 0 LINE",
"188 0 LINE SMOOTH",
"275 0 OFFCURVE",
"295 23 OFFCURVE",
"295 108 CURVE SMOOTH",
"295 239 LINE SMOOTH",
"295 302 OFFCURVE",
"271 333 OFFCURVE",
"212 346 CURVE",
"241 351 OFFCURVE",
"284 383 OFFCURVE",
"284 459 CURVE SMOOTH",
"284 526 LINE SMOOTH",
"284 605 OFFCURVE",
"264 620 OFFCURVE",
"179 620 CURVE SMOOTH",
"40 620 LINE"
);
},
{
closed = 1;
nodes = (
"50 9 LINE",
"50 342 LINE",
"168 342 LINE SMOOTH",
"235 342 OFFCURVE",
"285 314 OFFCURVE",
"285 247 CURVE SMOOTH",
"285 113 LINE SMOOTH",
"285 17 OFFCURVE",
"253 9 OFFCURVE",
"189 9 CURVE SMOOTH"
);
},
{
closed = 1;
nodes = (
"50 351 LINE",
"50 611 LINE",
"184 611 LINE SMOOTH",
"268 611 OFFCURVE",
"274 588 OFFCURVE",
"274 510 CURVE SMOOTH",
"274 468 LINE SMOOTH",
"274 374 OFFCURVE",
"224 351 OFFCURVE",
"182 351 CURVE SMOOTH"
);
}
);
width = 335;
},
{
background = {
paths = (
{
closed = 1;
nodes = (
"202 0 LINE SMOOTH",
"286 0 OFFCURVE",
"340 25 OFFCURVE",
"340 148 CURVE SMOOTH",
"340 237 LINE SMOOTH",
"340 307 OFFCURVE",
"300 341 OFFCURVE",
"255 345 CURVE",
"302 350 OFFCURVE",
"330 392 OFFCURVE",
"330 450 CURVE SMOOTH",
"330 517 LINE SMOOTH",
"330 613 OFFCURVE",
"256 620 OFFCURVE",
"181 620 CURVE SMOOTH",
"12 620 LINE",
"12 0 LINE"
);
},
{
closed = 1;
nodes = (
"111 282 LINE",
"182 282 LINE SMOOTH",
"219 282 OFFCURVE",
"241 254 OFFCURVE",
"241 210 CURVE SMOOTH",
"241 152 LINE SMOOTH",
"241 103 OFFCURVE",
"219 82 OFFCURVE",
"170 82 CURVE SMOOTH",
"111 82 LINE"
);
},
{
closed = 1;
nodes = (
"111 538 LINE",
"167 538 LINE SMOOTH",
"219 538 OFFCURVE",
"231 515 OFFCURVE",
"231 469 CURVE SMOOTH",
"231 449 LINE SMOOTH",
"231 402 OFFCURVE",
"207 366 OFFCURVE",
"169 366 CURVE SMOOTH",
"111 366 LINE"
);
}
);
};
layerId = "D686CB0C-BBDB-4E69-8E5A-045D5C85CA47";
paths = (
{
closed = 1;
nodes = (
"20 0 LINE",
"240 0 LINE SMOOTH",
"351 0 OFFCURVE",
"371 48 OFFCURVE",
"371 153 CURVE SMOOTH",
"371 241 LINE SMOOTH",
"371 290 OFFCURVE",
"351 348 OFFCURVE",
"297 348 CURVE",
"297 352 LINE",
"344 352 OFFCURVE",
"368 414 OFFCURVE",
"368 472 CURVE SMOOTH",
"368 496 LINE SMOOTH",
"368 594 OFFCURVE",
"317 620 OFFCURVE",
"240 620 CURVE SMOOTH",
"20 620 LINE"
);
},
{
closed = 1;
nodes = (
"175 119 LINE",
"175 274 LINE",
"187 274 LINE SMOOTH",
"202 274 OFFCURVE",
"216 268 OFFCURVE",
"216 238 CURVE SMOOTH",
"216 162 LINE SMOOTH",
"216 134 OFFCURVE",
"206 119 OFFCURVE",
"189 119 CURVE SMOOTH"
);
},
{
closed = 1;
nodes = (
"175 392 LINE",
"175 510 LINE",
"188 510 LINE SMOOTH",
"211 510 OFFCURVE",
"216 492 OFFCURVE",
"216 463 CURVE SMOOTH",
"216 444 LINE SMOOTH",
"216 405 OFFCURVE",
"206 392 OFFCURVE",
"187 392 CURVE SMOOTH"
);
}
);
width = 391;
}
);
note = B;
unicode = 0042;
},
{
glyphname = C;
lastChange = "2021-11-29 03:15:47 +0000";
layers = (
{
background = {
paths = (
{
closed = 1;
nodes = (
"274 -11 OFFCURVE",
"336 25 OFFCURVE",
"336 91 CURVE SMOOTH",
"336 226 LINE",
"254 216 LINE",
"254 116 LINE SMOOTH",
"254 70 OFFCURVE",
"222 53 OFFCURVE",
"186 53 CURVE SMOOTH",
"152 53 OFFCURVE",
"122 69 OFFCURVE",
"122 116 CURVE SMOOTH",
"122 500 LINE SMOOTH",
"122 546 OFFCURVE",
"152 563 OFFCURVE",
"186 563 CURVE SMOOTH",
"222 563 OFFCURVE",
"254 547 OFFCURVE",
"254 500 CURVE SMOOTH",
"254 381 LINE",
"282 384 OFFCURVE",
"306 389 OFFCURVE",
"336 392 CURVE",
"336 525 LINE SMOOTH",
"336 591 OFFCURVE",
"273 627 OFFCURVE",
"190 628 CURVE SMOOTH",
"105 627 OFFCURVE",
"40 592 OFFCURVE",
"40 526 CURVE SMOOTH",
"40 90 LINE SMOOTH",
"40 24 OFFCURVE",
"105 -11 OFFCURVE",
"190 -12 CURVE SMOOTH"
);
}
);
};
layerId = "6AABE730-D951-472C-A552-DEE34E1BBDD6";
paths = (
{
closed = 1;
nodes = (
"244 -6 OFFCURVE",
"291 24 OFFCURVE",
"291 91 CURVE SMOOTH",
"291 226 LINE",
"281 221 LINE",
"281 91 LINE SMOOTH",
"281 38 OFFCURVE",
"244 3 OFFCURVE",
"164 3 CURVE SMOOTH",
"86 3 OFFCURVE",
"50 38 OFFCURVE",
"50 90 CURVE SMOOTH",
"50 525 LINE SMOOTH",
"50 580 OFFCURVE",
"76 618 OFFCURVE",
"164 618 CURVE SMOOTH",
"254 618 OFFCURVE",
"281 580 OFFCURVE",
"281 524 CURVE SMOOTH",
"281 389 LINE",
"291 392 LINE",
"291 525 LINE SMOOTH",
"291 593 OFFCURVE",
"253 628 OFFCURVE",
"161 628 CURVE SMOOTH",
"75 628 OFFCURVE",
"40 591 OFFCURVE",
"40 526 CURVE SMOOTH",
"40 90 LINE SMOOTH",
"40 24 OFFCURVE",
"86 -6 OFFCURVE",
"164 -6 CURVE SMOOTH"
);
}
);
width = 331;
},
{
background = {
paths = (
{
closed = 1;
nodes = (
"323 -12 OFFCURVE",
"370 25 OFFCURVE",
"370 91 CURVE SMOOTH",
"370 274 LINE",
"215 262 LINE",
"215 140 LINE SMOOTH",
"215 129 OFFCURVE",
"210 119 OFFCURVE",
"194 119 CURVE SMOOTH",
"177 119 OFFCURVE",
"174 128 OFFCURVE",
"174 140 CURVE SMOOTH",
"174 483 LINE SMOOTH",
"174 500 OFFCURVE",
"185 503 OFFCURVE",
"194 503 CURVE SMOOTH",
"203 503 OFFCURVE",
"214 499 OFFCURVE",
"214 483 CURVE SMOOTH",
"215 339 LINE",
"368 350 LINE",
"368 500 LINE SMOOTH",
"368 566 OFFCURVE",
"324 628 OFFCURVE",
"197 628 CURVE SMOOTH",
"56 628 OFFCURVE",
"20 570 OFFCURVE",
"20 504 CURVE SMOOTH",
"20 90 LINE SMOOTH",
"20 24 OFFCURVE",
"62 -12 OFFCURVE",
"191 -12 CURVE SMOOTH"
);
}
);
};
layerId = "D686CB0C-BBDB-4E69-8E5A-045D5C85CA47";
paths = (
{
closed = 1;
nodes = (
"307 -8 OFFCURVE",
"368 41 OFFCURVE",
"368 116 CURVE SMOOTH",
"368 272 LINE",
"216 256 LINE",
"216 153 LINE SMOOTH",
"216 134 OFFCURVE",
"216 118 OFFCURVE",
"194 118 CURVE SMOOTH",
"174 118 OFFCURVE",
"175 134 OFFCURVE",
"175 153 CURVE SMOOTH",
"175 453 LINE SMOOTH",
"175 481 OFFCURVE",
"173 502 OFFCURVE",
"194 502 CURVE SMOOTH",
"216 502 OFFCURVE",
"216 487 OFFCURVE",
"216 452 CURVE SMOOTH",
"216 340 LINE",
"368 358 LINE",
"368 490 LINE SMOOTH",
"369 591 OFFCURVE",
"307 626 OFFCURVE",
"194 626 CURVE SMOOTH",
"72 626 OFFCURVE",
"20 591 OFFCURVE",
"20 491 CURVE SMOOTH",
"20 116 LINE SMOOTH",
"20 41 OFFCURVE",
"72 -8 OFFCURVE",
"197 -8 CURVE SMOOTH"
);
}
);
width = 388;
}
);
note = C;
unicode = 0043;
},
{
glyphname = D;
lastChange = "2021-11-29 03:15:47 +0000";
layers = (
{
layerId = "6AABE730-D951-472C-A552-DEE34E1BBDD6";
paths = (
{
closed = 1;
nodes = (
"40 0 LINE",
"197 0 LINE SMOOTH",
"279 0 OFFCURVE",
"295 27 OFFCURVE",
"295 99 CURVE SMOOTH",
"295 522 LINE SMOOTH",
"295 584 OFFCURVE",
"269 620 OFFCURVE",
"206 620 CURVE SMOOTH",
"40 620 LINE"
);
},
{
closed = 1;
nodes = (
"50 9 LINE",
"50 611 LINE",
"207 611 LINE SMOOTH",
"254 611 OFFCURVE",
"285 583 OFFCURVE",
"285 522 CURVE SMOOTH",
"285 99 LINE SMOOTH",
"285 24 OFFCURVE",
"264 9 OFFCURVE",
"195 9 CURVE SMOOTH"
);
}
);
width = 331;
},
{
background = {
paths = (
{
closed = 1;
nodes = (
"19 0 LINE",
"202 0 LINE SMOOTH",
"324 0 OFFCURVE",
"340 28 OFFCURVE",
"340 130 CURVE SMOOTH",
"340 501 LINE SMOOTH",
"340 593 OFFCURVE",
"327 620 OFFCURVE",
"175 620 CURVE SMOOTH",
"19 620 LINE"
);
},
{
closed = 1;
nodes = (
"240 149 LINE SMOOTH",
"240 97 OFFCURVE",
"218 82 OFFCURVE",
"188 82 CURVE SMOOTH",
"122 82 LINE",
"122 538 LINE",
"188 538 LINE SMOOTH",
"220 538 OFFCURVE",
"241 523 OFFCURVE",
"241 472 CURVE SMOOTH"
);
}
);
};
layerId = "D686CB0C-BBDB-4E69-8E5A-045D5C85CA47";
paths = (
{
closed = 1;
nodes = (
"20 0 LINE",
"296 0 LINE SMOOTH",
"353 0 OFFCURVE",
"368 27 OFFCURVE",
"368 89 CURVE SMOOTH",
"368 532 LINE SMOOTH",
"368 594 OFFCURVE",
"356 620 OFFCURVE",
"293 620 CURVE SMOOTH",
"20 620 LINE"
);
},
{
closed = 1;
nodes = (
"173 120 LINE",
"173 500 LINE",
"199 500 LINE SMOOTH",
"214 500 OFFCURVE",
"214 492 OFFCURVE",
"214 478 CURVE SMOOTH",
"214 143 LINE SMOOTH",
"214 134 OFFCURVE",
"214 120 OFFCURVE",
"199 120 CURVE SMOOTH"
);
}
);
width = 388;
}
);
note = D;
unicode = 0044;
},
{
glyphname = Eth;
lastChange = "2021-11-29 03:15:47 +0000";
layers = (
{
layerId = "6AABE730-D951-472C-A552-DEE34E1BBDD6";
paths = (
{
closed = 1;
nodes = (
"70 0 LINE",
"227 0 LINE SMOOTH",
"309 0 OFFCURVE",
"325 27 OFFCURVE",
"325 99 CURVE SMOOTH",
"325 522 LINE SMOOTH",
"325 584 OFFCURVE",
"299 620 OFFCURVE",
"236 620 CURVE SMOOTH",
"70 620 LINE"
);
},
{
closed = 1;
nodes = (
"206 176 LINE",
"206 185 LINE",
"0 185 LINE",
"0 176 LINE"
);
},
{
closed = 1;
nodes = (
"80 9 LINE",
"80 611 LINE",
"237 611 LINE SMOOTH",
"284 611 OFFCURVE",
"315 583 OFFCURVE",
"315 522 CURVE SMOOTH",
"315 99 LINE SMOOTH",
"315 24 OFFCURVE",
"294 9 OFFCURVE",
"225 9 CURVE SMOOTH"
);
}
);
width = 365;
},
{
layerId = "D686CB0C-BBDB-4E69-8E5A-045D5C85CA47";
paths = (
{
closed = 1;
nodes = (
"58 0 LINE",
"342 0 LINE SMOOTH",
"399 0 OFFCURVE",
"414 27 OFFCURVE",
"414 89 CURVE SMOOTH",
"414 532 LINE SMOOTH",
"414 594 OFFCURVE",
"402 620 OFFCURVE",
"339 620 CURVE SMOOTH",
"58 620 LINE"
);
},
{
closed = 1;
nodes = (
"240 203 LINE",
"240 287 LINE",
"21 287 LINE",
"21 203 LINE"
);
},
{
closed = 1;
nodes = (
"211 120 LINE",
"211 500 LINE",
"247 500 LINE SMOOTH",
"262 500 OFFCURVE",
"262 492 OFFCURVE",
"262 478 CURVE SMOOTH",
"262 143 LINE SMOOTH",
"262 134 OFFCURVE",
"262 120 OFFCURVE",
"247 120 CURVE SMOOTH"
);
}
);
width = 450;
}
);
unicode = 00D0;
},
{
glyphname = E;
lastChange = "2021-11-29 03:15:47 +0000";
layers = (
{
layerId = "6AABE730-D951-472C-A552-DEE34E1BBDD6";
paths = (
{
closed = 1;
nodes = (
"40 0 LINE",
"295 0 LINE",
"295 8 LINE",
"50 8 LINE",
"50 351 LINE",
"278 351 LINE",
"282 360 LINE",
"50 360 LINE",
"50 611 LINE",
"295 611 LINE",
"295 620 LINE",
"40 620 LINE"
);
}
);
width = 330;
},
{
layerId = "D686CB0C-BBDB-4E69-8E5A-045D5C85CA47";
paths = (
{
closed = 1;
nodes = (
"20 0 LINE",
"349 0 LINE",
"349 120 LINE",
"174 120 LINE",
"174 273 LINE",
"307 273 LINE",
"325 393 LINE",
"174 393 LINE",
"174 500 LINE",
"349 500 LINE",
"349 620 LINE",
"20 620 LINE"
);
}
);
width = 366;
}
);
note = E;
unicode = 0045;
},
{
glyphname = F;
lastChange = "2021-11-29 03:15:47 +0000";
layers = (
{
background = {
paths = (
{
closed = 1;
nodes = (
"295 0 LINE",
"295 8 LINE",
"50 8 LINE",
"50 351 LINE",
"278 351 LINE",
"282 360 LINE",
"50 360 LINE",
"50 611 LINE",
"295 611 LINE",
"295 620 LINE",
"40 620 LINE",
"40 0 LINE"
);
}
);
};
layerId = "6AABE730-D951-472C-A552-DEE34E1BBDD6";
paths = (
{
closed = 1;
nodes = (
"40 0 LINE",
"50 0 LINE",
"50 351 LINE",
"278 351 LINE",
"282 360 LINE",
"50 360 LINE",
"50 611 LINE",
"295 611 LINE",
"295 620 LINE",
"40 620 LINE"
);
}
);
width = 325;
},
{
background = {
paths = (
{
closed = 0;
nodes = (
"174 120 LINE",
"174 273 LINE",
"328 273 LINE",
"346 393 LINE",
"174 393 LINE",
"174 500 LINE",
"369 500 LINE",
"369 620 LINE",
"20 620 LINE",
"20 0 LINE"
);
}
);
};
layerId = "D686CB0C-BBDB-4E69-8E5A-045D5C85CA47";
paths = (
{
closed = 1;
nodes = (
"20 0 LINE",
"174 0 LINE",
"174 273 LINE",
"308 273 LINE",
"326 393 LINE",
"174 393 LINE",
"174 500 LINE",
"349 500 LINE",
"349 620 LINE",
"20 620 LINE"
);
}
);
width = 364;
}
);
note = F;
unicode = 0046;
},
{
glyphname = G;
lastChange = "2021-11-29 03:15:47 +0000";
layers = (
{
layerId = "6AABE730-D951-472C-A552-DEE34E1BBDD6";
paths = (
{
closed = 1;
nodes = (
"252 -2 OFFCURVE",
"295 4 OFFCURVE",
"295 79 CURVE SMOOTH",
"295 333 LINE",
"147 333 LINE",
"142 324 LINE",
"285 324 LINE",
"285 79 LINE SMOOTH",
"285 12 OFFCURVE",
"237 7 OFFCURVE",
"172 7 CURVE SMOOTH",
"101 7 OFFCURVE",
"50 12 OFFCURVE",
"50 79 CURVE SMOOTH",
"50 547 LINE SMOOTH",
"50 607 OFFCURVE",
"102 615 OFFCURVE",
"172 615 CURVE SMOOTH",
"241 615 OFFCURVE",
"285 603 OFFCURVE",
"285 546 CURVE SMOOTH",
"285 425 LINE",
"295 430 LINE",
"295 546 LINE SMOOTH",
"295 610 OFFCURVE",
"252 624 OFFCURVE",
"172 624 CURVE SMOOTH",
"92 624 OFFCURVE",
"40 612 OFFCURVE",
"40 547 CURVE SMOOTH",
"40 79 LINE SMOOTH",
"40 4 OFFCURVE",
"92 -2 OFFCURVE",
"172 -2 CURVE SMOOTH"
);
}
);
width = 335;
},
{
layerId = "D686CB0C-BBDB-4E69-8E5A-045D5C85CA47";
paths = (
{
closed = 1;
nodes = (
"306 -8 OFFCURVE",
"369 41 OFFCURVE",
"369 116 CURVE SMOOTH",
"369 333 LINE",
"201 333 LINE",
"193 204 LINE",
"220 204 LINE",
"220 141 LINE SMOOTH",
"220 127 OFFCURVE",
"217 118 OFFCURVE",
"197 118 CURVE SMOOTH",
"177 118 OFFCURVE",
"174 127 OFFCURVE",
"174 141 CURVE SMOOTH",
"174 460 LINE SMOOTH",
"174 488 OFFCURVE",
"172 502 OFFCURVE",
"195 502 CURVE SMOOTH",
"215 502 OFFCURVE",
"215 494 OFFCURVE",
"215 459 CURVE SMOOTH",
"215 405 LINE",
"369 410 LINE",
"369 490 LINE SMOOTH",
"369 591 OFFCURVE",
"306 626 OFFCURVE",
"193 626 CURVE SMOOTH",
"71 626 OFFCURVE",
"20 591 OFFCURVE",
"20 491 CURVE SMOOTH",
"20 116 LINE SMOOTH",
"20 41 OFFCURVE",
"71 -8 OFFCURVE",
"196 -8 CURVE SMOOTH"
);
}
);
width = 389;
}
);
note = G;
unicode = 0047;
},
{
glyphname = H;
lastChange = "2021-11-29 03:15:47 +0000";
layers = (
{
background = {
components = (
{
name = E;
}
);
};
layerId = "6AABE730-D951-472C-A552-DEE34E1BBDD6";
paths = (
{
closed = 1;
nodes = (
"40 0 LINE",
"50 0 LINE",
"50 351 LINE",
"285 351 LINE",
"285 0 LINE",
"295 0 LINE",
"295 620 LINE",
"285 620 LINE",
"285 360 LINE",
"50 360 LINE",
"50 620 LINE",
"40 620 LINE"
);
}
);
width = 335;
},
{
background = {
components = (
{
name = E;
transform = "{1, 0, 0, 1, -10, 0}";
}
);
};
layerId = "D686CB0C-BBDB-4E69-8E5A-045D5C85CA47";
paths = (
{
closed = 1;
nodes = (
"20 0 LINE",
"174 0 LINE",
"174 273 LINE",
"214 273 LINE",
"214 0 LINE",
"368 0 LINE",
"368 620 LINE",
"214 620 LINE",
"214 393 LINE",
"174 393 LINE",
"174 620 LINE",
"20 620 LINE"
);
}
);
width = 388;
}
);
note = H;
unicode = 0048;
},
{
glyphname = I;
lastChange = "2021-11-29 03:15:47 +0000";
layers = (
{
layerId = "6AABE730-D951-472C-A552-DEE34E1BBDD6";
paths = (
{
closed = 1;
nodes = (
"40 0 LINE",
"50 0 LINE",
"50 620 LINE",
"40 620 LINE"
);
}
);
width = 90;
},
{
layerId = "D686CB0C-BBDB-4E69-8E5A-045D5C85CA47";
paths = (
{
closed = 1;
nodes = (
"30 0 LINE",
"184 0 LINE",
"184 620 LINE",
"30 620 LINE"
);
}
);
width = 214;
}
);
note = I;
unicode = 0049;
},
{
glyphname = J;
lastChange = "2021-11-29 03:15:47 +0000";
layers = (
{
layerId = "6AABE730-D951-472C-A552-DEE34E1BBDD6";
paths = (
{
closed = 1;
nodes = (
"44 0 LINE SMOOTH",
"99 0 OFFCURVE",
"99 6 OFFCURVE",
"99 80 CURVE SMOOTH",
"99 620 LINE",
"89 620 LINE",
"89 80 LINE SMOOTH",
"89 18 OFFCURVE",
"89 9 OFFCURVE",
"51 9 CURVE SMOOTH",
"0 9 LINE",
"3 0 LINE"
);
}
);
width = 139;
},
{
layerId = "D686CB0C-BBDB-4E69-8E5A-045D5C85CA47";
paths = (
{
closed = 1;
nodes = (
"105 0 LINE SMOOTH",
"229 0 OFFCURVE",
"243 38 OFFCURVE",
"243 140 CURVE SMOOTH",
"243 620 LINE",
"89 620 LINE",
"89 191 LINE SMOOTH",
"89 129 OFFCURVE",
"89 120 OFFCURVE",
"51 120 CURVE SMOOTH",
"0 120 LINE",
"19 0 LINE"
);
}
);
width = 258;
}
);
note = J;
unicode = 004A;
},
{
glyphname = K;
lastChange = "2021-11-29 03:15:47 +0000";
layers = (
{
background = {
paths = (
{
closed = 1;
nodes = (
"101 335 LINE",
"276 -5 LINE",
"285 0 LINE",
"112 335 LINE",
"272 619 LINE",
"263 623 LINE"
);
}
);
};
layerId = "6AABE730-D951-472C-A552-DEE34E1BBDD6";
paths = (
{
closed = 1;
nodes = (
"285 0 LINE",
"112 335 LINE",
"272 619 LINE",
"263 623 LINE",
"101 335 LINE",
"276 -5 LINE"
);
},
{
closed = 1;
nodes = (
"40 0 LINE",
"50 0 LINE",
"50 620 LINE",
"40 620 LINE"
);
}
);
width = 305;
},
{
background = {
paths = (
{
closed = 1;
nodes = (
"40 -1 LINE",
"40 619 LINE",
"30 619 LINE",
"30 -1 LINE"
);
},
{
closed = 1;
nodes = (
"174 332 LINE",
"367 -43 LINE",
"504 28 LINE",
"343 328 LINE",
"491 548 LINE",
"361 632 LINE"
);
},
{
closed = 1;
nodes = (
"175 0 LINE",
"174 620 LINE",
"20 620 LINE",
"20 0 LINE"
);
}
);
};
layerId = "D686CB0C-BBDB-4E69-8E5A-045D5C85CA47";
paths = (
{
closed = 1;
nodes = (
"436 50 LINE",
"262 343 LINE",
"407 559 LINE",
"292 632 LINE",
"105 332 LINE",
"299 -21 LINE"
);
},
{
closed = 1;
nodes = (
"20 0 LINE",
"175 0 LINE",
"175 620 LINE",
"20 620 LINE"
);
}
);
width = 431;
}
);
note = K;
unicode = 004B;
},
{
glyphname = L;
lastChange = "2021-11-29 03:15:47 +0000";
layers = (
{
layerId = "6AABE730-D951-472C-A552-DEE34E1BBDD6";
paths = (
{
closed = 1;
nodes = (
"40 0 LINE",
"295 0 LINE",
"295 8 LINE",
"50 8 LINE",
"50 620 LINE",
"40 620 LINE"
);
}
);
width = 330;
},
{
layerId = "D686CB0C-BBDB-4E69-8E5A-045D5C85CA47";
paths = (
{
closed = 1;
nodes = (
"20 0 LINE",
"369 0 LINE",
"369 120 LINE",
"174 120 LINE",
"174 620 LINE",
"20 620 LINE"
);
}
);
width = 384;
}
);
note = L;
unicode = 004C;
},
{
glyphname = M;
lastChange = "2021-11-29 03:15:47 +0000";
layers = (
{
background = {
paths = (
{
closed = 1;
nodes = (
"430 620 LINE",
"430 620 LINE",
"430 620 LINE",
"430 620 LINE",
"419 620 LINE",
"237 25 LINE",
"237 25 LINE",
"236 25 LINE",
"236 9 LINE",
"243 9 LINE"
);
}
);
};
layerId = "6AABE730-D951-472C-A552-DEE34E1BBDD6";
paths = (
{
closed = 1;
nodes = (
"238 49 LINE",
"238 70 LINE",
"237 70 LINE",
"54 620 LINE",
"43 620 LINE",
"233 49 LINE"
);
},
{
closed = 1;
nodes = (
"40 0 LINE",
"50 0 LINE",
"50 620 LINE",
"40 620 LINE"
);
},
{
closed = 1;
nodes = (
"242 49 LINE",
"430 620 LINE",
"419 620 LINE",
"238 70 LINE",
"237 70 LINE",
"237 49 LINE"
);
},
{
closed = 1;
nodes = (
"425 0 LINE",
"435 0 LINE",
"435 620 LINE",
"425 620 LINE"
);
}
);
width = 475;
},
{
background = {
paths = (
{
closed = 1;
nodes = (
"393 264 LINE",
"394 276 LINE",
"394 291 LINE",
"401 291 LINE",
"489 620 LINE",
"358 620 LINE",
"244 97 LINE",
"348 97 LINE"
);
}
);
};
layerId = "D686CB0C-BBDB-4E69-8E5A-045D5C85CA47";
paths = (
{
closed = 1;
nodes = (
"348 97 LINE",
"396 264 LINE",
"396 291 LINE",
"401 291 LINE",
"489 620 LINE",
"358 620 LINE",
"287 309 LINE",
"287 302 LINE",
"286 299 LINE",
"244 97 LINE"
);
},
{
closed = 1;
nodes = (
"20 0 LINE",
"174 0 LINE",
"174 620 LINE",
"20 620 LINE"
);
},
{
closed = 1;
nodes = (
"328 97 LINE",
"286 299 LINE",
"285 302 LINE",
"285 309 LINE",
"214 620 LINE",
"83 620 LINE",
"171 291 LINE",
"176 291 LINE",
"176 264 LINE",
"224 97 LINE"
);
},
{
closed = 1;
nodes = (
"398 0 LINE",
"552 0 LINE",
"552 620 LINE",
"398 620 LINE"
);
}
);
width = 572;
}
);
note = M;
unicode = 004D;
},
{
glyphname = N;
lastChange = "2021-11-29 03:12:25 +0000";
layers = (
{
layerId = "6AABE730-D951-472C-A552-DEE34E1BBDD6";
paths = (
{
closed = 1;
nodes = (
"50 0 LINE",
"50 589 LINE",
"51 587 LINE",
"282 0 LINE",
"295 0 LINE",
"295 620 LINE",
"285 620 LINE",
"285 15 LINE",
"284 17 LINE",
"51 620 LINE",
"40 620 LINE",
"40 0 LINE"
);
}
);
width = 335;
},
{
layerId = "D686CB0C-BBDB-4E69-8E5A-045D5C85CA47";
paths = (
{
closed = 1;
nodes = (
"173 0 LINE",
"173 250 LINE",
"174 250 LINE",
"174 243 LINE",
"241 0 LINE",
"398 0 LINE",
"398 620 LINE",
"244 620 LINE",
"244 318 LINE",
"243 318 LINE",
"243 324 LINE",
"174 620 LINE",
"20 620 LINE",
"20 0 LINE"
);
}
);
width = 418;
}
);
note = N;
unicode = 004E;
},
{
glyphname = Eng;
lastChange = "2021-11-29 03:15:47 +0000";
layers = (
{
layerId = "6AABE730-D951-472C-A552-DEE34E1BBDD6";
paths = (
{
closed = 1;
nodes = (
"295 0 LINE",
"295 620 LINE",
"285 620 LINE",
"285 15 LINE",
"284 17 LINE",
"51 620 LINE",
"40 620 LINE",
"40 0 LINE",
"50 0 LINE",
"50 589 LINE",
"51 587 LINE",
"291 -23 LINE"
);
},
{
closed = 1;
nodes = (
"233 -211 LINE SMOOTH",
"281 -211 OFFCURVE",
"295 -193 OFFCURVE",
"295 -137 CURVE SMOOTH",
"295 9 LINE",
"285 9 LINE",
"285 -137 LINE SMOOTH",
"285 -181 OFFCURVE",
"277 -202 OFFCURVE",
"237 -202 CURVE SMOOTH",
"172 -202 LINE",
"175 -211 LINE"
);
}
);
width = 600;
},
{
layerId = "D686CB0C-BBDB-4E69-8E5A-045D5C85CA47";
paths = (
{
closed = 1;
nodes = (
"393 0 LINE",
"393 620 LINE",
"239 620 LINE",
"239 318 LINE",
"238 318 LINE",
"238 324 LINE",
"169 620 LINE",
"15 620 LINE",
"15 0 LINE",
"168 0 LINE",
"168 250 LINE",
"169 250 LINE",
"169 243 LINE",
"252 -58 LINE"
);
},
{
closed = 1;
nodes = (
"272 -222 LINE SMOOTH",
"362 -222 OFFCURVE",
"393 -173 OFFCURVE",
"393 -95 CURVE SMOOTH",
"393 429 LINE",
"243 429 LINE",
"243 -54 LINE SMOOTH",
"243 -93 OFFCURVE",
"235 -102 OFFCURVE",
"204 -102 CURVE SMOOTH",
"103 -102 LINE",
"121 -222 LINE"
);
}
);
width = 408;
}
);
unicode = 014A;
},
{
glyphname = O;
lastChange = "2021-11-29 03:15:47 +0000";
layers = (
{
layerId = "6AABE730-D951-472C-A552-DEE34E1BBDD6";
paths = (
{
closed = 1;
nodes = (
"248 -2 OFFCURVE",
"295 28 OFFCURVE",
"295 85 CURVE SMOOTH",
"295 545 LINE SMOOTH",
"295 592 OFFCURVE",
"258 627 OFFCURVE",
"166 628 CURVE SMOOTH",
"78 629 OFFCURVE",
"40 592 OFFCURVE",
"40 546 CURVE SMOOTH",
"40 84 LINE SMOOTH",
"40 28 OFFCURVE",
"88 -2 OFFCURVE",
"166 -2 CURVE SMOOTH"
);
},
{
closed = 1;
nodes = (
"88 7 OFFCURVE",
"50 42 OFFCURVE",
"50 84 CURVE SMOOTH",
"50 545 LINE SMOOTH",
"50 580 OFFCURVE",
"78 618 OFFCURVE",
"164 618 CURVE SMOOTH",
"258 618 OFFCURVE",
"285 580 OFFCURVE",
"285 544 CURVE SMOOTH",
"285 85 LINE SMOOTH",
"285 42 OFFCURVE",
"248 7 OFFCURVE",
"166 7 CURVE SMOOTH"
);
}
);
width = 335;
},
{
layerId = "D686CB0C-BBDB-4E69-8E5A-045D5C85CA47";
paths = (
{
closed = 1;
nodes = (
"307 -8 OFFCURVE",
"368 41 OFFCURVE",
"368 116 CURVE SMOOTH",
"368 490 LINE SMOOTH",
"369 591 OFFCURVE",
"307 626 OFFCURVE",
"194 626 CURVE SMOOTH",
"72 626 OFFCURVE",
"20 591 OFFCURVE",
"20 491 CURVE SMOOTH",
"20 116 LINE SMOOTH",
"20 41 OFFCURVE",
"72 -8 OFFCURVE",
"197 -8 CURVE SMOOTH"
);
},
{
closed = 1;
nodes = (
"169 118 OFFCURVE",
"170 134 OFFCURVE",
"170 153 CURVE SMOOTH",
"170 453 LINE SMOOTH",
"170 481 OFFCURVE",
"168 502 OFFCURVE",
"193 502 CURVE SMOOTH",
"218 502 OFFCURVE",
"218 487 OFFCURVE",
"218 452 CURVE SMOOTH",
"218 153 LINE SMOOTH",
"218 134 OFFCURVE",
"218 118 OFFCURVE",
"193 118 CURVE SMOOTH"
);
}
);
width = 388;
}
);
note = O;
unicode = 004F;
},
{
glyphname = Oslash;
lastChange = "2021-11-29 03:15:47 +0000";
layers = (
{
layerId = "6AABE730-D951-472C-A552-DEE34E1BBDD6";
paths = (
{
closed = 1;
nodes = (
"19 -44 LINE",
"361 630 LINE",
"350 630 LINE",
"10 -44 LINE"
);
},
{
closed = 1;
nodes = (
"265 -2 OFFCURVE",
"312 28 OFFCURVE",
"312 85 CURVE SMOOTH",
"312 545 LINE SMOOTH",
"312 592 OFFCURVE",
"275 627 OFFCURVE",
"183 628 CURVE SMOOTH",
"95 629 OFFCURVE",
"57 592 OFFCURVE",
"57 546 CURVE SMOOTH",
"57 84 LINE SMOOTH",
"57 28 OFFCURVE",
"105 -2 OFFCURVE",
"183 -2 CURVE SMOOTH"
);
},
{
closed = 1;
nodes = (
"105 7 OFFCURVE",
"67 42 OFFCURVE",
"67 84 CURVE SMOOTH",
"67 545 LINE SMOOTH",
"67 580 OFFCURVE",
"95 618 OFFCURVE",
"181 618 CURVE SMOOTH",
"275 618 OFFCURVE",
"302 580 OFFCURVE",
"302 544 CURVE SMOOTH",
"302 85 LINE SMOOTH",
"302 42 OFFCURVE",
"265 7 OFFCURVE",
"183 7 CURVE SMOOTH"
);
}
);
width = 371;
},
{
layerId = "D686CB0C-BBDB-4E69-8E5A-045D5C85CA47";
paths = (
{
closed = 1;
nodes = (
"312 -8 OFFCURVE",
"373 41 OFFCURVE",
"373 116 CURVE SMOOTH",
"373 490 LINE SMOOTH",
"374 591 OFFCURVE",
"312 626 OFFCURVE",
"199 626 CURVE SMOOTH",
"77 626 OFFCURVE",
"25 591 OFFCURVE",
"25 491 CURVE SMOOTH",
"25 116 LINE SMOOTH",
"25 41 OFFCURVE",
"77 -8 OFFCURVE",
"202 -8 CURVE SMOOTH"
);
},
{
closed = 1;
nodes = (
"116 -44 LINE",
"330 643 LINE",
"270 643 LINE",
"58 -44 LINE"
);
},
{
closed = 1;
nodes = (
"174 118 OFFCURVE",
"175 134 OFFCURVE",
"175 153 CURVE SMOOTH",
"175 453 LINE SMOOTH",
"175 481 OFFCURVE",
"173 502 OFFCURVE",
"198 502 CURVE SMOOTH",
"223 502 OFFCURVE",
"223 487 OFFCURVE",
"223 452 CURVE SMOOTH",
"223 153 LINE SMOOTH",
"223 134 OFFCURVE",
"223 118 OFFCURVE",
"198 118 CURVE SMOOTH"
);
}
);
width = 398;
}
);
unicode = 00D8;
},
{
glyphname = OE;
lastChange = "2021-11-29 03:15:47 +0000";
layers = (
{
layerId = "6AABE730-D951-472C-A552-DEE34E1BBDD6";
paths = (
{
closed = 1;
nodes = (
"273 0 LINE",
"528 0 LINE",
"528 8 LINE",
"283 8 LINE",
"283 351 LINE",
"511 351 LINE",
"515 360 LINE",
"283 360 LINE",
"283 611 LINE",
"528 611 LINE",
"528 620 LINE",
"273 620 LINE"
);
},
{
closed = 1;
nodes = (
"219 -2 OFFCURVE",
"257 10 OFFCURVE",
"277 34 CURVE",
"276 52 LINE",
"261 25 OFFCURVE",
"225 7 OFFCURVE",
"166 7 CURVE SMOOTH",
"88 7 OFFCURVE",
"50 42 OFFCURVE",
"50 84 CURVE SMOOTH",
"50 545 LINE SMOOTH",
"50 580 OFFCURVE",
"78 618 OFFCURVE",
"166 618 CURVE SMOOTH",
"232 618 OFFCURVE",
"265 598 OFFCURVE",
"278 574 CURVE",
"279 591 LINE",
"260 613 OFFCURVE",
"223 628 OFFCURVE",
"163 628 CURVE SMOOTH",
"77 628 OFFCURVE",
"40 591 OFFCURVE",
"40 546 CURVE SMOOTH",
"40 84 LINE SMOOTH",
"40 28 OFFCURVE",
"88 -2 OFFCURVE",
"166 -2 CURVE SMOOTH"
);
}
);
width = 563;
},
{
layerId = "D686CB0C-BBDB-4E69-8E5A-045D5C85CA47";
paths = (
{
closed = 1;
nodes = (
"281 -8 OFFCURVE",
"339 24 OFFCURVE",
"357 77 CURVE",
"213 140 LINE",
"212 127 OFFCURVE",
"207 118 OFFCURVE",
"188 118 CURVE SMOOTH",
"164 118 OFFCURVE",
"165 134 OFFCURVE",
"165 153 CURVE SMOOTH",
"165 453 LINE SMOOTH",
"165 481 OFFCURVE",
"163 502 OFFCURVE",
"188 502 CURVE SMOOTH",
"204 502 OFFCURVE",
"210 496 OFFCURVE",
"212 481 CURVE",
"315 599 LINE",
"285 618 OFFCURVE",
"243 626 OFFCURVE",
"189 626 CURVE SMOOTH",
"67 626 OFFCURVE",
"15 591 OFFCURVE",
"15 491 CURVE SMOOTH",
"15 116 LINE SMOOTH",
"15 41 OFFCURVE",
"67 -8 OFFCURVE",
"192 -8 CURVE SMOOTH"
);
},
{
closed = 1;
nodes = (
"208 0 LINE",
"557 0 LINE",
"557 120 LINE",
"362 120 LINE",
"362 273 LINE",
"515 273 LINE",
"533 393 LINE",
"362 393 LINE",
"362 500 LINE",
"557 500 LINE",
"557 620 LINE",
"208 620 LINE"
);
}
);
width = 574;
}
);
unicode = 0152;
},
{
glyphname = P;
lastChange = "2021-11-29 03:15:47 +0000";
layers = (
{
background = {
hints = (
{
horizontal = 1;
place = "{0, 64}";
type = Stem;
},
{
horizontal = 1;
place = "{291, 67}";
type = Stem;
},
{
horizontal = 1;
place = "{556, 64}";
type = Stem;
},
{
place = "{46, 82}";
type = Stem;
},
{
place = "{283, 81}";
type = Stem;
},
{
place = "{273, 81}";
type = Stem;
}
);
paths = (
{
closed = 1;
nodes = (
"188 0 LINE SMOOTH",
"275 0 OFFCURVE",
"295 21 OFFCURVE",
"295 113 CURVE SMOOTH",
"295 239 LINE SMOOTH",
"295 302 OFFCURVE",
"265 338 OFFCURVE",
"212 346 CURVE",
"212 346 LINE",
"241 351 OFFCURVE",
"284 383 OFFCURVE",
"284 459 CURVE SMOOTH",
"284 526 LINE SMOOTH",
"284 605 OFFCURVE",
"264 620 OFFCURVE",
"179 620 CURVE SMOOTH",
"40 620 LINE",
"40 0 LINE"
);
},
{
closed = 1;
nodes = (
"50 342 LINE",
"168 342 LINE SMOOTH",
"233 342 OFFCURVE",
"285 312 OFFCURVE",
"285 247 CURVE SMOOTH",
"285 113 LINE SMOOTH",
"285 20 OFFCURVE",
"253 9 OFFCURVE",
"189 9 CURVE SMOOTH",
"50 9 LINE"
);
},
{
closed = 1;
nodes = (
"50 611 LINE",
"184 611 LINE SMOOTH",
"265 611 OFFCURVE",
"274 586 OFFCURVE",
"274 510 CURVE SMOOTH",
"274 468 LINE SMOOTH",
"274 375 OFFCURVE",
"221 351 OFFCURVE",
"182 351 CURVE SMOOTH",
"50 351 LINE"
);
}
);
};
layerId = "6AABE730-D951-472C-A552-DEE34E1BBDD6";
paths = (
{
closed = 1;
nodes = (
"40 0 LINE",
"50 0 LINE",
"50 230 LINE",
"176 230 LINE SMOOTH",
"289 230 OFFCURVE",
"295 296 OFFCURVE",
"295 368 CURVE SMOOTH",
"295 524 LINE SMOOTH",
"295 588 OFFCURVE",
"283 620 OFFCURVE",
"198 620 CURVE SMOOTH",
"40 620 LINE"
);
},
{
closed = 1;
nodes = (
"50 239 LINE",
"50 611 LINE",
"198 611 LINE SMOOTH",
"266 611 OFFCURVE",
"285 587 OFFCURVE",
"285 526 CURVE SMOOTH",
"285 347 LINE SMOOTH",
"285 269 OFFCURVE",
"248 239 OFFCURVE",
"182 239 CURVE SMOOTH"
);
}
);
width = 382;
},
{
layerId = "D686CB0C-BBDB-4E69-8E5A-045D5C85CA47";
paths = (
{
closed = 1;
nodes = (
"20 0 LINE",
"174 0 LINE",
"174 230 LINE",
"259 230 LINE SMOOTH",
"372 230 OFFCURVE",
"378 296 OFFCURVE",
"378 368 CURVE SMOOTH",
"378 524 LINE SMOOTH",
"378 588 OFFCURVE",
"366 620 OFFCURVE",
"281 620 CURVE SMOOTH",
"20 620 LINE"
);
},
{
closed = 1;
nodes = (
"174 350 LINE",
"174 500 LINE",
"203 500 LINE SMOOTH",
"222 500 OFFCURVE",
"224 498 OFFCURVE",
"224 449 CURVE SMOOTH",
"224 388 LINE SMOOTH",
"224 360 OFFCURVE",
"222 350 OFFCURVE",
"203 350 CURVE SMOOTH"
);
}
);
width = 390;
}
);
note = P;
unicode = 0050;
},
{
glyphname = Thorn;
lastChange = "2021-11-29 03:15:47 +0000";
layers = (
{
layerId = "6AABE730-D951-472C-A552-DEE34E1BBDD6";
paths = (
{
closed = 1;
nodes = (
"40 0 LINE",
"50 0 LINE",
"50 191 LINE",
"176 191 LINE SMOOTH",
"289 191 OFFCURVE",
"295 257 OFFCURVE",
"295 329 CURVE SMOOTH",
"295 485 LINE SMOOTH",
"295 549 OFFCURVE",
"283 581 OFFCURVE",
"198 581 CURVE SMOOTH",
"50 581 LINE",
"50 683 LINE",
"40 683 LINE"
);
},
{
closed = 1;
nodes = (
"50 200 LINE",
"50 572 LINE",
"198 572 LINE SMOOTH",
"266 572 OFFCURVE",
"285 548 OFFCURVE",
"285 487 CURVE SMOOTH",
"285 308 LINE SMOOTH",
"285 230 OFFCURVE",
"248 200 OFFCURVE",
"182 200 CURVE SMOOTH"
);
}
);
width = 382;
},
{
layerId = "D686CB0C-BBDB-4E69-8E5A-045D5C85CA47";
paths = (
{
closed = 1;
nodes = (
"15 0 LINE",
"169 0 LINE",
"169 190 LINE",
"254 190 LINE SMOOTH",
"367 190 OFFCURVE",
"373 256 OFFCURVE",
"373 328 CURVE SMOOTH",
"373 484 LINE SMOOTH",
"373 548 OFFCURVE",
"361 580 OFFCURVE",
"276 580 CURVE SMOOTH",
"168 580 LINE",
"168 670 LINE",
"15 670 LINE"
);
},
{
closed = 1;
nodes = (
"169 310 LINE",
"169 460 LINE",
"198 460 LINE SMOOTH",
"217 460 OFFCURVE",
"219 458 OFFCURVE",
"219 409 CURVE SMOOTH",
"219 348 LINE SMOOTH",
"219 320 OFFCURVE",
"217 310 OFFCURVE",
"198 310 CURVE SMOOTH"
);
}
);
width = 385;
}
);
unicode = 00DE;
},
{
glyphname = Q;
lastChange = "2021-11-29 03:15:47 +0000";
layers = (
{
background = {
hints = (
{
horizontal = 1;
place = "{-12, 65}";
type = Stem;
},
{
horizontal = 1;
place = "{563, 65}";
type = Stem;
},
{
place = "{44, 82}";
type = Stem;
},
{
place = "{258, 82}";
type = Stem;
},
{
horizontal = 1;
place = "{-12, 21}";
target = up;
type = BottomGhost;
}
);
paths = (
{
closed = 1;
nodes = (
"352 -94 LINE",
"335 -62 OFFCURVE",
"315 -25 OFFCURVE",
"297 6 CURVE",
"323 25 OFFCURVE",
"340 52 OFFCURVE",
"340 92 CURVE SMOOTH",
"340 509 LINE SMOOTH",
"340 601 OFFCURVE",
"275 627 OFFCURVE",
"192 628 CURVE SMOOTH",
"109 627 OFFCURVE",
"44 601 OFFCURVE",
"44 510 CURVE SMOOTH",
"44 90 LINE SMOOTH",
"44 5 OFFCURVE",
"109 -11 OFFCURVE",
"192 -12 CURVE SMOOTH",
"199 -12 OFFCURVE",
"207 -12 OFFCURVE",
"221 -10 CURVE",
"286 -129 LINE"
);
},
{
closed = 1;
nodes = (
"155 53 OFFCURVE",
"126 69 OFFCURVE",
"126 116 CURVE SMOOTH",
"126 500 LINE SMOOTH",
"126 546 OFFCURVE",
"155 563 OFFCURVE",
"192 563 CURVE SMOOTH",
"229 563 OFFCURVE",
"258 546 OFFCURVE",
"258 500 CURVE SMOOTH",
"258 116 LINE SMOOTH",
"258 69 OFFCURVE",
"229 53 OFFCURVE",
"192 53 CURVE SMOOTH"
);
}
);
};
layerId = "6AABE730-D951-472C-A552-DEE34E1BBDD6";
paths = (
{
closed = 1;
nodes = (
"248 -6 OFFCURVE",
"295 24 OFFCURVE",
"295 91 CURVE SMOOTH",
"295 525 LINE SMOOTH",
"295 592 OFFCURVE",
"258 627 OFFCURVE",
"166 628 CURVE SMOOTH",
"78 629 OFFCURVE",
"40 592 OFFCURVE",
"40 526 CURVE SMOOTH",
"40 90 LINE SMOOTH",
"40 24 OFFCURVE",
"88 -6 OFFCURVE",
"166 -6 CURVE SMOOTH"
);
},
{
closed = 1;
nodes = (
"317 -95 LINE",
"215 7 LINE",
"208 0 LINE",
"310 -102 LINE"
);
},
{
closed = 1;
nodes = (
"88 3 OFFCURVE",
"50 38 OFFCURVE",
"50 90 CURVE SMOOTH",
"50 525 LINE SMOOTH",
"50 580 OFFCURVE",
"78 618 OFFCURVE",
"166 618 CURVE SMOOTH",
"258 618 OFFCURVE",
"285 580 OFFCURVE",
"285 524 CURVE SMOOTH",
"285 91 LINE SMOOTH",
"285 38 OFFCURVE",
"248 3 OFFCURVE",
"166 3 CURVE SMOOTH"
);
}
);
width = 335;
},
{
layerId = "D686CB0C-BBDB-4E69-8E5A-045D5C85CA47";
paths = (
{
closed = 1;
nodes = (
"307 -8 OFFCURVE",
"370 41 OFFCURVE",
"370 116 CURVE SMOOTH",
"370 490 LINE SMOOTH",
"371 591 OFFCURVE",
"307 626 OFFCURVE",
"194 626 CURVE SMOOTH",
"72 626 OFFCURVE",
"20 591 OFFCURVE",
"20 491 CURVE SMOOTH",
"20 116 LINE SMOOTH",
"20 41 OFFCURVE",
"72 -8 OFFCURVE",
"197 -8 CURVE SMOOTH"
);
},
{
closed = 1;
nodes = (
"433 -44 LINE",
"285 104 LINE",
"186 2 LINE",
"324 -153 LINE"
);
},
{
closed = 1;
nodes = (
"176 118 OFFCURVE",
"175 125 OFFCURVE",
"175 141 CURVE SMOOTH",
"175 146 LINE",
"175 460 LINE SMOOTH",
"175 488 OFFCURVE",
"173 502 OFFCURVE",
"194 502 CURVE SMOOTH",
"216 502 OFFCURVE",
"216 494 OFFCURVE",
"216 459 CURVE SMOOTH",
"216 146 LINE SMOOTH",
"216 127 OFFCURVE",
"216 118 OFFCURVE",
"194 118 CURVE SMOOTH"
);
}
);
width = 408;
}
);
note = Q;
unicode = 0051;
},
{
glyphname = R;
lastChange = "2021-11-29 03:15:47 +0000";
layers = (
{
background = {
paths = (
{
closed = 1;
nodes = (
"313 -5 OFFCURVE",
"336 5 OFFCURVE",
"363 16 CURVE",
"263 261 LINE",
"327 284 OFFCURVE",
"335 338 OFFCURVE",
"335 399 CURVE SMOOTH",
"335 515 LINE SMOOTH",
"335 580 OFFCURVE",
"331 620 OFFCURVE",
"231 620 CURVE SMOOTH",
"40 620 LINE",
"40 0 LINE",
"122 0 LINE",
"122 261 LINE",
"176 261 LINE",
"287 -16 LINE"
);
},
{
closed = 1;
nodes = (
"122 561 LINE",
"189 561 LINE SMOOTH",
"235 561 OFFCURVE",
"254 547 OFFCURVE",
"254 485 CURVE SMOOTH",
"254 403 LINE SMOOTH",
"254 322 OFFCURVE",
"230 320 OFFCURVE",
"184 320 CURVE SMOOTH",
"122 320 LINE"
);
}
);
};
layerId = "6AABE730-D951-472C-A552-DEE34E1BBDD6";
paths = (
{
closed = 1;
nodes = (
"40 0 LINE",
"50 0 LINE",
"50 286 LINE",
"176 286 LINE SMOOTH",
"289 286 OFFCURVE",
"295 352 OFFCURVE",
"295 424 CURVE SMOOTH",
"295 524 LINE SMOOTH",
"295 588 OFFCURVE",
"283 620 OFFCURVE",
"198 620 CURVE SMOOTH",
"40 620 LINE"
);
},
{
closed = 1;
nodes = (
"312 -6 LINE",
"199 282 LINE",
"196 290 LINE",
"195 292 LINE",
"186 288 LINE",
"302 -9 LINE"
);
},
{
closed = 1;
nodes = (
"50 295 LINE",
"50 611 LINE",
"198 611 LINE SMOOTH",
"266 611 OFFCURVE",
"285 587 OFFCURVE",
"285 526 CURVE SMOOTH",
"285 403 LINE SMOOTH",
"285 325 OFFCURVE",
"248 295 OFFCURVE",
"182 295 CURVE SMOOTH"
);
}
);
width = 347;
},
{
background = {
paths = (
{
closed = 1;
nodes = (
"40 0 LINE",
"40 286 LINE",
"166 286 LINE SMOOTH",
"279 286 OFFCURVE",
"285 352 OFFCURVE",
"285 424 CURVE SMOOTH",
"285 524 LINE SMOOTH",
"285 588 OFFCURVE",
"273 620 OFFCURVE",
"188 620 CURVE SMOOTH",
"30 620 LINE",
"30 0 LINE"
);
},
{
closed = 1;
nodes = (
"40 611 LINE",
"188 611 LINE SMOOTH",
"256 611 OFFCURVE",
"275 587 OFFCURVE",
"275 526 CURVE SMOOTH",
"275 403 LINE SMOOTH",
"275 325 OFFCURVE",
"238 295 OFFCURVE",
"172 295 CURVE SMOOTH",
"40 295 LINE"
);
},
{
closed = 1;
nodes = (
"302 -6 LINE",
"185 292 LINE",
"176 288 LINE",
"292 -9 LINE"
);
}
);
};
layerId = "D686CB0C-BBDB-4E69-8E5A-045D5C85CA47";
paths = (
{
closed = 1;
nodes = (
"20 0 LINE",
"174 0 LINE",
"174 243 LINE",
"259 243 LINE SMOOTH",
"372 243 OFFCURVE",
"378 309 OFFCURVE",
"378 381 CURVE SMOOTH",
"378 524 LINE SMOOTH",
"378 588 OFFCURVE",
"366 620 OFFCURVE",
"281 620 CURVE SMOOTH",
"20 620 LINE"
);
},
{
closed = 1;
nodes = (
"417 31 LINE",
"318 239 LINE",
"312 243 LINE",
"268 254 LINE",
"165 252 LINE",
"274 -25 LINE"
);
},
{
closed = 1;
nodes = (
"174 363 LINE",
"174 500 LINE",
"203 500 LINE SMOOTH",
"222 500 OFFCURVE",
"224 498 OFFCURVE",
"224 449 CURVE SMOOTH",
"224 401 LINE SMOOTH",
"224 373 OFFCURVE",
"222 363 OFFCURVE",
"203 363 CURVE SMOOTH"
);
}
);
width = 417;
}
);
note = R;
unicode = 0052;
},
{
glyphname = S;
lastChange = "2021-11-29 03:12:42 +0000";
layers = (
{
layerId = "6AABE730-D951-472C-A552-DEE34E1BBDD6";
paths = (
{
closed = 1;
nodes = (
"258 -1 OFFCURVE",
"295 12 OFFCURVE",
"295 100 CURVE SMOOTH",
"295 209 LINE SMOOTH",
"295 269 OFFCURVE",
"272 300 OFFCURVE",
"211 316 CURVE SMOOTH",
"128 338 LINE SMOOTH",
"88 349 OFFCURVE",
"50 369 OFFCURVE",
"50 421 CURVE SMOOTH",
"50 523 LINE SMOOTH",
"50 588 OFFCURVE",
"79 613 OFFCURVE",
"173 613 CURVE SMOOTH",
"265 613 OFFCURVE",
"285 589 OFFCURVE",
"285 542 CURVE SMOOTH",
"285 416 LINE",
"295 421 LINE",
"295 542 LINE SMOOTH",
"295 606 OFFCURVE",
"256 621 OFFCURVE",
"173 622 CURVE SMOOTH",
"88 621 OFFCURVE",
"40 608 OFFCURVE",
"40 523 CURVE SMOOTH",
"40 426 LINE SMOOTH",
"40 369 OFFCURVE",
"64 345 OFFCURVE",
"124 329 CURVE SMOOTH",
"207 307 LINE SMOOTH",
"255 294 OFFCURVE",
"285 267 OFFCURVE",
"285 209 CURVE SMOOTH",
"285 100 LINE SMOOTH",
"285 32 OFFCURVE",
"267 7 OFFCURVE",
"173 7 CURVE SMOOTH",
"81 7 OFFCURVE",
"50 31 OFFCURVE",
"50 78 CURVE SMOOTH",
"50 204 LINE",
"40 199 LINE",
"40 78 LINE SMOOTH",
"40 14 OFFCURVE",
"90 -1 OFFCURVE",
"173 -2 CURVE SMOOTH"
);
}
);
width = 335;
},
{
layerId = "D686CB0C-BBDB-4E69-8E5A-045D5C85CA47";
paths = (
{
closed = 1;
nodes = (
"282 -10 OFFCURVE",
"363 7 OFFCURVE",
"363 92 CURVE SMOOTH",
"363 234 LINE SMOOTH",
"363 297 OFFCURVE",
"335 318 OFFCURVE",
"273 340 CURVE SMOOTH",
"199 366 LINE SMOOTH",
"170 376 OFFCURVE",
"169 409 OFFCURVE",
"169 430 CURVE SMOOTH",
"169 467 LINE SMOOTH",
"169 504 OFFCURVE",
"177 509 OFFCURVE",
"189 509 CURVE SMOOTH",
"201 509 OFFCURVE",
"209 507 OFFCURVE",
"209 469 CURVE SMOOTH",
"209 379 LINE",
"363 399 LINE",
"363 548 LINE SMOOTH",
"363 610 OFFCURVE",
"280 628 OFFCURVE",
"195 628 CURVE SMOOTH",
"102 628 OFFCURVE",
"15 616 OFFCURVE",
"15 529 CURVE SMOOTH",
"15 384 LINE SMOOTH",
"15 317 OFFCURVE",
"41 294 OFFCURVE",
"98 275 CURVE SMOOTH",
"161 254 LINE SMOOTH",
"202 240 OFFCURVE",
"209 211 OFFCURVE",
"209 184 CURVE SMOOTH",
"209 136 LINE SMOOTH",
"209 123 OFFCURVE",
"203 112 OFFCURVE",
"188 112 CURVE SMOOTH",
"171 112 OFFCURVE",
"169 123 OFFCURVE",
"169 136 CURVE SMOOTH",
"169 234 LINE",
"15 219 LINE",
"15 70 LINE SMOOTH",
"15 4 OFFCURVE",
"104 -10 OFFCURVE",
"197 -10 CURVE SMOOTH"
);
}
);
width = 378;
}
);
note = S;
unicode = 0053;
},
{
glyphname = Germandbls;
lastChange = "2021-11-29 03:15:47 +0000";
layers = (
{
background = {
paths = (
{
closed = 1;
nodes = (
"297 290 OFFCURVE",
"272 306 OFFCURVE",
"265 312 CURVE SMOOTH",
"253 322 OFFCURVE",
"252 341 OFFCURVE",
"252 345 CURVE SMOOTH",
"252 356 OFFCURVE",
"254 376 OFFCURVE",
"269 393 CURVE SMOOTH",
"284 411 OFFCURVE",
"312 442 OFFCURVE",
"329 459 CURVE SMOOTH",
"349 479 OFFCURVE",
"355 508 OFFCURVE",
"355 542 CURVE SMOOTH",
"355 593 OFFCURVE",
"303 627 OFFCURVE",
"222 627 CURVE SMOOTH",
"54 627 LINE SMOOTH",
"-32 627 OFFCURVE",
"-58 608 OFFCURVE",
"-58 529 CURVE",
"-57 -31 LINE",
"93 -31 LINE",
"93 500 LINE SMOOTH",
"93 542 OFFCURVE",
"97 548 OFFCURVE",
"128 548 CURVE SMOOTH",
"168 548 LINE SMOOTH",
"207 548 OFFCURVE",
"227 532 OFFCURVE",
"194 496 CURVE SMOOTH",
"186 488 OFFCURVE",
"153 453 OFFCURVE",
"141 439 CURVE SMOOTH",
"128 424 OFFCURVE",
"116 397 OFFCURVE",
"116 360 CURVE SMOOTH",
"116 347 LINE SMOOTH",
"116 298 OFFCURVE",
"122 266 OFFCURVE",
"192 217 CURVE SMOOTH",
"215 201 OFFCURVE",
"239 188 OFFCURVE",
"263 174 CURVE SMOOTH",
"285 162 OFFCURVE",
"281 146 OFFCURVE",
"281 114 CURVE SMOOTH",
"281 101 OFFCURVE",
"277 93 OFFCURVE",
"266 93 CURVE SMOOTH",
"252 93 OFFCURVE",
"250 101 OFFCURVE",
"250 145 CURVE",
"116 137 LINE",
"116 35 OFFCURVE",
"158 -6 OFFCURVE",
"262 -6 CURVE SMOOTH",
"382 -6 OFFCURVE",
"418 33 OFFCURVE",
"418 120 CURVE SMOOTH",
"418 140 LINE SMOOTH",
"418 176 OFFCURVE",
"414 230 OFFCURVE",
"357 259 CURVE SMOOTH"
);
}
);
};
layerId = "6AABE730-D951-472C-A552-DEE34E1BBDD6";
paths = (
{
closed = 1;
nodes = (
"343 -6 OFFCURVE",
"374 33 OFFCURVE",
"374 106 CURVE SMOOTH",
"374 111 LINE SMOOTH",
"374 175 OFFCURVE",
"366 196 OFFCURVE",
"301 241 CURVE SMOOTH",
"286 251 OFFCURVE",
"271 260 OFFCURVE",
"226 284 CURVE SMOOTH",
"188 305 OFFCURVE",
"172 328 OFFCURVE",
"172 365 CURVE SMOOTH",
"172 392 OFFCURVE",
"199 418 OFFCURVE",
"229 443 CURVE SMOOTH",
"281 486 OFFCURVE",
"302 504 OFFCURVE",
"302 557 CURVE SMOOTH",
"302 604 OFFCURVE",
"271 620 OFFCURVE",
"207 620 CURVE SMOOTH",
"170 620 LINE SMOOTH",
"91 620 OFFCURVE",
"73 601 OFFCURVE",
"73 542 CURVE SMOOTH",
"73 9 LINE",
"83 9 LINE",
"83 542 LINE SMOOTH",
"83 596 OFFCURVE",
"98 611 OFFCURVE",
"172 611 CURVE SMOOTH",
"206 611 LINE SMOOTH",
"256 611 OFFCURVE",
"291 600 OFFCURVE",
"291 555 CURVE SMOOTH",
"291 510 OFFCURVE",
"267 489 OFFCURVE",
"221 450 CURVE SMOOTH",
"191 425 OFFCURVE",
"161 402 OFFCURVE",
"161 365 CURVE SMOOTH",
"161 363 LINE SMOOTH",
"161 315 OFFCURVE",
"184 295 OFFCURVE",
"222 275 CURVE SMOOTH",
"246 262 OFFCURVE",
"282 243 OFFCURVE",
"297 232 CURVE SMOOTH",
"358 187 OFFCURVE",
"364 168 OFFCURVE",
"364 106 CURVE SMOOTH",
"364 21 OFFCURVE",
"318 3 OFFCURVE",
"243 3 CURVE SMOOTH",
"149 3 OFFCURVE",
"129 56 OFFCURVE",
"129 106 CURVE",
"119 106 LINE",
"119 35 OFFCURVE",
"154 -6 OFFCURVE",
"243 -6 CURVE SMOOTH"
);
}
);
width = 434;
},
{
layerId = "D686CB0C-BBDB-4E69-8E5A-045D5C85CA47";
paths = (
{
closed = 1;
nodes = (
"291 -31 LINE",
"291 500 LINE SMOOTH",
"291 542 OFFCURVE",
"295 548 OFFCURVE",
"326 548 CURVE SMOOTH",
"366 548 LINE SMOOTH",
"391 548 OFFCURVE",
"409 541 OFFCURVE",
"409 527 CURVE SMOOTH",
"409 519 OFFCURVE",
"404 509 OFFCURVE",
"392 496 CURVE SMOOTH",
"379 482 OFFCURVE",
"368 470 OFFCURVE",
"358 460 CURVE SMOOTH",
"330 430 OFFCURVE",
"314 410 OFFCURVE",
"314 360 CURVE SMOOTH",
"314 347 LINE SMOOTH",
"314 298 OFFCURVE",
"320 266 OFFCURVE",
"390 217 CURVE SMOOTH",
"413 201 OFFCURVE",
"437 188 OFFCURVE",
"461 174 CURVE SMOOTH",
"483 162 OFFCURVE",
"479 146 OFFCURVE",
"479 114 CURVE SMOOTH",
"479 101 OFFCURVE",
"475 93 OFFCURVE",
"464 93 CURVE SMOOTH",
"450 93 OFFCURVE",
"448 101 OFFCURVE",
"448 145 CURVE",
"314 137 LINE",
"314 35 OFFCURVE",
"356 -6 OFFCURVE",
"460 -6 CURVE SMOOTH",
"580 -6 OFFCURVE",
"616 33 OFFCURVE",
"616 120 CURVE SMOOTH",
"616 140 LINE SMOOTH",
"616 176 OFFCURVE",
"612 230 OFFCURVE",
"555 259 CURVE SMOOTH",
"495 290 OFFCURVE",
"471 307 OFFCURVE",
"463 312 CURVE SMOOTH",
"452 319 OFFCURVE",
"446 328 OFFCURVE",
"446 340 CURVE SMOOTH",
"446 356 OFFCURVE",
"458 378 OFFCURVE",
"482 404 CURVE SMOOTH",
"496 420 OFFCURVE",
"511 439 OFFCURVE",
"531 464 CURVE SMOOTH",
"545 481 OFFCURVE",
"553 508 OFFCURVE",
"553 542 CURVE SMOOTH",
"553 593 OFFCURVE",
"501 627 OFFCURVE",
"420 627 CURVE SMOOTH",
"252 627 LINE SMOOTH",
"166 627 OFFCURVE",
"140 608 OFFCURVE",
"140 529 CURVE SMOOTH",
"141 -31 LINE"
);
}
);
width = 646;
}
);
unicode = 1E9E;
},
{
glyphname = Schwa;
lastChange = "2021-11-29 03:15:47 +0000";
layers = (
{
layerId = "6AABE730-D951-472C-A552-DEE34E1BBDD6";
paths = (
{
closed = 1;
nodes = (
"276 -3 OFFCURVE",
"295 72 OFFCURVE",
"295 129 CURVE SMOOTH",
"295 494 LINE SMOOTH",
"295 550 OFFCURVE",
"276 623 OFFCURVE",
"171 623 CURVE SMOOTH",
"62 623 OFFCURVE",
"40 550 OFFCURVE",
"40 470 CURVE SMOOTH",
"40 392 LINE",
"50 397 LINE",
"50 479 LINE SMOOTH",
"50 579 OFFCURVE",
"102 614 OFFCURVE",
"171 614 CURVE SMOOTH",
"235 614 OFFCURVE",
"285 580 OFFCURVE",
"285 491 CURVE SMOOTH",
"285 305 LINE",
"40 305 LINE",
"40 129 LINE SMOOTH",
"40 72 OFFCURVE",
"62 -3 OFFCURVE",
"169 -3 CURVE SMOOTH"
);
},
{
closed = 1;
nodes = (
"98 6 OFFCURVE",
"50 43 OFFCURVE",
"50 131 CURVE SMOOTH",
"50 296 LINE",
"285 296 LINE",
"285 131 LINE SMOOTH",
"285 42 OFFCURVE",
"235 6 OFFCURVE",
"169 6 CURVE SMOOTH"
);
}
);
width = 335;
},
{
layerId = "D686CB0C-BBDB-4E69-8E5A-045D5C85CA47";
paths = (
{
closed = 1;
nodes = (
"338 -6 OFFCURVE",
"368 62 OFFCURVE",
"368 159 CURVE SMOOTH",
"368 464 LINE SMOOTH",
"368 560 OFFCURVE",
"338 629 OFFCURVE",
"193 629 CURVE SMOOTH",
"67 629 OFFCURVE",
"20 565 OFFCURVE",
"20 466 CURVE SMOOTH",
"20 386 LINE",
"170 399 LINE",
"170 459 LINE SMOOTH",
"170 475 OFFCURVE",
"170 503 OFFCURVE",
"194 503 CURVE SMOOTH",
"218 503 OFFCURVE",
"218 475 OFFCURVE",
"218 459 CURVE SMOOTH",
"218 351 LINE",
"20 351 LINE",
"20 156 LINE SMOOTH",
"20 57 OFFCURVE",
"67 -6 OFFCURVE",
"193 -6 CURVE SMOOTH"
);
},
{
closed = 1;
nodes = (
"170 117 OFFCURVE",
"170 150 OFFCURVE",
"170 165 CURVE SMOOTH",
"170 248 LINE",
"218 248 LINE",
"218 165 LINE SMOOTH",
"218 150 OFFCURVE",
"218 117 OFFCURVE",
"194 117 CURVE SMOOTH"
);
}
);
width = 388;
}
);
unicode = 018F;
},
{
glyphname = T;
lastChange = "2021-11-29 03:15:47 +0000";
layers = (
{
layerId = "6AABE730-D951-472C-A552-DEE34E1BBDD6";
paths = (
{
closed = 1;
nodes = (
"134 0 LINE",
"144 0 LINE",
"144 611 LINE",
"259 611 LINE",
"259 620 LINE",
"20 620 LINE",
"20 611 LINE",
"134 611 LINE"
);
}
);
width = 279;
},
{
layerId = "D686CB0C-BBDB-4E69-8E5A-045D5C85CA47";
paths = (
{
closed = 1;
nodes = (
"108 0 LINE",
"262 0 LINE",
"262 500 LINE",
"365 500 LINE",
"365 620 LINE",
"5 620 LINE",
"5 500 LINE",
"108 500 LINE"
);
}
);
width = 370;
}
);
note = T;
unicode = 0054;
},
{
glyphname = U;
lastChange = "2021-11-29 03:15:47 +0000";
layers = (
{
layerId = "6AABE730-D951-472C-A552-DEE34E1BBDD6";
paths = (
{
closed = 1;
nodes = (
"241 -5 OFFCURVE",
"295 19 OFFCURVE",
"295 89 CURVE SMOOTH",
"295 620 LINE",
"285 620 LINE",
"285 94 LINE SMOOTH",
"285 48 OFFCURVE",
"268 4 OFFCURVE",
"168 4 CURVE SMOOTH",
"71 4 OFFCURVE",
"50 47 OFFCURVE",
"50 94 CURVE SMOOTH",
"50 620 LINE",
"40 620 LINE",
"40 89 LINE SMOOTH",
"40 19 OFFCURVE",
"100 -5 OFFCURVE",
"168 -5 CURVE SMOOTH"
);
}
);
width = 390;
},
{
layerId = "D686CB0C-BBDB-4E69-8E5A-045D5C85CA47";
paths = (
{
closed = 1;
nodes = (
"292 -5 OFFCURVE",
"368 19 OFFCURVE",
"368 89 CURVE SMOOTH",
"368 620 LINE",
"214 620 LINE",
"214 137 LINE SMOOTH",
"214 126 OFFCURVE",
"206 115 OFFCURVE",
"193 115 CURVE SMOOTH",
"180 115 OFFCURVE",
"174 125 OFFCURVE",
"174 137 CURVE SMOOTH",
"174 620 LINE",
"20 620 LINE",
"20 89 LINE SMOOTH",
"20 19 OFFCURVE",
"92 -5 OFFCURVE",
"193 -5 CURVE SMOOTH"
);
}
);
width = 388;
}
);
note = U;
unicode = 0055;
},
{
glyphname = V;
lastChange = "2021-11-29 03:15:47 +0000";
layers = (
{
layerId = "6AABE730-D951-472C-A552-DEE34E1BBDD6";
paths = (
{
closed = 1;
nodes = (
"174 0 LINE",
"306 620 LINE",
"296 620 LINE",
"167 19 LINE",
"166 9 LINE",
"165 19 LINE",
"35 620 LINE",
"25 620 LINE",
"158 0 LINE"
);
}
);
width = 349;
},
{
background = {
paths = (
{
closed = 1;
nodes = (
"128 0 LINE",
"281 0 LINE",
"408 620 LINE",
"248 620 LINE",
"225 478 LINE",
"277 522 LINE",
"125 522 LINE",
"177 478 LINE",
"155 620 LINE",
"0 620 LINE"
);
},
{
closed = 1;
nodes = (
"136 400 LINE",
"268 400 LINE",
"227 445 LINE",
"204 209 LINE",
"203 181 LINE",
"202 181 LINE",
"201 209 LINE",
"176 445 LINE"
);
}
);
};
layerId = "D686CB0C-BBDB-4E69-8E5A-045D5C85CA47";
paths = (
{
closed = 1;
nodes = (
"281 0 LINE",
"408 620 LINE",
"248 620 LINE",
"206 232 LINE",
"205 206 LINE",
"204 206 LINE",
"203 232 LINE",
"154 620 LINE",
"0 620 LINE",
"128 0 LINE"
);
}
);
width = 408;
}
);
note = V;
unicode = 0056;
},
{
glyphname = W;
lastChange = "2021-11-29 03:15:47 +0000";
layers = (
{
background = {
paths = (
{
closed = 1;
nodes = (
"154 0 LINE",
"272 477 LINE",
"272 478 LINE",
"272 477 LINE",
"378 0 LINE",
"394 0 LINE",
"506 620 LINE",
"496 620 LINE",
"387 19 LINE",
"387 15 LINE",
"386 9 LINE",
"385 19 LINE",
"277 500 LINE",
"267 500 LINE",
"147 19 LINE",
"146 11 LINE",
"146 9 LINE",
"145 19 LINE",
"35 620 LINE",
"25 620 LINE",
"138 0 LINE"
);
}
);
};
layerId = "6AABE730-D951-472C-A552-DEE34E1BBDD6";
paths = (
{
closed = 1;
nodes = (
"154 0 LINE",
"272 563 LINE",
"378 0 LINE",
"394 0 LINE",
"506 620 LINE",
"496 620 LINE",
"387 19 LINE",
"386 9 LINE",
"385 19 LINE",
"277 586 LINE",
"267 586 LINE",
"147 19 LINE",
"146 9 LINE",
"145 19 LINE",
"35 620 LINE",
"25 620 LINE",
"138 0 LINE"
);
}
);
width = 584;
},
{
layerId = "D686CB0C-BBDB-4E69-8E5A-045D5C85CA47";
paths = (
{
closed = 1;
nodes = (
"271 0 LINE",
"300 240 LINE",
"301 267 LINE",
"302 267 LINE",
"303 240 LINE",
"331 0 LINE",
"474 0 LINE",
"601 620 LINE",
"441 620 LINE",
"399 312 LINE",
"398 286 LINE",
"397 286 LINE",
"396 312 LINE",
"358 595 LINE",
"243 595 LINE",
"206 312 LINE",
"205 286 LINE",
"204 286 LINE",
"203 312 LINE",
"154 620 LINE",
"0 620 LINE",
"128 0 LINE"
);
}
);
width = 601;
}
);
note = W;
unicode = 0057;
},
{
glyphname = X;
lastChange = "2021-11-29 03:15:47 +0000";
layers = (
{
background = {
paths = (
{
closed = 1;
nodes = (
"144 330 LINE",
"47 620 LINE",
"36 620 LINE",
"133 325 LINE",
"30 0 LINE",
"41 0 LINE",
"144 321 LINE"
);
},
{
closed = 1;
nodes = (
"307 0 LINE",
"318 0 LINE",
"215 325 LINE",
"312 620 LINE",
"301 620 LINE",
"204 330 LINE",
"204 321 LINE"
);
},
{
closed = 1;
nodes = (
"142 321 LINE",
"207 321 LINE",
"207 330 LINE",
"142 330 LINE"
);
}
);
};
layerId = "6AABE730-D951-472C-A552-DEE34E1BBDD6";
paths = (
{
closed = 1;
nodes = (
"41 0 LINE",
"174 321 LINE",
"307 0 LINE",
"319 0 LINE",
"186 325 LINE",
"312 620 LINE",
"299 620 LINE",
"174 330 LINE",
"49 620 LINE",
"36 620 LINE",
"163 325 LINE",
"30 0 LINE"
);
}
);
width = 348;
},
{
background = {
paths = (
{
closed = 1;
nodes = (
"241 313 LINE",
"165 620 LINE",
"11 620 LINE",
"108 325 LINE",
"5 0 LINE",
"163 0 LINE",
"241 308 LINE"
);
},
{
closed = 1;
nodes = (
"260 0 LINE",
"423 0 LINE",
"320 325 LINE",
"417 620 LINE",
"262 620 LINE",
"184 315 LINE",
"184 308 LINE"
);
},
{
closed = 1;
nodes = (
"144 266 LINE",
"285 266 LINE",
"285 386 LINE",
"144 386 LINE"
);
}
);
};
layerId = "D686CB0C-BBDB-4E69-8E5A-045D5C85CA47";
paths = (
{
closed = 1;
nodes = (
"163 0 LINE",
"210 184 LINE",
"211 235 LINE",
"213 235 LINE",
"214 184 LINE",
"260 0 LINE",
"423 0 LINE",
"320 325 LINE",
"417 620 LINE",
"262 620 LINE",
"215 434 LINE",
"214 389 LINE",
"212 389 LINE",
"211 434 LINE",
"165 620 LINE",
"11 620 LINE",
"108 325 LINE",
"5 0 LINE"
);
}
);
width = 428;
}
);
note = X;
unicode = 0058;
},
{
glyphname = Y;
lastChange = "2021-11-29 03:15:47 +0000";
layers = (
{
background = {
hints = (
{
horizontal = 1;
place = "{0, 21}";
target = up;
type = BottomGhost;
},
{
horizontal = 1;
place = "{620, -20}";
target = down;
type = TopGhost;
},
{
place = "{138, 81}";
type = Stem;
}
);
paths = (
{
closed = 1;
nodes = (
"100 620 LINE",
"18 620 LINE",
"132 238 LINE",
"132 0 LINE",
"213 0 LINE",
"213 239 LINE",
"326 620 LINE",
"245 620 LINE",
"172 379 LINE"
);
}
);
};
layerId = "6AABE730-D951-472C-A552-DEE34E1BBDD6";
paths = (
{
closed = 1;
nodes = (
"173 0 LINE",
"173 283 LINE",
"311 620 LINE",
"300 620 LINE",
"168 293 LINE",
"36 620 LINE",
"25 620 LINE",
"163 282 LINE",
"163 0 LINE"
);
}
);
width = 336;
},
{
background = {
components = (
{
name = I;
transform = "{0.89175, 0.45254, -0.45254, 0.89175, 240, 36}";
},
{
name = I;
transform = "{1, 0, 0, 0.46303, 116, 0}";
},
{
name = I;
transform = "{-0.89175, 0.45254, 0.45254, 0.89175, 225, 36}";
}
);
paths = (
{
closed = 0;
nodes = (
"289 184 LINE",
"409 620 LINE"
);
}
);
};
layerId = "D686CB0C-BBDB-4E69-8E5A-045D5C85CA47";
paths = (
{
closed = 1;
nodes = (
"289 0 LINE",
"289 185 LINE",
"419 620 LINE",
"279 620 LINE",
"217 362 LINE",
"216 337 LINE",
"215 362 LINE",
"146 620 LINE",
"5 620 LINE",
"135 184 LINE",
"135 0 LINE"
);
}
);
width = 424;
}
);
note = Y;
unicode = 0059;
},
{
glyphname = Z;
lastChange = "2021-11-29 03:15:47 +0000";
layers = (
{
layerId = "6AABE730-D951-472C-A552-DEE34E1BBDD6";
paths = (
{
closed = 1;
nodes = (
"33 2 LINE",
"246 620 LINE",
"236 618 LINE",
"22 0 LINE"
);
},
{
closed = 1;
nodes = (
"256 0 LINE",
"256 9 LINE",
"29 9 LINE",
"22 0 LINE"
);
},
{
closed = 1;
nodes = (
"246 611 LINE",
"246 620 LINE",
"40 620 LINE",
"40 611 LINE"
);
}
);
width = 286;
},
{
layerId = "D686CB0C-BBDB-4E69-8E5A-045D5C85CA47";
paths = (
{
closed = 1;
nodes = (
"130 0 LINE",
"354 620 LINE",
"229 620 LINE",
"5 0 LINE"
);
},
{
closed = 1;
nodes = (
"366 0 LINE",
"366 120 LINE",
"131 120 LINE",
"85 0 LINE"
);
},
{
closed = 1;
nodes = (
"253 500 LINE",
"253 620 LINE",
"16 620 LINE",
"16 500 LINE"
);
}
);
width = 371;
}
);
note = Z;
unicode = 005A;
},
{
glyphname = a;
lastChange = "2021-11-29 03:15:47 +0000";
layers = (
{
layerId = "6AABE730-D951-472C-A552-DEE34E1BBDD6";
paths = (
{
closed = 1;
nodes = (
"243 0 LINE",
"246 9 LINE",
"107 9 LINE SMOOTH",
"54 9 OFFCURVE",
"50 26 OFFCURVE",
"50 99 CURVE SMOOTH",
"50 365 LINE SMOOTH",
"50 438 OFFCURVE",
"44 461 OFFCURVE",
"116 461 CURVE SMOOTH",
"285 461 LINE",
"285 0 LINE",
"295 0 LINE",
"295 470 LINE",
"141 470 LINE SMOOTH",
"52 470 OFFCURVE",
"40 468 OFFCURVE",
"40 390 CURVE SMOOTH",
"40 125 LINE SMOOTH",
"40 17 OFFCURVE",
"40 0 OFFCURVE",
"107 0 CURVE SMOOTH"
);
}
);
width = 340;
},
{
background = {
paths = (
{
closed = 1;
nodes = (
"363 0 LINE",
"363 627 LINE",
"213 627 LINE",
"213 470 LINE",
"138 470 LINE SMOOTH",
"46 470 OFFCURVE",
"15 421 OFFCURVE",
"15 343 CURVE SMOOTH",
"15 145 LINE SMOOTH",
"15 37 OFFCURVE",
"15 0 OFFCURVE",
"118 0 CURVE SMOOTH"
);
},
{
closed = 1;
nodes = (
"173 120 OFFCURVE",
"165 121 OFFCURVE",
"165 155 CURVE SMOOTH",
"165 314 LINE SMOOTH",
"165 334 OFFCURVE",
"170 350 OFFCURVE",
"186 350 CURVE SMOOTH",
"213 350 LINE",
"213 120 LINE",
"194 120 LINE SMOOTH"
);
}
);
};
layerId = "D686CB0C-BBDB-4E69-8E5A-045D5C85CA47";
paths = (
{
closed = 1;
nodes = (
"188 0 LINE",
"202 120 LINE",
"191 120 LINE SMOOTH",
"173 120 OFFCURVE",
"165 121 OFFCURVE",
"165 155 CURVE SMOOTH",
"165 322 LINE SMOOTH",
"165 341 OFFCURVE",
"173 350 OFFCURVE",
"189 350 CURVE SMOOTH",
"213 350 LINE",
"213 0 LINE",
"363 0 LINE",
"363 470 LINE",
"136 470 LINE SMOOTH",
"46 470 OFFCURVE",
"15 421 OFFCURVE",
"15 343 CURVE SMOOTH",
"15 133 LINE SMOOTH",
"15 40 OFFCURVE",
"20 0 OFFCURVE",
"105 0 CURVE SMOOTH"
);
}
);
width = 378;
}
);
note = a;
unicode = 0061;
},
{
glyphname = b;
lastChange = "2021-11-29 03:15:47 +0000";
layers = (
{
background = {
components = (
{
name = d;
transform = "{-1, 0, 0, 1, 335, 0}";
}
);
};
layerId = "6AABE730-D951-472C-A552-DEE34E1BBDD6";
paths = (
{
closed = 1;
nodes = (
"233 0 LINE SMOOTH",
"300 0 OFFCURVE",
"300 17 OFFCURVE",
"300 125 CURVE SMOOTH",
"300 390 LINE SMOOTH",
"300 468 OFFCURVE",
"288 470 OFFCURVE",
"199 470 CURVE SMOOTH",
"55 470 LINE",
"55 627 LINE",
"45 627 LINE",
"45 0 LINE"
);
},
{
closed = 1;
nodes = (
"55 461 LINE",
"224 461 LINE SMOOTH",
"296 461 OFFCURVE",
"290 438 OFFCURVE",
"290 365 CURVE SMOOTH",
"290 99 LINE SMOOTH",
"290 26 OFFCURVE",
"286 9 OFFCURVE",
"234 9 CURVE SMOOTH",
"55 9 LINE"
);
}
);
width = 340;
},
{
layerId = "D686CB0C-BBDB-4E69-8E5A-045D5C85CA47";
paths = (
{
closed = 1;
nodes = (
"260 0 LINE SMOOTH",
"363 0 OFFCURVE",
"363 37 OFFCURVE",
"363 145 CURVE SMOOTH",
"363 343 LINE SMOOTH",
"363 421 OFFCURVE",
"332 470 OFFCURVE",
"240 470 CURVE SMOOTH",
"165 470 LINE",
"165 627 LINE",
"15 627 LINE",
"15 0 LINE"
);
},
{
closed = 1;
nodes = (
"165 350 LINE",
"189 350 LINE SMOOTH",
"205 350 OFFCURVE",
"213 341 OFFCURVE",
"213 322 CURVE SMOOTH",
"213 155 LINE SMOOTH",
"213 121 OFFCURVE",
"205 120 OFFCURVE",
"184 120 CURVE SMOOTH",
"165 120 LINE"
);
}
);
width = 378;
}
);
note = b;
unicode = 0062;
},
{
glyphname = c;
lastChange = "2021-11-29 03:15:47 +0000";
layers = (
{
background = {
paths = (
{
closed = 0;
nodes = (
"40 353 LINE SMOOTH",
"40 96 LINE SMOOTH",
"40 53 OFFCURVE",
"59 -4 OFFCURVE",
"168 -4 CURVE SMOOTH",
"276 -4 OFFCURVE",
"295 53 OFFCURVE",
"295 96 CURVE SMOOTH",
"295 162 LINE",
"285 167 LINE",
"285 98 LINE SMOOTH",
"285 31 OFFCURVE",
"236 5 OFFCURVE",
"168 5 CURVE SMOOTH",
"101 5 OFFCURVE",
"50 30 OFFCURVE",
"50 98 CURVE SMOOTH",
"50 329 LINE SMOOTH"
);
}
);
};
layerId = "6AABE730-D951-472C-A552-DEE34E1BBDD6";
paths = (
{
closed = 1;
nodes = (
"276 -4 OFFCURVE",
"295 53 OFFCURVE",
"295 114 CURVE SMOOTH",
"295 173 LINE",
"285 169 LINE",
"285 107 LINE SMOOTH",
"285 31 OFFCURVE",
"236 5 OFFCURVE",
"158 5 CURVE SMOOTH",
"101 5 OFFCURVE",
"50 30 OFFCURVE",
"50 98 CURVE SMOOTH",
"50 371 LINE SMOOTH",
"50 439 OFFCURVE",
"101 464 OFFCURVE",
"168 464 CURVE SMOOTH",
"236 464 OFFCURVE",
"285 438 OFFCURVE",
"285 371 CURVE SMOOTH",
"285 302 LINE",
"295 307 LINE",
"295 373 LINE SMOOTH",
"295 416 OFFCURVE",
"276 473 OFFCURVE",
"168 473 CURVE SMOOTH",
"59 473 OFFCURVE",
"40 416 OFFCURVE",
"40 373 CURVE SMOOTH",
"40 96 LINE SMOOTH",
"40 53 OFFCURVE",
"59 -4 OFFCURVE",
"158 -4 CURVE SMOOTH"
);
}
);
width = 335;
},
{
layerId = "D686CB0C-BBDB-4E69-8E5A-045D5C85CA47";
paths = (
{
closed = 1;
nodes = (
"316 -5 OFFCURVE",
"363 43 OFFCURVE",
"363 118 CURVE SMOOTH",
"363 211 LINE",
"213 201 LINE",
"213 150 LINE SMOOTH",
"213 138 OFFCURVE",
"213 117 OFFCURVE",
"189 117 CURVE SMOOTH",
"165 117 OFFCURVE",
"165 138 OFFCURVE",
"165 150 CURVE SMOOTH",
"165 325 LINE SMOOTH",
"165 336 OFFCURVE",
"165 361 OFFCURVE",
"189 361 CURVE SMOOTH",
"213 361 OFFCURVE",
"213 336 OFFCURVE",
"213 325 CURVE SMOOTH",
"213 265 LINE",
"363 275 LINE",
"363 353 LINE SMOOTH",
"363 428 OFFCURVE",
"316 476 OFFCURVE",
"190 476 CURVE SMOOTH",
"45 476 OFFCURVE",
"15 424 OFFCURVE",
"15 351 CURVE SMOOTH",
"15 120 LINE SMOOTH",
"15 47 OFFCURVE",
"45 -5 OFFCURVE",
"190 -5 CURVE SMOOTH"
);
}
);
width = 378;
}
);
note = c;
unicode = 0063;
},
{
glyphname = d;
lastChange = "2021-11-29 03:15:47 +0000";
layers = (
{
background = {
paths = (
{
closed = 1;
nodes = (
"243 0 LINE",
"246 9 LINE",
"107 9 LINE SMOOTH",
"54 9 OFFCURVE",
"50 26 OFFCURVE",
"50 99 CURVE SMOOTH",
"50 365 LINE SMOOTH",
"50 438 OFFCURVE",
"44 461 OFFCURVE",
"116 461 CURVE SMOOTH",
"285 461 LINE",
"285 0 LINE",
"295 0 LINE",
"295 470 LINE",
"141 470 LINE SMOOTH",
"52 470 OFFCURVE",
"40 468 OFFCURVE",
"40 390 CURVE SMOOTH",
"40 125 LINE SMOOTH",
"40 17 OFFCURVE",
"40 0 OFFCURVE",
"107 0 CURVE SMOOTH"
);
}
);
};
guideLines = (
{
position = "{297, 627}";
}
);
layerId = "6AABE730-D951-472C-A552-DEE34E1BBDD6";
paths = (
{
closed = 1;
nodes = (
"295 0 LINE",
"295 627 LINE",
"285 627 LINE",
"285 470 LINE",
"141 470 LINE SMOOTH",
"52 470 OFFCURVE",
"40 468 OFFCURVE",
"40 390 CURVE SMOOTH",
"40 125 LINE SMOOTH",
"40 17 OFFCURVE",
"40 0 OFFCURVE",
"107 0 CURVE SMOOTH"
);
},
{
closed = 1;
nodes = (
"106 9 LINE SMOOTH",
"54 9 OFFCURVE",
"50 26 OFFCURVE",
"50 99 CURVE SMOOTH",
"50 365 LINE SMOOTH",
"50 438 OFFCURVE",
"44 461 OFFCURVE",
"116 461 CURVE SMOOTH",
"285 461 LINE",
"285 9 LINE"
);
}
);
width = 340;
},
{
background = {
paths = (
{
closed = 1;
nodes = (
"188 0 LINE",
"202 120 LINE",
"191 120 LINE SMOOTH",
"173 120 OFFCURVE",
"165 121 OFFCURVE",
"165 155 CURVE SMOOTH",
"165 322 LINE SMOOTH",
"165 341 OFFCURVE",
"173 350 OFFCURVE",
"189 350 CURVE SMOOTH",
"213 350 LINE",
"213 0 LINE",
"363 0 LINE",
"363 470 LINE",
"136 470 LINE SMOOTH",
"46 470 OFFCURVE",
"15 421 OFFCURVE",
"15 343 CURVE SMOOTH",
"15 133 LINE SMOOTH",
"15 40 OFFCURVE",
"20 0 OFFCURVE",
"105 0 CURVE SMOOTH"
);
}
);
};
layerId = "D686CB0C-BBDB-4E69-8E5A-045D5C85CA47";
paths = (
{
closed = 1;
nodes = (
"363 0 LINE",
"363 627 LINE",
"213 627 LINE",
"213 470 LINE",
"138 470 LINE SMOOTH",
"46 470 OFFCURVE",
"15 421 OFFCURVE",
"15 343 CURVE SMOOTH",
"15 145 LINE SMOOTH",
"15 37 OFFCURVE",
"15 0 OFFCURVE",
"118 0 CURVE SMOOTH"
);
},
{
closed = 1;
nodes = (
"194 120 LINE SMOOTH",
"173 120 OFFCURVE",
"165 121 OFFCURVE",
"165 155 CURVE SMOOTH",
"165 322 LINE SMOOTH",
"165 341 OFFCURVE",
"173 350 OFFCURVE",
"189 350 CURVE SMOOTH",
"213 350 LINE",
"213 120 LINE"
);
}
);
width = 378;
}
);
note = d;
unicode = 0064;
},
{
glyphname = eth;
lastChange = "2021-11-29 03:12:25 +0000";
layers = (
{
layerId = "6AABE730-D951-472C-A552-DEE34E1BBDD6";
paths = (
{
closed = 1;
nodes = (
"295 -1 OFFCURVE",
"316 26 OFFCURVE",
"314 164 CURVE SMOOTH",
"314 338 LINE SMOOTH",
"314 550 OFFCURVE",
"240 620 OFFCURVE",
"147 620 CURVE SMOOTH",
"70 620 LINE",
"70 611 LINE",
"147 611 LINE SMOOTH",
"240 611 OFFCURVE",
"284 534 OFFCURVE",
"299 429 CURVE",
"271 464 OFFCURVE",
"227 470 OFFCURVE",
"193 470 CURVE SMOOTH",
"86 470 OFFCURVE",
"60 429 OFFCURVE",
"60 326 CURVE SMOOTH",
"60 158 LINE SMOOTH",
"58 26 OFFCURVE",
"84 -1 OFFCURVE",
"184 -1 CURVE SMOOTH"
);
},
{
closed = 1;
nodes = (
"101 8 OFFCURVE",
"69 30 OFFCURVE",
"69 135 CURVE SMOOTH",
"69 328 LINE SMOOTH",
"69 439 OFFCURVE",
"112 461 OFFCURVE",
"187 461 CURVE SMOOTH",
"255 461 OFFCURVE",
"304 438 OFFCURVE",
"304 371 CURVE SMOOTH",
"304 107 LINE SMOOTH",
"304 30 OFFCURVE",
"269 8 OFFCURVE",
"184 8 CURVE SMOOTH"
);
},
{
closed = 1;
nodes = (
"194 649 LINE",
"187 654 LINE",
"93 531 LINE",
"101 525 LINE"
);
}
);
width = 374;
},
{
layerId = "D686CB0C-BBDB-4E69-8E5A-045D5C85CA47";
paths = (
{
closed = 1;
nodes = (
"360 -1 OFFCURVE",
"390 14 OFFCURVE",
"388 164 CURVE SMOOTH",
"387 338 LINE SMOOTH",
"387 550 OFFCURVE",
"286 620 OFFCURVE",
"159 620 CURVE SMOOTH",
"54 620 LINE",
"54 537 LINE",
"72 537 LINE SMOOTH",
"152 537 OFFCURVE",
"190 523 OFFCURVE",
"208 470 CURVE",
"150 470 LINE SMOOTH",
"76 470 OFFCURVE",
"40 429 OFFCURVE",
"40 326 CURVE SMOOTH",
"40 158 LINE SMOOTH",
"37 26 OFFCURVE",
"72 -1 OFFCURVE",
"214 -1 CURVE SMOOTH"
);
},
{
closed = 1;
nodes = (
"190 128 OFFCURVE",
"190 149 OFFCURVE",
"190 161 CURVE SMOOTH",
"190 336 LINE SMOOTH",
"190 347 OFFCURVE",
"190 372 OFFCURVE",
"214 372 CURVE SMOOTH",
"238 372 OFFCURVE",
"238 347 OFFCURVE",
"238 336 CURVE SMOOTH",
"238 161 LINE SMOOTH",
"238 149 OFFCURVE",
"238 128 OFFCURVE",
"214 128 CURVE SMOOTH"
);
},
{
closed = 1;
nodes = (
"248 646 LINE",
"213 674 LINE",
"87 509 LINE",
"123 480 LINE"
);
}
);
width = 428;
}
);
unicode = 00F0;
},
{
glyphname = e;
lastChange = "2021-11-29 03:15:47 +0000";
layers = (
{
background = {
paths = (
{
closed = 1;
nodes = (
"289 -9 OFFCURVE",
"326 39 OFFCURVE",
"326 114 CURVE SMOOTH",
"326 184 LINE",
"246 173 LINE",
"246 140 LINE SMOOTH",
"246 94 OFFCURVE",
"246 49 OFFCURVE",
"182 49 CURVE SMOOTH",
"123 49 OFFCURVE",
"123 94 OFFCURVE",
"123 140 CURVE SMOOTH",
"123 239 LINE",
"326 239 LINE",
"326 353 LINE SMOOTH",
"326 428 OFFCURVE",
"289 476 OFFCURVE",
"181 476 CURVE SMOOTH",
"73 476 OFFCURVE",
"43 424 OFFCURVE",
"43 351 CURVE SMOOTH",
"43 116 LINE SMOOTH",
"43 43 OFFCURVE",
"73 -9 OFFCURVE",
"181 -9 CURVE SMOOTH"
);
},
{
closed = 1;
nodes = (
"123 327 LINE SMOOTH",
"123 373 OFFCURVE",
"123 418 OFFCURVE",
"182 418 CURVE SMOOTH",
"246 418 OFFCURVE",
"246 373 OFFCURVE",
"246 327 CURVE SMOOTH",
"246 283 LINE",
"123 283 LINE"
);
}
);
};
layerId = "6AABE730-D951-472C-A552-DEE34E1BBDD6";
paths = (
{
closed = 1;
nodes = (
"276 -4 OFFCURVE",
"295 53 OFFCURVE",
"295 114 CURVE SMOOTH",
"295 173 LINE",
"285 169 LINE",
"285 107 LINE SMOOTH",
"285 31 OFFCURVE",
"236 5 OFFCURVE",
"158 5 CURVE SMOOTH",
"101 5 OFFCURVE",
"50 30 OFFCURVE",
"50 98 CURVE SMOOTH",
"50 371 LINE SMOOTH",
"50 439 OFFCURVE",
"101 464 OFFCURVE",
"168 464 CURVE SMOOTH",
"236 464 OFFCURVE",
"285 438 OFFCURVE",
"285 371 CURVE SMOOTH",
"285 244 LINE",
"295 244 LINE",
"295 373 LINE SMOOTH",
"295 416 OFFCURVE",
"276 473 OFFCURVE",
"168 473 CURVE SMOOTH",
"59 473 OFFCURVE",
"40 416 OFFCURVE",
"40 373 CURVE SMOOTH",
"40 96 LINE SMOOTH",
"40 53 OFFCURVE",
"59 -4 OFFCURVE",
"158 -4 CURVE SMOOTH"
);
},
{
closed = 1;
nodes = (
"295 239 LINE",
"295 248 LINE",
"46 248 LINE",
"46 239 LINE"
);
}
);
width = 335;
},
{
layerId = "D686CB0C-BBDB-4E69-8E5A-045D5C85CA47";
paths = (
{
closed = 1;
nodes = (
"316 -5 OFFCURVE",
"363 43 OFFCURVE",
"363 118 CURVE SMOOTH",
"363 179 LINE",
"213 169 LINE",
"213 150 LINE SMOOTH",
"213 138 OFFCURVE",
"213 117 OFFCURVE",
"189 117 CURVE SMOOTH",
"165 117 OFFCURVE",
"165 138 OFFCURVE",
"165 150 CURVE SMOOTH",
"165 325 LINE SMOOTH",
"165 336 OFFCURVE",
"165 361 OFFCURVE",
"189 361 CURVE SMOOTH",
"213 361 OFFCURVE",
"213 336 OFFCURVE",
"213 325 CURVE SMOOTH",
"213 265 LINE",
"363 275 LINE",
"363 353 LINE SMOOTH",
"363 428 OFFCURVE",
"316 476 OFFCURVE",
"190 476 CURVE SMOOTH",
"45 476 OFFCURVE",
"15 424 OFFCURVE",
"15 351 CURVE SMOOTH",
"15 120 LINE SMOOTH",
"15 47 OFFCURVE",
"45 -5 OFFCURVE",
"190 -5 CURVE SMOOTH"
);
},
{
closed = 1;
nodes = (
"363 205 LINE",
"363 283 LINE",
"31 283 LINE",
"31 205 LINE"
);
}
);
width = 378;
}
);
note = e;
unicode = 0065;
},
{
glyphname = f;
lastChange = "2021-11-29 03:15:47 +0000";
layers = (
{
background = {
paths = (
{
closed = 1;
nodes = (
"154 0 LINE",
"154 407 LINE",
"233 407 LINE",
"248 470 LINE",
"154 470 LINE",
"154 521 LINE SMOOTH",
"154 563 OFFCURVE",
"158 569 OFFCURVE",
"189 569 CURVE SMOOTH",
"251 569 LINE",
"251 627 LINE",
"149 627 LINE SMOOTH",
"91 627 OFFCURVE",
"73 608 OFFCURVE",
"73 557 CURVE SMOOTH",
"73 470 LINE",
"30 470 LINE",
"30 407 LINE",
"73 407 LINE",
"73 0 LINE"
);
}
);
};
layerId = "6AABE730-D951-472C-A552-DEE34E1BBDD6";
paths = (
{
closed = 1;
nodes = (
"73 0 LINE",
"83 0 LINE",
"83 461 LINE",
"168 461 LINE",
"171 470 LINE",
"83 470 LINE",
"83 557 LINE SMOOTH",
"83 596 OFFCURVE",
"98 611 OFFCURVE",
"149 611 CURVE SMOOTH",
"207 611 LINE",
"207 620 LINE",
"149 620 LINE SMOOTH",
"91 620 OFFCURVE",
"73 601 OFFCURVE",
"73 557 CURVE SMOOTH",
"73 470 LINE",
"30 470 LINE",
"30 461 LINE",
"73 461 LINE"
);
}
);
width = 227;
},
{
background = {
paths = (
{
closed = 1;
nodes = (
"134 0 LINE",
"134 407 LINE",
"213 407 LINE",
"228 470 LINE",
"134 470 LINE",
"134 521 LINE SMOOTH",
"134 563 OFFCURVE",
"138 569 OFFCURVE",
"169 569 CURVE SMOOTH",
"231 569 LINE",
"231 627 LINE",
"129 627 LINE SMOOTH",
"71 627 OFFCURVE",
"53 608 OFFCURVE",
"53 557 CURVE SMOOTH",
"53 470 LINE",
"10 470 LINE",
"10 407 LINE",
"53 407 LINE",
"53 0 LINE"
);
},
{
closed = 1;
nodes = (
"28 549 LINE",
"360 549 LINE",
"360 627 LINE",
"28 627 LINE"
);
},
{
closed = 1;
nodes = (
"28 392 LINE",
"360 392 LINE",
"360 470 LINE",
"28 470 LINE"
);
}
);
};
layerId = "D686CB0C-BBDB-4E69-8E5A-045D5C85CA47";
paths = (
{
closed = 1;
nodes = (
"53 0 LINE",
"204 0 LINE",
"204 392 LINE",
"278 392 LINE",
"288 470 LINE",
"204 470 LINE",
"204 500 LINE SMOOTH",
"204 542 OFFCURVE",
"208 548 OFFCURVE",
"239 548 CURVE SMOOTH",
"301 548 LINE",
"301 627 LINE",
"165 627 LINE SMOOTH",
"79 627 OFFCURVE",
"53 608 OFFCURVE",
"53 529 CURVE SMOOTH",
"53 470 LINE",
"10 470 LINE",
"10 392 LINE",
"53 392 LINE"
);
}
);
width = 311;
}
);
note = f;
unicode = 0066;
},
{
glyphname = g;
lastChange = "2021-11-29 03:15:47 +0000";
layers = (
{
background = {
hints = (
{
horizontal = 1;
place = "{-170, 62}";
type = Stem;
},
{
horizontal = 1;
place = "{0, 63}";
type = Stem;
},
{
horizontal = 1;
place = "{407, 63}";
type = Stem;
},
{
place = "{43, 80}";
type = Stem;
},
{
place = "{246, 80}";
type = Stem;
}
);
paths = (
{
closed = 1;
nodes = (
"208 -170 LINE SMOOTH",
"303 -170 OFFCURVE",
"326 -134 OFFCURVE",
"326 -25 CURVE SMOOTH",
"326 470 LINE",
"133 470 LINE SMOOTH",
"43 470 OFFCURVE",
"43 421 OFFCURVE",
"43 343 CURVE SMOOTH",
"43 145 LINE SMOOTH",
"43 37 OFFCURVE",
"43 0 OFFCURVE",
"133 0 CURVE SMOOTH",
"197 0 LINE",
"211 63 LINE",
"180 63 LINE SMOOTH",
"131 63 OFFCURVE",
"123 85 OFFCURVE",
"123 141 CURVE SMOOTH",
"123 333 LINE SMOOTH",
"123 391 OFFCURVE",
"122 407 OFFCURVE",
"169 407 CURVE SMOOTH",
"246 407 LINE",
"246 -29 LINE SMOOTH",
"246 -86 OFFCURVE",
"228 -108 OFFCURVE",
"181 -108 CURVE SMOOTH",
"79 -108 LINE",
"93 -170 LINE"
);
}
);
};
layerId = "6AABE730-D951-472C-A552-DEE34E1BBDD6";
paths = (
{
closed = 1;
nodes = (
"233 -170 LINE SMOOTH",
"281 -170 OFFCURVE",
"295 -152 OFFCURVE",
"295 -96 CURVE SMOOTH",
"295 470 LINE",
"141 470 LINE SMOOTH",
"52 470 OFFCURVE",
"40 468 OFFCURVE",
"40 390 CURVE SMOOTH",
"40 125 LINE SMOOTH",
"40 17 OFFCURVE",
"40 0 OFFCURVE",
"107 0 CURVE SMOOTH",
"243 0 LINE",
"246 9 LINE",
"107 9 LINE SMOOTH",
"54 9 OFFCURVE",
"50 26 OFFCURVE",
"50 99 CURVE SMOOTH",
"50 365 LINE SMOOTH",
"50 438 OFFCURVE",
"44 461 OFFCURVE",
"116 461 CURVE SMOOTH",
"285 461 LINE",
"285 -96 LINE SMOOTH",
"285 -140 OFFCURVE",
"277 -161 OFFCURVE",
"237 -161 CURVE SMOOTH",
"94 -161 LINE",
"97 -170 LINE"
);
}
);
width = 340;
},
{
background = {
paths = (
{
closed = 1;
nodes = (
"213 -13 LINE SMOOTH",
"213 -52 OFFCURVE",
"205 -61 OFFCURVE",
"174 -61 CURVE SMOOTH",
"89 -61 LINE",
"56 -181 LINE",
"242 -181 LINE SMOOTH",
"332 -181 OFFCURVE",
"363 -132 OFFCURVE",
"363 -54 CURVE SMOOTH",
"363 156 LINE",
"213 134 LINE"
);
},
{
closed = 0;
nodes = (
"62 -181 LINE",
"44 -61 LINE"
);
}
);
};
layerId = "D686CB0C-BBDB-4E69-8E5A-045D5C85CA47";
paths = (
{
closed = 1;
nodes = (
"242 -181 LINE SMOOTH",
"332 -181 OFFCURVE",
"363 -132 OFFCURVE",
"363 -54 CURVE SMOOTH",
"363 470 LINE",
"136 470 LINE SMOOTH",
"46 470 OFFCURVE",
"15 421 OFFCURVE",
"15 343 CURVE SMOOTH",
"15 133 LINE SMOOTH",
"15 40 OFFCURVE",
"20 0 OFFCURVE",
"105 0 CURVE SMOOTH",
"188 0 LINE",
"202 120 LINE",
"191 120 LINE SMOOTH",
"173 120 OFFCURVE",
"165 121 OFFCURVE",
"165 155 CURVE SMOOTH",
"165 322 LINE SMOOTH",
"165 341 OFFCURVE",
"173 350 OFFCURVE",
"189 350 CURVE SMOOTH",
"213 350 LINE",
"213 -13 LINE SMOOTH",
"213 -52 OFFCURVE",
"205 -61 OFFCURVE",
"174 -61 CURVE SMOOTH",
"44 -61 LINE",
"62 -181 LINE"
);
}
);
width = 381;
}
);
note = g;
unicode = 0067;
},
{
glyphname = h;
lastChange = "2021-11-29 03:12:25 +0000";
layers = (
{
background = {
components = (
{
name = c;
}
);
hints = (
{
horizontal = 1;
place = "{0, 21}";
target = up;
type = BottomGhost;
},
{
horizontal = 1;
place = "{407, 63}";
type = Stem;
},
{
horizontal = 1;
place = "{627, -20}";
target = down;
type = TopGhost;
},
{
place = "{44, 80}";
type = Stem;
},
{
place = "{247, 80}";
type = Stem;
},
{
horizontal = 1;
place = "{391, 16}";
type = Stem;
},
{
place = "{124, 7}";
type = Stem;
}
);
};
layerId = "6AABE730-D951-472C-A552-DEE34E1BBDD6";
paths = (
{
closed = 1;
nodes = (
"40 0 LINE",
"50 0 LINE",
"50 407 LINE",
"73 439 OFFCURVE",
"105 464 OFFCURVE",
"167 464 CURVE SMOOTH",
"236 464 OFFCURVE",
"285 438 OFFCURVE",
"285 370 CURVE SMOOTH",
"285 0 LINE",
"295 0 LINE",
"295 372 LINE SMOOTH",
"295 416 OFFCURVE",
"276 473 OFFCURVE",
"167 473 CURVE SMOOTH",
"107 473 OFFCURVE",
"73 454 OFFCURVE",
"50 421 CURVE",
"50 630 LINE",
"40 630 LINE"
);
}
);
width = 335;
},
{
layerId = "D686CB0C-BBDB-4E69-8E5A-045D5C85CA47";
paths = (
{
closed = 1;
nodes = (
"15 0 LINE",
"165 0 LINE",
"165 326 LINE SMOOTH",
"165 349 OFFCURVE",
"173 358 OFFCURVE",
"190 358 CURVE SMOOTH",
"213 358 OFFCURVE",
"213 343 OFFCURVE",
"213 319 CURVE SMOOTH",
"213 0 LINE",
"363 0 LINE",
"363 372 LINE SMOOTH",
"363 416 OFFCURVE",
"348 473 OFFCURVE",
"260 473 CURVE SMOOTH",
"211 473 OFFCURVE",
"184 454 OFFCURVE",
"165 421 CURVE",
"165 627 LINE",
"15 627 LINE"
);
}
);
width = 378;
}
);
note = h;
unicode = 0068;
},
{
glyphname = i;
lastChange = "2021-11-29 03:15:47 +0000";
layers = (
{
background = {
paths = (
{
closed = 1;
nodes = (
"186 499 OFFCURVE",
"186 527 OFFCURVE",
"186 561 CURVE SMOOTH",
"186 602 OFFCURVE",
"186 630 OFFCURVE",
"108 630 CURVE SMOOTH",
"30 630 OFFCURVE",
"30 602 OFFCURVE",
"30 561 CURVE SMOOTH",
"30 527 OFFCURVE",
"30 499 OFFCURVE",
"108 499 CURVE SMOOTH"
);
}
);
};
layerId = "6AABE730-D951-472C-A552-DEE34E1BBDD6";
paths = (
{
closed = 1;
nodes = (
"56 0 LINE",
"66 0 LINE",
"66 470 LINE",
"56 470 LINE"
);
},
{
closed = 1;
nodes = (
"72 549 OFFCURVE",
"72 554 OFFCURVE",
"72 560 CURVE SMOOTH",
"72 567 OFFCURVE",
"72 572 OFFCURVE",
"61 572 CURVE SMOOTH",
"50 572 OFFCURVE",
"50 567 OFFCURVE",
"50 560 CURVE SMOOTH",
"50 554 OFFCURVE",
"50 549 OFFCURVE",
"61 549 CURVE SMOOTH"
);
}
);
width = 122;
},
{
layerId = "D686CB0C-BBDB-4E69-8E5A-045D5C85CA47";
paths = (
{
closed = 1;
nodes = (
"26 0 LINE",
"176 0 LINE",
"176 470 LINE",
"26 470 LINE"
);
},
{
closed = 1;
nodes = (
"176 499 OFFCURVE",
"176 527 OFFCURVE",
"176 561 CURVE SMOOTH",
"176 602 OFFCURVE",
"176 630 OFFCURVE",
"98 630 CURVE SMOOTH",
"20 630 OFFCURVE",
"20 602 OFFCURVE",
"20 561 CURVE SMOOTH",
"20 527 OFFCURVE",
"20 499 OFFCURVE",
"98 499 CURVE SMOOTH"
);
}
);
width = 196;
}
);
note = i;
unicode = 0069;
},
{
color = 11;
glyphname = idotless;
lastChange = "2021-11-29 03:15:47 +0000";
layers = (
{
layerId = "6AABE730-D951-472C-A552-DEE34E1BBDD6";
paths = (
{
closed = 1;
nodes = (
"56 0 LINE",
"66 0 LINE",
"66 470 LINE",
"56 470 LINE"
);
}
);
width = 122;
},
{
layerId = "D686CB0C-BBDB-4E69-8E5A-045D5C85CA47";
paths = (
{
closed = 1;
nodes = (
"21 0 LINE",
"171 0 LINE",
"171 470 LINE",
"21 470 LINE"
);
}
);
width = 186;
}
);
unicode = 0131;
},
{
glyphname = j;
lastChange = "2021-11-29 03:15:47 +0000";
layers = (
{
layerId = "6AABE730-D951-472C-A552-DEE34E1BBDD6";
paths = (
{
closed = 1;
nodes = (
"-9 -170 LINE SMOOTH",
"39 -170 OFFCURVE",
"53 -152 OFFCURVE",
"53 -96 CURVE SMOOTH",
"53 470 LINE",
"43 470 LINE",
"43 -96 LINE SMOOTH",
"43 -140 OFFCURVE",
"35 -161 OFFCURVE",
"-5 -161 CURVE SMOOTH",
"-70 -161 LINE",
"-67 -170 LINE"
);
},
{
closed = 1;
nodes = (
"59 549 OFFCURVE",
"59 549 OFFCURVE",
"59 560 CURVE SMOOTH",
"59 572 OFFCURVE",
"59 572 OFFCURVE",
"48 572 CURVE SMOOTH",
"37 572 OFFCURVE",
"37 572 OFFCURVE",
"37 560 CURVE SMOOTH",
"37 549 OFFCURVE",
"37 549 OFFCURVE",
"48 549 CURVE SMOOTH"
);
}
);
width = 99;
},
{
background = {
paths = (
{
closed = 1;
nodes = (
"110 -96 LINE SMOOTH",
"110 -140 OFFCURVE",
"102 -161 OFFCURVE",
"62 -161 CURVE SMOOTH",
"-3 -161 LINE",
"0 -170 LINE",
"58 -170 LINE SMOOTH",
"106 -170 OFFCURVE",
"120 -152 OFFCURVE",
"120 -96 CURVE SMOOTH",
"120 470 LINE",
"110 470 LINE"
);
}
);
};
layerId = "D686CB0C-BBDB-4E69-8E5A-045D5C85CA47";
paths = (
{
closed = 1;
nodes = (
"139 -181 LINE SMOOTH",
"229 -181 OFFCURVE",
"260 -132 OFFCURVE",
"260 -54 CURVE SMOOTH",
"260 470 LINE",
"110 470 LINE",
"110 -13 LINE SMOOTH",
"110 -52 OFFCURVE",
"102 -61 OFFCURVE",
"71 -61 CURVE SMOOTH",
"-30 -61 LINE",
"-12 -181 LINE"
);
},
{
closed = 1;
nodes = (
"265 499 OFFCURVE",
"265 499 OFFCURVE",
"265 561 CURVE SMOOTH",
"265 630 OFFCURVE",
"265 630 OFFCURVE",
"187 630 CURVE SMOOTH",
"109 630 OFFCURVE",
"109 630 OFFCURVE",
"109 561 CURVE SMOOTH",
"109 499 OFFCURVE",
"109 499 OFFCURVE",
"187 499 CURVE SMOOTH"
);
}
);
width = 280;
}
);
note = j;
unicode = 006A;
},
{
color = 11;
glyphname = jdotless;
lastChange = "2021-11-29 03:15:47 +0000";
layers = (
{
layerId = "6AABE730-D951-472C-A552-DEE34E1BBDD6";
paths = (
{
closed = 1;
nodes = (
"-9 -170 LINE SMOOTH",
"39 -170 OFFCURVE",
"53 -152 OFFCURVE",
"53 -96 CURVE SMOOTH",
"53 470 LINE",
"43 470 LINE",
"43 -96 LINE SMOOTH",
"43 -140 OFFCURVE",
"35 -161 OFFCURVE",
"-5 -161 CURVE SMOOTH",
"-70 -161 LINE",
"-67 -170 LINE"
);
}
);
width = 99;
},
{
layerId = "D686CB0C-BBDB-4E69-8E5A-045D5C85CA47";
paths = (
{
closed = 1;
nodes = (
"139 -181 LINE SMOOTH",
"229 -181 OFFCURVE",
"260 -132 OFFCURVE",
"260 -54 CURVE SMOOTH",
"260 470 LINE",
"110 470 LINE",
"110 -13 LINE SMOOTH",
"110 -52 OFFCURVE",
"102 -61 OFFCURVE",
"71 -61 CURVE SMOOTH",
"-30 -61 LINE",
"-12 -181 LINE"
);
}
);
width = 280;
}
);
unicode = 0237;
},
{
glyphname = k;
lastChange = "2021-11-29 03:12:25 +0000";
layers = (
{
background = {
hints = (
{
horizontal = 1;
place = "{0, 21}";
target = up;
type = BottomGhost;
},
{
horizontal = 1;
place = "{254, 12}";
type = Stem;
},
{
horizontal = 1;
place = "{479, -20}";
target = down;
type = TopGhost;
},
{
horizontal = 1;
place = "{627, -20}";
target = down;
type = TopGhost;
},
{
place = "{43, 80}";
type = Stem;
},
{
place = "{123, 20}";
type = Stem;
}
);
paths = (
{
closed = 1;
nodes = (
"342 0 LINE",
"304 88 OFFCURVE",
"262 179 OFFCURVE",
"225 266 CURVE",
"320 445 LINE",
"296 456 OFFCURVE",
"279 467 OFFCURVE",
"254 479 CURVE",
"217 407 OFFCURVE",
"181 331 OFFCURVE",
"145 260 CURVE",
"252 0 LINE"
);
},
{
closed = 1;
nodes = (
"145 260 LINE",
"142 268 LINE",
"123 264 LINE",
"123 256 LINE",
"141 252 LINE"
);
},
{
closed = 1;
nodes = (
"123 0 LINE",
"123 627 LINE",
"43 627 LINE",
"43 0 LINE"
);
}
);
};
layerId = "6AABE730-D951-472C-A552-DEE34E1BBDD6";
paths = (
{
closed = 1;
nodes = (
"295 0 LINE",
"111 242 LINE",
"261 476 LINE",
"251 482 LINE",
"98 242 LINE",
"282 0 LINE"
);
},
{
closed = 1;
nodes = (
"106 238 LINE",
"106 247 LINE",
"45 247 LINE",
"45 238 LINE"
);
},
{
closed = 1;
nodes = (
"40 0 LINE",
"50 0 LINE",
"50 627 LINE",
"40 627 LINE"
);
}
);
width = 315;
},
{
layerId = "D686CB0C-BBDB-4E69-8E5A-045D5C85CA47";
paths = (
{
closed = 1;
nodes = (
"420 0 LINE",
"302 254 LINE",
"398 432 LINE",
"261 482 LINE",
"144 240 LINE",
"250 0 LINE"
);
},
{
closed = 1;
nodes = (
"119 294 LINE",
"180 294 LINE",
"180 182 LINE",
"119 182 LINE"
);
},
{
closed = 1;
nodes = (
"30 0 LINE",
"180 0 LINE",
"180 620 LINE",
"30 620 LINE"
);
}
);
width = 435;
}
);
note = k;
unicode = 006B;
},
{
glyphname = kgreenlandic;
lastChange = "2021-11-29 03:12:25 +0000";
layers = (
{
layerId = "6AABE730-D951-472C-A552-DEE34E1BBDD6";
paths = (
{
closed = 1;
nodes = (
"295 0 LINE",
"111 242 LINE",
"257 470 LINE",
"243 470 LINE",
"98 242 LINE",
"282 0 LINE"
);
},
{
closed = 1;
nodes = (
"106 238 LINE",
"106 247 LINE",
"45 247 LINE",
"45 238 LINE"
);
},
{
closed = 1;
nodes = (
"40 0 LINE",
"50 0 LINE",
"50 557 LINE",
"40 557 LINE"
);
}
);
width = 315;
},
{
layerId = "D686CB0C-BBDB-4E69-8E5A-045D5C85CA47";
paths = (
{
closed = 1;
nodes = (
"420 0 LINE",
"302 254 LINE",
"418 470 LINE",
"255 470 LINE",
"144 240 LINE",
"250 0 LINE"
);
},
{
closed = 1;
nodes = (
"30 0 LINE",
"180 0 LINE",
"180 525 LINE",
"30 525 LINE"
);
},
{
closed = 1;
nodes = (
"119 294 LINE",
"180 294 LINE",
"180 182 LINE",
"119 182 LINE"
);
}
);
width = 435;
}
);
unicode = 0138;
},
{
glyphname = l;
lastChange = "2021-11-29 03:15:47 +0000";
layers = (
{
layerId = "6AABE730-D951-472C-A552-DEE34E1BBDD6";
paths = (
{
closed = 1;
nodes = (
"40 0 LINE",
"50 0 LINE",
"50 627 LINE",
"40 627 LINE"
);
}
);
width = 90;
},
{
layerId = "D686CB0C-BBDB-4E69-8E5A-045D5C85CA47";
paths = (
{
closed = 1;
nodes = (
"30 0 LINE",
"180 0 LINE",
"180 620 LINE",
"30 620 LINE"
);
}
);
width = 210;
}
);
note = l;
unicode = 006C;
},
{
glyphname = m;
lastChange = "2021-11-29 03:15:47 +0000";
layers = (
{
background = {
paths = (
{
closed = 1;
nodes = (
"122 377 LINE",
"132 387 OFFCURVE",
"153 405 OFFCURVE",
"185 405 CURVE SMOOTH",
"226 405 OFFCURVE",
"244 391 OFFCURVE",
"244 335 CURVE SMOOTH",
"244 0 LINE",
"325 0 LINE",
"325 133 OFFCURVE",
"327 362 OFFCURVE",
"323 381 CURVE",
"337 394 OFFCURVE",
"355 405 OFFCURVE",
"388 405 CURVE SMOOTH",
"429 405 OFFCURVE",
"447 389 OFFCURVE",
"447 332 CURVE SMOOTH",
"447 0 LINE",
"528 0 LINE",
"528 346 LINE SMOOTH",
"528 426 OFFCURVE",
"506 470 OFFCURVE",
"416 470 CURVE SMOOTH",
"372 470 OFFCURVE",
"335 445 OFFCURVE",
"318 412 CURVE",
"307 450 OFFCURVE",
"277 470 OFFCURVE",
"213 470 CURVE SMOOTH",
"172 470 OFFCURVE",
"130 451 OFFCURVE",
"117 414 CURVE",
"110 470 LINE",
"42 470 LINE",
"42 0 LINE",
"122 0 LINE"
);
}
);
};
layerId = "6AABE730-D951-472C-A552-DEE34E1BBDD6";
paths = (
{
closed = 1;
nodes = (
"40 0 LINE",
"50 0 LINE",
"50 407 LINE",
"73 439 OFFCURVE",
"105 466 OFFCURVE",
"167 466 CURVE SMOOTH",
"236 466 OFFCURVE",
"285 438 OFFCURVE",
"285 370 CURVE SMOOTH",
"285 0 LINE",
"295 0 LINE",
"295 372 LINE SMOOTH",
"295 416 OFFCURVE",
"276 475 OFFCURVE",
"167 475 CURVE SMOOTH",
"107 475 OFFCURVE",
"73 454 OFFCURVE",
"50 421 CURVE",
"48 470 LINE",
"40 470 LINE"
);
},
{
closed = 1;
nodes = (
"540 0 LINE",
"540 372 LINE SMOOTH",
"540 416 OFFCURVE",
"521 475 OFFCURVE",
"412 475 CURVE SMOOTH",
"352 475 OFFCURVE",
"288 445 OFFCURVE",
"288 389 CURVE",
"290 379 LINE",
"290 376 OFFCURVE",
"291 370 OFFCURVE",
"293 370 CURVE",
"295 372 LINE",
"295 437 OFFCURVE",
"350 466 OFFCURVE",
"412 466 CURVE SMOOTH",
"481 466 OFFCURVE",
"530 438 OFFCURVE",
"530 370 CURVE SMOOTH",
"530 0 LINE"
);
}
);
width = 580;
},
{
background = {
paths = (
{
closed = 1;
nodes = (
"378 0 LINE",
"378 326 LINE",
"378 349 OFFCURVE",
"386 358 OFFCURVE",
"403 358 CURVE SMOOTH",
"426 358 OFFCURVE",
"426 343 OFFCURVE",
"426 319 CURVE SMOOTH",
"426 0 LINE",
"576 0 LINE",
"576 377 LINE SMOOTH",
"576 421 OFFCURVE",
"561 478 OFFCURVE",
"473 478 CURVE SMOOTH",
"424 478 OFFCURVE",
"384 459 OFFCURVE",
"365 421 CURVE",
"351 470 LINE",
"228 470 LINE",
"228 0 LINE"
);
}
);
};
layerId = "D686CB0C-BBDB-4E69-8E5A-045D5C85CA47";
paths = (
{
closed = 1;
nodes = (
"30 0 LINE",
"180 0 LINE",
"180 326 LINE SMOOTH",
"180 349 OFFCURVE",
"188 358 OFFCURVE",
"205 358 CURVE SMOOTH",
"228 358 OFFCURVE",
"228 343 OFFCURVE",
"228 319 CURVE SMOOTH",
"228 0 LINE",
"378 0 LINE",
"378 377 LINE SMOOTH",
"378 421 OFFCURVE",
"363 478 OFFCURVE",
"275 478 CURVE SMOOTH",
"226 478 OFFCURVE",
"186 459 OFFCURVE",
"167 421 CURVE",
"153 470 LINE",
"30 470 LINE"
);
},
{
closed = 1;
nodes = (
"576 0 LINE",
"576 377 LINE SMOOTH",
"576 421 OFFCURVE",
"561 478 OFFCURVE",
"473 478 CURVE SMOOTH",
"424 478 OFFCURVE",
"362 464 OFFCURVE",
"344 358 CURVE",
"344 335 LINE SMOOTH",
"344 331 OFFCURVE",
"374 310 OFFCURVE",
"378 315 CURVE",
"378 349 OFFCURVE",
"386 358 OFFCURVE",
"403 358 CURVE SMOOTH",
"426 358 OFFCURVE",
"426 343 OFFCURVE",
"426 320 CURVE SMOOTH",
"426 0 LINE"
);
}
);
width = 606;
}
);
note = m;
unicode = 006D;
},
{
glyphname = n;
lastChange = "2021-11-29 03:15:47 +0000";
layers = (
{
layerId = "6AABE730-D951-472C-A552-DEE34E1BBDD6";
paths = (
{
closed = 1;
nodes = (
"40 0 LINE",
"50 0 LINE",
"50 407 LINE",
"73 439 OFFCURVE",
"105 466 OFFCURVE",
"167 466 CURVE SMOOTH",
"236 466 OFFCURVE",
"285 438 OFFCURVE",
"285 370 CURVE SMOOTH",
"285 0 LINE",
"295 0 LINE",
"295 372 LINE SMOOTH",
"295 416 OFFCURVE",
"276 475 OFFCURVE",
"167 475 CURVE SMOOTH",
"107 475 OFFCURVE",
"73 454 OFFCURVE",
"50 421 CURVE",
"48 470 LINE",
"40 470 LINE"
);
}
);
width = 335;
},
{
layerId = "D686CB0C-BBDB-4E69-8E5A-045D5C85CA47";
paths = (
{
closed = 1;
nodes = (
"30 0 LINE",
"180 0 LINE",
"180 326 LINE SMOOTH",
"180 349 OFFCURVE",
"188 358 OFFCURVE",
"205 358 CURVE SMOOTH",
"228 358 OFFCURVE",
"228 343 OFFCURVE",
"228 319 CURVE SMOOTH",
"228 0 LINE",
"378 0 LINE",
"378 377 LINE SMOOTH",
"378 421 OFFCURVE",
"363 478 OFFCURVE",
"275 478 CURVE SMOOTH",
"226 478 OFFCURVE",
"186 459 OFFCURVE",
"167 421 CURVE",
"153 470 LINE",
"30 470 LINE"
);
}
);
width = 408;
}
);
note = n;
unicode = 006E;
},
{
glyphname = eng;
lastChange = "2021-11-29 03:15:47 +0000";
layers = (
{
layerId = "6AABE730-D951-472C-A552-DEE34E1BBDD6";
paths = (
{
closed = 1;
nodes = (
"40 0 LINE",
"50 0 LINE",
"50 407 LINE",
"73 439 OFFCURVE",
"105 466 OFFCURVE",
"167 466 CURVE SMOOTH",
"236 466 OFFCURVE",
"285 438 OFFCURVE",
"285 370 CURVE SMOOTH",
"285 0 LINE",
"295 0 LINE",
"295 372 LINE SMOOTH",
"295 416 OFFCURVE",
"276 475 OFFCURVE",
"167 475 CURVE SMOOTH",
"107 475 OFFCURVE",
"73 454 OFFCURVE",
"50 421 CURVE",
"48 470 LINE",
"40 470 LINE"
);
},
{
closed = 1;
nodes = (
"233 -170 LINE SMOOTH",
"281 -170 OFFCURVE",
"295 -152 OFFCURVE",
"295 -96 CURVE SMOOTH",
"295 274 LINE",
"285 274 LINE",
"285 -96 LINE SMOOTH",
"285 -140 OFFCURVE",
"277 -161 OFFCURVE",
"237 -161 CURVE SMOOTH",
"172 -161 LINE",
"175 -170 LINE"
);
}
);
width = 600;
},
{
layerId = "D686CB0C-BBDB-4E69-8E5A-045D5C85CA47";
paths = (
{
closed = 1;
nodes = (
"30 0 LINE",
"180 0 LINE",
"180 326 LINE SMOOTH",
"180 349 OFFCURVE",
"188 358 OFFCURVE",
"205 358 CURVE SMOOTH",
"228 358 OFFCURVE",
"228 343 OFFCURVE",
"228 319 CURVE SMOOTH",
"228 0 LINE",
"378 0 LINE",
"378 377 LINE SMOOTH",
"378 421 OFFCURVE",
"363 478 OFFCURVE",
"275 478 CURVE SMOOTH",
"226 478 OFFCURVE",
"186 459 OFFCURVE",
"167 421 CURVE",
"153 470 LINE",
"30 470 LINE"
);
},
{
closed = 1;
nodes = (
"257 -211 LINE SMOOTH",
"347 -211 OFFCURVE",
"378 -162 OFFCURVE",
"378 -84 CURVE SMOOTH",
"378 185 LINE",
"228 185 LINE",
"228 -43 LINE SMOOTH",
"228 -82 OFFCURVE",
"220 -91 OFFCURVE",
"189 -91 CURVE SMOOTH",
"88 -91 LINE",
"106 -211 LINE"
);
}
);
width = 408;
}
);
unicode = 014B;
},
{
glyphname = o;
lastChange = "2021-11-29 03:15:47 +0000";
layers = (
{
background = {
hints = (
{
horizontal = 1;
place = "{-9, 58}";
type = Stem;
},
{
horizontal = 1;
place = "{418, 58}";
type = Stem;
},
{
place = "{44, 80}";
type = Stem;
},
{
place = "{247, 80}";
type = Stem;
}
);
paths = (
{
closed = 1;
nodes = (
"291 -9 OFFCURVE",
"327 39 OFFCURVE",
"327 114 CURVE SMOOTH",
"327 353 LINE SMOOTH",
"327 428 OFFCURVE",
"291 476 OFFCURVE",
"182 476 CURVE SMOOTH",
"74 476 OFFCURVE",
"44 424 OFFCURVE",
"44 351 CURVE SMOOTH",
"44 116 LINE SMOOTH",
"44 43 OFFCURVE",
"74 -9 OFFCURVE",
"182 -9 CURVE SMOOTH"
);
},
{
closed = 1;
nodes = (
"124 49 OFFCURVE",
"124 94 OFFCURVE",
"124 140 CURVE SMOOTH",
"124 327 LINE SMOOTH",
"124 373 OFFCURVE",
"124 418 OFFCURVE",
"183 418 CURVE SMOOTH",
"247 418 OFFCURVE",
"247 373 OFFCURVE",
"247 327 CURVE SMOOTH",
"247 140 LINE SMOOTH",
"247 94 OFFCURVE",
"247 49 OFFCURVE",
"183 49 CURVE SMOOTH"
);
}
);
};
layerId = "6AABE730-D951-472C-A552-DEE34E1BBDD6";
paths = (
{
closed = 1;
nodes = (
"276 -4 OFFCURVE",
"295 53 OFFCURVE",
"295 114 CURVE SMOOTH",
"295 373 LINE SMOOTH",
"295 416 OFFCURVE",
"276 473 OFFCURVE",
"168 473 CURVE SMOOTH",
"59 473 OFFCURVE",
"40 416 OFFCURVE",
"40 373 CURVE SMOOTH",
"40 96 LINE SMOOTH",
"40 53 OFFCURVE",
"59 -4 OFFCURVE",
"158 -4 CURVE SMOOTH"
);
},
{
closed = 1;
nodes = (
"101 5 OFFCURVE",
"50 30 OFFCURVE",
"50 98 CURVE SMOOTH",
"50 371 LINE SMOOTH",
"50 439 OFFCURVE",
"101 464 OFFCURVE",
"168 464 CURVE SMOOTH",
"236 464 OFFCURVE",
"285 438 OFFCURVE",
"285 371 CURVE SMOOTH",
"285 107 LINE SMOOTH",
"285 31 OFFCURVE",
"236 5 OFFCURVE",
"158 5 CURVE SMOOTH"
);
}
);
width = 335;
},
{
layerId = "D686CB0C-BBDB-4E69-8E5A-045D5C85CA47";
paths = (
{
closed = 1;
nodes = (
"331 -5 OFFCURVE",
"378 43 OFFCURVE",
"378 118 CURVE SMOOTH",
"378 353 LINE SMOOTH",
"378 428 OFFCURVE",
"331 476 OFFCURVE",
"205 476 CURVE SMOOTH",
"60 476 OFFCURVE",
"30 424 OFFCURVE",
"30 351 CURVE SMOOTH",
"30 120 LINE SMOOTH",
"30 47 OFFCURVE",
"60 -5 OFFCURVE",
"205 -5 CURVE SMOOTH"
);
},
{
closed = 1;
nodes = (
"180 117 OFFCURVE",
"180 138 OFFCURVE",
"180 150 CURVE SMOOTH",
"180 325 LINE SMOOTH",
"180 336 OFFCURVE",
"180 361 OFFCURVE",
"204 361 CURVE SMOOTH",
"228 361 OFFCURVE",
"228 336 OFFCURVE",
"228 325 CURVE SMOOTH",
"228 150 LINE SMOOTH",
"228 138 OFFCURVE",
"228 117 OFFCURVE",
"204 117 CURVE SMOOTH"
);
}
);
width = 408;
}
);
note = o;
unicode = 006F;
},
{
glyphname = oslash;
lastChange = "2021-11-29 03:15:47 +0000";
layers = (
{
layerId = "6AABE730-D951-472C-A552-DEE34E1BBDD6";
paths = (
{
closed = 1;
nodes = (
"3 -101 LINE",
"344 573 LINE",
"333 573 LINE",
"-7 -101 LINE"
);
},
{
closed = 1;
nodes = (
"276 -4 OFFCURVE",
"295 53 OFFCURVE",
"295 114 CURVE SMOOTH",
"295 373 LINE SMOOTH",
"295 416 OFFCURVE",
"276 473 OFFCURVE",
"168 473 CURVE SMOOTH",
"59 473 OFFCURVE",
"40 416 OFFCURVE",
"40 373 CURVE SMOOTH",
"40 96 LINE SMOOTH",
"40 53 OFFCURVE",
"59 -4 OFFCURVE",
"158 -4 CURVE SMOOTH"
);
},
{
closed = 1;
nodes = (
"101 5 OFFCURVE",
"50 30 OFFCURVE",
"50 98 CURVE SMOOTH",
"50 371 LINE SMOOTH",
"50 439 OFFCURVE",
"101 464 OFFCURVE",
"168 464 CURVE SMOOTH",
"236 464 OFFCURVE",
"285 438 OFFCURVE",
"285 371 CURVE SMOOTH",
"285 107 LINE SMOOTH",
"285 31 OFFCURVE",
"236 5 OFFCURVE",
"158 5 CURVE SMOOTH"
);
}
);
width = 369;
},
{
layerId = "D686CB0C-BBDB-4E69-8E5A-045D5C85CA47";
paths = (
{
closed = 1;
nodes = (
"358 562 LINE",
"323 569 LINE",
"56 -76 LINE",
"90 -84 LINE"
);
},
{
closed = 1;
nodes = (
"331 -5 OFFCURVE",
"378 43 OFFCURVE",
"378 118 CURVE SMOOTH",
"378 353 LINE SMOOTH",
"378 428 OFFCURVE",
"331 476 OFFCURVE",
"205 476 CURVE SMOOTH",
"60 476 OFFCURVE",
"30 424 OFFCURVE",
"30 351 CURVE SMOOTH",
"30 120 LINE SMOOTH",
"30 47 OFFCURVE",
"60 -5 OFFCURVE",
"205 -5 CURVE SMOOTH"
);
},
{
closed = 1;
nodes = (
"180 117 OFFCURVE",
"180 138 OFFCURVE",
"180 150 CURVE SMOOTH",
"180 325 LINE SMOOTH",
"180 336 OFFCURVE",
"180 361 OFFCURVE",
"204 361 CURVE SMOOTH",
"228 361 OFFCURVE",
"228 336 OFFCURVE",
"228 325 CURVE SMOOTH",
"228 150 LINE SMOOTH",
"228 138 OFFCURVE",
"228 117 OFFCURVE",
"204 117 CURVE SMOOTH"
);
}
);
width = 408;
}
);
unicode = 00F8;
},
{
glyphname = p;
lastChange = "2021-09-18 17:11:43 +0000";
layers = (
{
background = {
hints = (
{
horizontal = 1;
place = "{0, 63}";
type = Stem;
},
{
horizontal = 1;
place = "{407, 63}";
type = Stem;
},
{
place = "{43, 80}";
type = Stem;
},
{
place = "{246, 80}";
type = Stem;
}
);
paths = (
{
closed = 1;
nodes = (
"123 -157 LINE",
"123 0 LINE",
"236 0 LINE SMOOTH",
"326 0 OFFCURVE",
"326 49 OFFCURVE",
"326 127 CURVE SMOOTH",
"326 325 LINE SMOOTH",
"326 433 OFFCURVE",
"302 470 OFFCURVE",
"210 470 CURVE SMOOTH",
"43 470 LINE",
"43 -157 LINE"
);
},
{
closed = 1;
nodes = (
"123 407 LINE",
"180 407 LINE SMOOTH",
"227 407 OFFCURVE",
"246 385 OFFCURVE",
"246 329 CURVE SMOOTH",
"246 137 LINE SMOOTH",
"246 79 OFFCURVE",
"247 63 OFFCURVE",
"200 63 CURVE SMOOTH",
"123 63 LINE"
);
}
);
};
components = (
{
name = b;
transform = "{1, 0, 0, -1, 0, 470}";
}
);
layerId = "6AABE730-D951-472C-A552-DEE34E1BBDD6";
width = 340;
},
{
components = (
{
name = b;
transform = "{1, 0, 0, -1, 0, 470}";
}
);
layerId = "D686CB0C-BBDB-4E69-8E5A-045D5C85CA47";
width = 378;
}
);
note = p;
unicode = 0070;
},
{
glyphname = thorn;
lastChange = "2021-11-29 03:15:47 +0000";
layers = (
{
layerId = "6AABE730-D951-472C-A552-DEE34E1BBDD6";
paths = (
{
closed = 1;
nodes = (
"55 -157 LINE",
"55 0 LINE",
"199 0 LINE SMOOTH",
"288 0 OFFCURVE",
"300 2 OFFCURVE",
"300 80 CURVE SMOOTH",
"300 345 LINE SMOOTH",
"300 453 OFFCURVE",
"300 470 OFFCURVE",
"233 470 CURVE SMOOTH",
"55 470 LINE",
"55 611 LINE",
"45 611 LINE",
"45 -157 LINE"
);
},
{
closed = 1;
nodes = (
"55 461 LINE",
"234 461 LINE SMOOTH",
"286 461 OFFCURVE",
"290 444 OFFCURVE",
"290 371 CURVE SMOOTH",
"290 105 LINE SMOOTH",
"290 32 OFFCURVE",
"296 9 OFFCURVE",
"224 9 CURVE SMOOTH",
"55 9 LINE"
);
}
);
width = 340;
},
{
layerId = "D686CB0C-BBDB-4E69-8E5A-045D5C85CA47";
paths = (
{
closed = 1;
nodes = (
"165 -157 LINE",
"165 0 LINE",
"240 0 LINE SMOOTH",
"332 0 OFFCURVE",
"363 49 OFFCURVE",
"363 127 CURVE SMOOTH",
"363 325 LINE SMOOTH",
"363 433 OFFCURVE",
"363 470 OFFCURVE",
"260 470 CURVE SMOOTH",
"160 470 LINE",
"160 620 LINE",
"15 620 LINE",
"15 -157 LINE"
);
},
{
closed = 1;
nodes = (
"165 350 LINE",
"184 350 LINE SMOOTH",
"205 350 OFFCURVE",
"213 349 OFFCURVE",
"213 315 CURVE SMOOTH",
"213 148 LINE SMOOTH",
"213 129 OFFCURVE",
"205 120 OFFCURVE",
"189 120 CURVE SMOOTH",
"165 120 LINE"
);
}
);
width = 378;
}
);
unicode = 00FE;
},
{
glyphname = q;
lastChange = "2021-09-18 17:11:43 +0000";
layers = (
{
background = {
hints = (
{
horizontal = 1;
place = "{0, 63}";
type = Stem;
},
{
horizontal = 1;
place = "{407, 63}";
type = Stem;
},
{
place = "{43, 80}";
type = Stem;
},
{
place = "{246, 80}";
type = Stem;
}
);
paths = (
{
closed = 1;
nodes = (
"326 -157 LINE",
"326 470 LINE",
"159 470 LINE SMOOTH",
"67 470 OFFCURVE",
"43 433 OFFCURVE",
"43 325 CURVE SMOOTH",
"43 127 LINE SMOOTH",
"43 49 OFFCURVE",
"43 0 OFFCURVE",
"133 0 CURVE SMOOTH",
"246 0 LINE",
"246 -157 LINE"
);
},
{
closed = 1;
nodes = (
"122 63 OFFCURVE",
"123 79 OFFCURVE",
"123 137 CURVE SMOOTH",
"123 329 LINE SMOOTH",
"123 385 OFFCURVE",
"142 407 OFFCURVE",
"189 407 CURVE SMOOTH",
"246 407 LINE",
"246 63 LINE",
"169 63 LINE SMOOTH"
);
}
);
};
components = (
{
name = b;
transform = "{-1, 0, 0, -1, 340, 470}";
}
);
layerId = "6AABE730-D951-472C-A552-DEE34E1BBDD6";
width = 340;
},
{
components = (
{
name = b;
transform = "{-1, 0, 0, -1, 378, 470}";
}
);
layerId = "D686CB0C-BBDB-4E69-8E5A-045D5C85CA47";
width = 378;
}
);
note = q;
unicode = 0071;
},
{
glyphname = r;
lastChange = "2021-11-29 03:15:47 +0000";
layers = (
{
background = {
hints = (
{
horizontal = 1;
place = "{0, 21}";
target = up;
type = BottomGhost;
},
{
horizontal = 1;
place = "{407, 67}";
type = Stem;
},
{
place = "{49, 80}";
type = Stem;
},
{
horizontal = 1;
place = "{470, -20}";
target = down;
type = TopGhost;
}
);
paths = (
{
closed = 1;
nodes = (
"129 0 LINE",
"129 279 LINE SMOOTH",
"129 344 OFFCURVE",
"128 407 OFFCURVE",
"246 407 CURVE SMOOTH",
"274 407 LINE",
"274 473 LINE",
"267 474 OFFCURVE",
"258 474 OFFCURVE",
"250 474 CURVE SMOOTH",
"180 474 OFFCURVE",
"145 458 OFFCURVE",
"124 414 CURVE",
"117 470 LINE",
"49 470 LINE",
"49 0 LINE"
);
}
);
};
layerId = "6AABE730-D951-472C-A552-DEE34E1BBDD6";
paths = (
{
closed = 1;
nodes = (
"50 0 LINE",
"50 407 LINE",
"73 439 OFFCURVE",
"105 466 OFFCURVE",
"152 466 CURVE SMOOTH",
"178 466 OFFCURVE",
"191 462 OFFCURVE",
"210 453 CURVE",
"210 464 LINE",
"193 471 OFFCURVE",
"180 475 OFFCURVE",
"152 475 CURVE SMOOTH",
"107 475 OFFCURVE",
"73 454 OFFCURVE",
"50 421 CURVE",
"48 470 LINE",
"40 470 LINE",
"40 0 LINE"
);
}
);
width = 240;
},
{
layerId = "D686CB0C-BBDB-4E69-8E5A-045D5C85CA47";
paths = (
{
closed = 1;
nodes = (
"175 0 LINE",
"175 301 LINE SMOOTH",
"175 349 OFFCURVE",
"206 366 OFFCURVE",
"237 366 CURVE SMOOTH",
"273 366 OFFCURVE",
"309 350 OFFCURVE",
"323 339 CURVE",
"327 459 LINE",
"317 465 OFFCURVE",
"295 478 OFFCURVE",
"251 478 CURVE SMOOTH",
"221 478 OFFCURVE",
"181 459 OFFCURVE",
"162 421 CURVE",
"148 470 LINE",
"25 470 LINE",
"25 0 LINE"
);
}
);
width = 342;
}
);
note = r;
unicode = 0072;
},
{
glyphname = s;
lastChange = "2021-11-29 03:15:47 +0000";
layers = (
{
background = {
paths = (
{
closed = 1;
nodes = (
"267 -6 OFFCURVE",
"295 29 OFFCURVE",
"295 136 CURVE SMOOTH",
"295 224 OFFCURVE",
"246 241 OFFCURVE",
"213 256 CURVE SMOOTH",
"168 276 LINE SMOOTH",
"153 283 OFFCURVE",
"114 299 OFFCURVE",
"114 355 CURVE SMOOTH",
"114 405 OFFCURVE",
"134 418 OFFCURVE",
"169 418 CURVE SMOOTH",
"206 418 OFFCURVE",
"220 405 OFFCURVE",
"220 354 CURVE SMOOTH",
"220 316 LINE",
"247 320 OFFCURVE",
"266 324 OFFCURVE",
"295 327 CURVE",
"295 370 LINE SMOOTH",
"295 445 OFFCURVE",
"260 476 OFFCURVE",
"170 476 CURVE SMOOTH",
"80 476 OFFCURVE",
"40 441 OFFCURVE",
"40 376 CURVE SMOOTH",
"40 330 LINE SMOOTH",
"40 278 OFFCURVE",
"61 259 OFFCURVE",
"107 235 CURVE SMOOTH",
"157 209 LINE SMOOTH",
"185 194 OFFCURVE",
"219 183 OFFCURVE",
"219 132 CURVE SMOOTH",
"219 70 OFFCURVE",
"200 56 OFFCURVE",
"169 56 CURVE SMOOTH",
"139 56 OFFCURVE",
"116 70 OFFCURVE",
"116 132 CURVE SMOOTH",
"116 162 LINE",
"40 153 LINE",
"40 127 LINE SMOOTH",
"40 38 OFFCURVE",
"72 -6 OFFCURVE",
"169 -6 CURVE SMOOTH"
);
}
);
};
layerId = "6AABE730-D951-472C-A552-DEE34E1BBDD6";
paths = (
{
closed = 1;
nodes = (
"264 -6 OFFCURVE",
"295 33 OFFCURVE",
"295 106 CURVE SMOOTH",
"295 111 LINE SMOOTH",
"294 175 OFFCURVE",
"277 198 OFFCURVE",
"212 230 CURVE SMOOTH",
"193 240 OFFCURVE",
"119 272 OFFCURVE",
"103 280 CURVE SMOOTH",
"62 300 OFFCURVE",
"50 316 OFFCURVE",
"50 365 CURVE SMOOTH",
"50 405 OFFCURVE",
"58 467 OFFCURVE",
"169 467 CURVE SMOOTH",
"243 467 OFFCURVE",
"285 446 OFFCURVE",
"285 369 CURVE SMOOTH",
"285 287 LINE",
"295 290 LINE",
"295 370 LINE SMOOTH",
"295 445 OFFCURVE",
"260 476 OFFCURVE",
"170 476 CURVE SMOOTH",
"80 476 OFFCURVE",
"40 441 OFFCURVE",
"40 369 CURVE SMOOTH",
"40 362 LINE SMOOTH",
"40 309 OFFCURVE",
"56 293 OFFCURVE",
"98 272 CURVE SMOOTH",
"110 266 OFFCURVE",
"192 229 OFFCURVE",
"208 220 CURVE SMOOTH",
"265 191 OFFCURVE",
"285 168 OFFCURVE",
"285 106 CURVE SMOOTH",
"285 21 OFFCURVE",
"239 3 OFFCURVE",
"164 3 CURVE SMOOTH",
"70 3 OFFCURVE",
"50 56 OFFCURVE",
"50 106 CURVE SMOOTH",
"50 181 LINE",
"40 178 LINE",
"40 106 LINE SMOOTH",
"40 35 OFFCURVE",
"75 -6 OFFCURVE",
"164 -6 CURVE SMOOTH"
);
}
);
width = 354;
},
{
background = {
paths = (
{
closed = 0;
nodes = (
"250 253 LINE SMOOTH",
"236 261 OFFCURVE",
"196 284 OFFCURVE",
"178 293 CURVE SMOOTH",
"156 304 OFFCURVE",
"160 323 OFFCURVE",
"160 356 CURVE SMOOTH",
"160 369 OFFCURVE",
"164 377 OFFCURVE",
"175 377 CURVE SMOOTH",
"189 377 OFFCURVE",
"191 369 OFFCURVE",
"191 356 CURVE SMOOTH",
"191 305 LINE",
"325 322 LINE",
"325 364 LINE SMOOTH",
"325 435 OFFCURVE",
"283 476 OFFCURVE",
"179 476 CURVE SMOOTH",
"59 476 OFFCURVE",
"23 437 OFFCURVE",
"23 350 CURVE SMOOTH",
"23 343 OFFCURVE",
"23 336 OFFCURVE",
"23 330 CURVE SMOOTH",
"23 284 OFFCURVE",
"27 239 OFFCURVE",
"84 210 CURVE SMOOTH"
);
}
);
};
layerId = "D686CB0C-BBDB-4E69-8E5A-045D5C85CA47";
paths = (
{
closed = 1;
nodes = (
"291 -6 OFFCURVE",
"327 33 OFFCURVE",
"327 120 CURVE SMOOTH",
"327 140 LINE SMOOTH",
"327 176 OFFCURVE",
"323 221 OFFCURVE",
"266 250 CURVE SMOOTH",
"206 281 OFFCURVE",
"181 297 OFFCURVE",
"174 303 CURVE SMOOTH",
"162 313 OFFCURVE",
"160 321 OFFCURVE",
"160 356 CURVE SMOOTH",
"160 369 OFFCURVE",
"164 377 OFFCURVE",
"175 377 CURVE SMOOTH",
"188 377 OFFCURVE",
"191 369 OFFCURVE",
"191 356 CURVE SMOOTH",
"191 305 LINE",
"327 323 LINE",
"327 370 LINE SMOOTH",
"327 445 OFFCURVE",
"285 476 OFFCURVE",
"179 476 CURVE SMOOTH",
"72 476 OFFCURVE",
"25 441 OFFCURVE",
"25 357 CURVE SMOOTH",
"25 333 LINE SMOOTH",
"25 298 OFFCURVE",
"31 266 OFFCURVE",
"100 227 CURVE SMOOTH",
"172 186 LINE SMOOTH",
"194 174 OFFCURVE",
"190 158 OFFCURVE",
"190 114 CURVE SMOOTH",
"190 101 OFFCURVE",
"186 93 OFFCURVE",
"175 93 CURVE SMOOTH",
"161 93 OFFCURVE",
"159 101 OFFCURVE",
"159 114 CURVE SMOOTH",
"159 182 LINE",
"25 165 LINE",
"25 106 LINE SMOOTH",
"25 35 OFFCURVE",
"67 -6 OFFCURVE",
"171 -6 CURVE SMOOTH"
);
}
);
width = 352;
}
);
note = s;
unicode = 0073;
},
{
glyphname = germandbls;
lastChange = "2021-11-29 03:15:47 +0000";
layers = (
{
layerId = "6AABE730-D951-472C-A552-DEE34E1BBDD6";
paths = (
{
closed = 1;
nodes = (
"26 -170 LINE SMOOTH",
"74 -170 OFFCURVE",
"88 -152 OFFCURVE",
"88 -96 CURVE SMOOTH",
"88 542 LINE SMOOTH",
"88 596 OFFCURVE",
"103 611 OFFCURVE",
"177 611 CURVE SMOOTH",
"184 611 LINE SMOOTH",
"248 611 OFFCURVE",
"269 596 OFFCURVE",
"269 542 CURVE SMOOTH",
"269 481 LINE",
"206 481 OFFCURVE",
"177 439 OFFCURVE",
"177 365 CURVE SMOOTH",
"177 303 OFFCURVE",
"189 282 OFFCURVE",
"227 262 CURVE SMOOTH",
"251 249 OFFCURVE",
"287 230 OFFCURVE",
"303 221 CURVE SMOOTH",
"363 187 OFFCURVE",
"369 168 OFFCURVE",
"369 106 CURVE SMOOTH",
"369 21 OFFCURVE",
"323 3 OFFCURVE",
"248 3 CURVE SMOOTH",
"154 3 OFFCURVE",
"134 56 OFFCURVE",
"134 106 CURVE SMOOTH",
"134 181 LINE",
"124 178 LINE",
"124 106 LINE SMOOTH",
"124 35 OFFCURVE",
"159 -6 OFFCURVE",
"248 -6 CURVE SMOOTH",
"348 -6 OFFCURVE",
"379 33 OFFCURVE",
"379 106 CURVE SMOOTH",
"379 111 LINE SMOOTH",
"379 175 OFFCURVE",
"371 196 OFFCURVE",
"307 230 CURVE SMOOTH",
"291 238 OFFCURVE",
"276 247 OFFCURVE",
"231 271 CURVE SMOOTH",
"193 292 OFFCURVE",
"187 315 OFFCURVE",
"187 365 CURVE SMOOTH",
"187 414 OFFCURVE",
"200 471 OFFCURVE",
"269 471 CURVE SMOOTH",
"277 471 OFFCURVE",
"279 473 OFFCURVE",
"279 480 CURVE SMOOTH",
"279 542 LINE SMOOTH",
"279 601 OFFCURVE",
"255 620 OFFCURVE",
"185 620 CURVE SMOOTH",
"175 620 LINE SMOOTH",
"96 620 OFFCURVE",
"78 601 OFFCURVE",
"78 542 CURVE SMOOTH",
"78 470 LINE",
"35 470 LINE",
"35 461 LINE",
"78 461 LINE",
"78 -96 LINE SMOOTH",
"78 -140 OFFCURVE",
"70 -161 OFFCURVE",
"30 -161 CURVE SMOOTH",
"-35 -161 LINE",
"-32 -170 LINE"
);
}
);
width = 429;
},
{
layerId = "D686CB0C-BBDB-4E69-8E5A-045D5C85CA47";
paths = (
{
closed = 1;
nodes = (
"79 -181 LINE SMOOTH",
"169 -181 OFFCURVE",
"200 -132 OFFCURVE",
"200 -54 CURVE SMOOTH",
"200 500 LINE SMOOTH",
"200 542 OFFCURVE",
"204 548 OFFCURVE",
"235 548 CURVE SMOOTH",
"256 548 LINE SMOOTH",
"281 548 OFFCURVE",
"289 544 OFFCURVE",
"291 489 CURVE SMOOTH",
"291 464 LINE",
"244 448 OFFCURVE",
"223 414 OFFCURVE",
"223 357 CURVE SMOOTH",
"223 333 LINE SMOOTH",
"223 298 OFFCURVE",
"229 266 OFFCURVE",
"298 227 CURVE SMOOTH",
"370 186 LINE SMOOTH",
"392 174 OFFCURVE",
"388 158 OFFCURVE",
"388 114 CURVE SMOOTH",
"388 101 OFFCURVE",
"384 93 OFFCURVE",
"373 93 CURVE SMOOTH",
"359 93 OFFCURVE",
"357 101 OFFCURVE",
"357 114 CURVE SMOOTH",
"357 182 LINE",
"223 165 LINE",
"223 106 LINE SMOOTH",
"223 35 OFFCURVE",
"265 -6 OFFCURVE",
"369 -6 CURVE SMOOTH",
"489 -6 OFFCURVE",
"525 33 OFFCURVE",
"525 120 CURVE SMOOTH",
"525 140 LINE SMOOTH",
"525 176 OFFCURVE",
"521 221 OFFCURVE",
"464 250 CURVE SMOOTH",
"404 281 OFFCURVE",
"379 297 OFFCURVE",
"372 303 CURVE SMOOTH",
"360 313 OFFCURVE",
"359 314 OFFCURVE",
"359 345 CURVE SMOOTH",
"359 373 OFFCURVE",
"360 376 OFFCURVE",
"377 386 CURVE SMOOTH",
"392 395 OFFCURVE",
"442 407 OFFCURVE",
"442 470 CURVE SMOOTH",
"442 493 LINE SMOOTH",
"439 610 OFFCURVE",
"410 627 OFFCURVE",
"329 627 CURVE SMOOTH",
"161 627 LINE SMOOTH",
"75 627 OFFCURVE",
"49 608 OFFCURVE",
"49 529 CURVE SMOOTH",
"49 470 LINE",
"6 470 LINE",
"6 392 LINE",
"49 392 LINE",
"50 -13 LINE SMOOTH",
"50 -52 OFFCURVE",
"42 -61 OFFCURVE",
"11 -61 CURVE SMOOTH",
"-50 -61 LINE",
"-17 -181 LINE"
);
}
);
width = 545;
}
);
unicode = 00DF;
},
{
glyphname = t;
lastChange = "2021-11-29 03:15:47 +0000";
layers = (
{
background = {
components = (
{
name = f;
transform = "{1, 0, 0, 1, -10, 0}";
}
);
};
guideLines = (
{
angle = 90;
position = "{158, 401}";
}
);
layerId = "6AABE730-D951-472C-A552-DEE34E1BBDD6";
paths = (
{
closed = 1;
nodes = (
"175 0 LINE",
"175 9 LINE",
"150 9 LINE SMOOTH",
"101 9 OFFCURVE",
"73 24 OFFCURVE",
"73 89 CURVE SMOOTH",
"73 461 LINE",
"155 461 LINE",
"158 470 LINE",
"73 470 LINE",
"73 558 LINE",
"66 558 LINE",
"64 470 LINE",
"30 470 LINE",
"30 461 LINE",
"63 461 LINE",
"63 102 LINE SMOOTH",
"63 33 OFFCURVE",
"73 0 OFFCURVE",
"150 0 CURVE SMOOTH"
);
}
);
width = 200;
},
{
layerId = "D686CB0C-BBDB-4E69-8E5A-045D5C85CA47";
paths = (
{
closed = 1;
nodes = (
"282 0 LINE",
"282 120 LINE",
"239 120 LINE SMOOTH",
"209 120 OFFCURVE",
"197 135 OFFCURVE",
"197 175 CURVE SMOOTH",
"197 358 LINE",
"249 358 LINE",
"283 470 LINE",
"197 470 LINE",
"197 558 LINE",
"87 558 LINE",
"62 470 LINE",
"15 470 LINE",
"15 358 LINE",
"48 358 LINE",
"48 102 LINE SMOOTH",
"48 7 OFFCURVE",
"115 0 OFFCURVE",
"192 0 CURVE SMOOTH"
);
}
);
width = 303;
}
);
note = t;
unicode = 0074;
},
{
glyphname = u;
lastChange = "2021-11-29 03:15:47 +0000";
layers = (
{
layerId = "6AABE730-D951-472C-A552-DEE34E1BBDD6";
paths = (
{
closed = 1;
nodes = (
"295 0 LINE",
"295 470 LINE",
"285 470 LINE",
"285 9 LINE",
"168 9 LINE SMOOTH",
"99 9 OFFCURVE",
"50 32 OFFCURVE",
"50 100 CURVE SMOOTH",
"50 470 LINE",
"40 470 LINE",
"40 98 LINE SMOOTH",
"40 54 OFFCURVE",
"59 0 OFFCURVE",
"168 0 CURVE SMOOTH"
);
}
);
width = 335;
},
{
layerId = "D686CB0C-BBDB-4E69-8E5A-045D5C85CA47";
paths = (
{
closed = 1;
nodes = (
"378 0 LINE",
"378 470 LINE",
"228 470 LINE",
"228 120 LINE",
"203 120 LINE SMOOTH",
"180 120 OFFCURVE",
"180 135 OFFCURVE",
"180 159 CURVE SMOOTH",
"180 470 LINE",
"30 470 LINE",
"30 93 LINE SMOOTH",
"30 49 OFFCURVE",
"45 0 OFFCURVE",
"133 0 CURVE SMOOTH"
);
}
);
width = 408;
}
);
note = u;
unicode = 0075;
},
{
glyphname = v;
lastChange = "2021-11-29 03:15:47 +0000";
layers = (
{
background = {
paths = (
{
closed = 0;
nodes = (
"147 0 LINE",
"25 470 LINE"
);
}
);
};
layerId = "6AABE730-D951-472C-A552-DEE34E1BBDD6";
paths = (
{
closed = 1;
nodes = (
"158 0 LINE",
"280 470 LINE",
"269 470 LINE",
"162 61 LINE",
"153 25 LINE",
"36 470 LINE",
"25 470 LINE",
"147 0 LINE"
);
}
);
width = 305;
},
{
layerId = "D686CB0C-BBDB-4E69-8E5A-045D5C85CA47";
paths = (
{
closed = 1;
nodes = (
"241 0 LINE",
"383 470 LINE",
"241 470 LINE",
"194 253 LINE",
"201 253 LINE",
"145 470 LINE",
"5 470 LINE",
"147 0 LINE"
);
}
);
width = 388;
}
);
note = v;
unicode = 0076;
},
{
glyphname = w;
lastChange = "2021-11-29 03:15:47 +0000";
layers = (
{
layerId = "6AABE730-D951-472C-A552-DEE34E1BBDD6";
paths = (
{
closed = 1;
nodes = (
"392 0 LINE",
"524 470 LINE",
"513 470 LINE",
"387 25 LINE",
"280 470 LINE",
"269 470 LINE",
"370 45 LINE",
"381 0 LINE"
);
},
{
closed = 1;
nodes = (
"168 0 LINE",
"178 36 LINE",
"280 470 LINE",
"269 470 LINE",
"172 62 LINE",
"163 25 LINE",
"36 470 LINE",
"25 470 LINE",
"157 0 LINE"
);
}
);
width = 549;
},
{
layerId = "D686CB0C-BBDB-4E69-8E5A-045D5C85CA47";
paths = (
{
closed = 1;
nodes = (
"231 0 LINE",
"372 442 LINE",
"369 470 LINE",
"251 470 LINE",
"139 61 LINE",
"245 111 LINE",
"155 470 LINE",
"5 470 LINE",
"137 0 LINE"
);
},
{
closed = 1;
nodes = (
"483 0 LINE",
"615 470 LINE",
"465 470 LINE",
"366 114 LINE",
"487 58 LINE",
"369 470 LINE",
"259 453 LINE",
"249 441 LINE",
"389 0 LINE"
);
}
);
width = 620;
}
);
note = w;
unicode = 0077;
},
{
glyphname = x;
lastChange = "2021-11-29 03:15:47 +0000";
layers = (
{
background = {
paths = (
{
closed = 1;
nodes = (
"93 0 LINE",
"111 56 OFFCURVE",
"140 144 OFFCURVE",
"157 198 CURVE",
"212 0 LINE",
"289 0 LINE",
"269 77 OFFCURVE",
"242 165 OFFCURVE",
"222 241 CURVE",
"295 470 LINE",
"213 470 LINE",
"195 414 OFFCURVE",
"166 326 OFFCURVE",
"150 272 CURVE",
"94 470 LINE",
"17 470 LINE",
"38 393 OFFCURVE",
"64 305 OFFCURVE",
"85 229 CURVE",
"12 0 LINE"
);
}
);
};
layerId = "6AABE730-D951-472C-A552-DEE34E1BBDD6";
paths = (
{
closed = 1;
nodes = (
"281 0 LINE",
"191 241 LINE",
"279 470 LINE",
"268 470 LINE",
"179 241 LINE",
"270 0 LINE"
);
},
{
closed = 1;
nodes = (
"36 0 LINE",
"127 241 LINE",
"38 470 LINE",
"27 470 LINE",
"115 241 LINE",
"25 0 LINE"
);
},
{
closed = 1;
nodes = (
"186 237 LINE",
"186 246 LINE",
"120 246 LINE",
"120 237 LINE"
);
}
);
width = 306;
},
{
background = {
paths = (
{
closed = 1;
nodes = (
"83 0 LINE",
"157 229 LINE",
"84 470 LINE",
"7 470 LINE",
"75 229 LINE",
"2 0 LINE"
);
}
);
};
layerId = "D686CB0C-BBDB-4E69-8E5A-045D5C85CA47";
paths = (
{
closed = 1;
nodes = (
"371 0 LINE",
"272 241 LINE",
"369 470 LINE",
"241 470 LINE",
"143 241 LINE",
"243 0 LINE"
);
},
{
closed = 1;
nodes = (
"143 0 LINE",
"243 241 LINE",
"145 470 LINE",
"17 470 LINE",
"114 241 LINE",
"15 0 LINE"
);
},
{
closed = 1;
nodes = (
"228 173 LINE",
"228 293 LINE",
"162 293 LINE",
"162 173 LINE"
);
}
);
width = 386;
}
);
note = x;
unicode = 0078;
},
{
glyphname = y;
lastChange = "2021-11-29 03:15:47 +0000";
layers = (
{
layerId = "6AABE730-D951-472C-A552-DEE34E1BBDD6";
paths = (
{
closed = 1;
nodes = (
"22 -170 LINE SMOOTH",
"96 -170 OFFCURVE",
"121 -145 OFFCURVE",
"139 -75 CURVE SMOOTH",
"280 470 LINE",
"269 470 LINE",
"152 25 LINE",
"151 24 LINE",
"155 24 LINE",
"154 25 LINE",
"36 470 LINE",
"25 470 LINE",
"147 2 LINE",
"128 -75 LINE SMOOTH",
"111 -144 OFFCURVE",
"80 -161 OFFCURVE",
"27 -161 CURVE SMOOTH",
"-3 -161 LINE",
"-1 -170 LINE"
);
}
);
width = 305;
},
{
background = {
paths = (
{
closed = 0;
nodes = (
"217 253 LINE",
"273 470 LINE"
);
},
{
closed = 1;
nodes = (
"147 470 LINE",
"4 470 LINE",
"153 0 LINE",
"270 0 LINE",
"419 470 LINE",
"273 470 LINE",
"195 166 LINE",
"229 152 LINE"
);
},
{
closed = 1;
nodes = (
"143 -6 LINE SMOOTH",
"129 -61 OFFCURVE",
"109 -78 OFFCURVE",
"76 -78 CURVE SMOOTH",
"21 -78 LINE",
"-5 -170 LINE",
"121 -170 LINE SMOOTH",
"193 -170 OFFCURVE",
"229 -133 OFFCURVE",
"255 -48 CURVE SMOOTH",
"270 0 LINE",
"155 42 LINE"
);
}
);
};
layerId = "D686CB0C-BBDB-4E69-8E5A-045D5C85CA47";
paths = (
{
closed = 1;
nodes = (
"121 -170 LINE SMOOTH",
"193 -170 OFFCURVE",
"228 -133 OFFCURVE",
"255 -48 CURVE SMOOTH",
"419 470 LINE",
"273 470 LINE",
"212 233 LINE",
"211 197 LINE",
"209 197 LINE",
"208 233 LINE",
"147 470 LINE",
"4 470 LINE",
"148 15 LINE",
"143 -6 LINE SMOOTH",
"130 -61 OFFCURVE",
"109 -78 OFFCURVE",
"76 -78 CURVE SMOOTH",
"21 -78 LINE",
"-5 -170 LINE"
);
}
);
width = 434;
}
);
note = y;
unicode = 0079;
},
{
glyphname = z;
lastChange = "2021-11-29 03:15:47 +0000";
layers = (
{
layerId = "6AABE730-D951-472C-A552-DEE34E1BBDD6";
paths = (
{
closed = 1;
nodes = (
"40 0 LINE",
"255 0 LINE",
"262 9 LINE",
"51 9 LINE",
"277 461 LINE",
"277 470 LINE",
"67 470 LINE",
"61 461 LINE",
"265 461 LINE",
"40 9 LINE"
);
}
);
width = 302;
},
{
layerId = "D686CB0C-BBDB-4E69-8E5A-045D5C85CA47";
paths = (
{
closed = 1;
nodes = (
"20 0 LINE",
"309 0 LINE",
"353 120 LINE",
"212 120 LINE",
"339 399 LINE",
"339 470 LINE",
"55 470 LINE",
"30 350 LINE",
"177 350 LINE",
"20 9 LINE"
);
}
);
width = 373;
}
);
note = z;
unicode = 007A;
},
{
glyphname = f_f;
lastChange = "2021-11-29 03:15:47 +0000";
layers = (
{
layerId = "6AABE730-D951-472C-A552-DEE34E1BBDD6";
paths = (
{
closed = 1;
nodes = (
"73 0 LINE",
"83 0 LINE",
"83 461 LINE",
"261 461 LINE",
"264 470 LINE",
"83 470 LINE",
"83 557 LINE SMOOTH",
"83 596 OFFCURVE",
"98 611 OFFCURVE",
"149 611 CURVE SMOOTH",
"207 611 LINE",
"207 620 LINE",
"149 620 LINE SMOOTH",
"91 620 OFFCURVE",
"73 601 OFFCURVE",
"73 557 CURVE SMOOTH",
"73 470 LINE",
"30 470 LINE",
"30 461 LINE",
"73 461 LINE"
);
},
{
closed = 1;
nodes = (
"257 0 LINE",
"267 0 LINE",
"267 461 LINE",
"352 461 LINE",
"355 470 LINE",
"267 470 LINE",
"267 557 LINE SMOOTH",
"267 596 OFFCURVE",
"282 611 OFFCURVE",
"333 611 CURVE SMOOTH",
"391 611 LINE",
"391 620 LINE",
"333 620 LINE SMOOTH",
"275 620 OFFCURVE",
"257 601 OFFCURVE",
"257 557 CURVE SMOOTH",
"257 470 LINE",
"214 470 LINE",
"214 461 LINE",
"257 461 LINE"
);
}
);
width = 411;
},
{
layerId = "D686CB0C-BBDB-4E69-8E5A-045D5C85CA47";
paths = (
{
closed = 1;
nodes = (
"53 0 LINE",
"210 0 LINE",
"210 392 LINE",
"319 392 LINE",
"329 470 LINE",
"210 470 LINE",
"210 500 LINE SMOOTH",
"210 542 OFFCURVE",
"214 548 OFFCURVE",
"245 548 CURVE SMOOTH",
"307 548 LINE",
"307 627 LINE",
"165 627 LINE SMOOTH",
"79 627 OFFCURVE",
"53 608 OFFCURVE",
"53 529 CURVE SMOOTH",
"53 470 LINE",
"10 470 LINE",
"10 392 LINE",
"53 392 LINE"
);
},
{
closed = 1;
nodes = (
"342 0 LINE",
"499 0 LINE",
"499 392 LINE",
"573 392 LINE",
"583 470 LINE",
"499 470 LINE",
"499 500 LINE SMOOTH",
"499 542 OFFCURVE",
"503 548 OFFCURVE",
"534 548 CURVE SMOOTH",
"596 548 LINE",
"596 627 LINE",
"454 627 LINE SMOOTH",
"368 627 OFFCURVE",
"342 608 OFFCURVE",
"342 529 CURVE SMOOTH",
"342 470 LINE",
"299 470 LINE",
"299 392 LINE",
"342 392 LINE"
);
}
);
width = 606;
}
);
leftMetricsKey = f;
},
{
glyphname = f_f_i;
lastChange = "2021-11-29 03:15:47 +0000";
layers = (
{
background = {
paths = (
{
closed = 1;
nodes = (
"268 0 LINE",
"268 461 LINE",
"471 461 LINE",
"474 470 LINE",
"268 470 LINE",
"268 557 LINE SMOOTH",
"268 596 OFFCURVE",
"283 611 OFFCURVE",
"334 611 CURVE SMOOTH",
"392 611 LINE",
"392 620 LINE",
"334 620 LINE SMOOTH",
"276 620 OFFCURVE",
"258 601 OFFCURVE",
"258 557 CURVE SMOOTH",
"258 470 LINE",
"215 470 LINE",
"215 461 LINE",
"258 461 LINE",
"258 0 LINE"
);
},
{
closed = 1;
nodes = (
"478 0 LINE",
"478 470 LINE",
"468 470 LINE",
"468 0 LINE"
);
}
);
};
layerId = "6AABE730-D951-472C-A552-DEE34E1BBDD6";
paths = (
{
closed = 1;
nodes = (
"257 0 LINE",
"267 0 LINE",
"267 461 LINE",
"472 461 LINE",
"475 470 LINE",
"267 470 LINE",
"267 557 LINE SMOOTH",
"267 596 OFFCURVE",
"282 611 OFFCURVE",
"333 611 CURVE SMOOTH",
"391 611 LINE",
"391 620 LINE",
"333 620 LINE SMOOTH",
"275 620 OFFCURVE",
"257 601 OFFCURVE",
"257 557 CURVE SMOOTH",
"257 470 LINE",
"214 470 LINE",
"214 461 LINE",
"257 461 LINE"
);
},
{
closed = 1;
nodes = (
"73 0 LINE",
"83 0 LINE",
"83 461 LINE",
"261 461 LINE",
"264 470 LINE",
"83 470 LINE",
"83 557 LINE SMOOTH",
"83 596 OFFCURVE",
"98 611 OFFCURVE",
"149 611 CURVE SMOOTH",
"207 611 LINE",
"207 620 LINE",
"149 620 LINE SMOOTH",
"91 620 OFFCURVE",
"73 601 OFFCURVE",
"73 557 CURVE SMOOTH",
"73 470 LINE",
"30 470 LINE",
"30 461 LINE",
"73 461 LINE"
);
},
{
closed = 1;
nodes = (
"468 0 LINE",
"478 0 LINE",
"478 470 LINE",
"468 470 LINE"
);
}
);
width = 528;
},
{
layerId = "D686CB0C-BBDB-4E69-8E5A-045D5C85CA47";
paths = (
{
closed = 1;
nodes = (
"342 0 LINE",
"499 0 LINE",
"499 392 LINE",
"696 392 LINE",
"706 470 LINE",
"499 470 LINE",
"499 500 LINE SMOOTH",
"499 542 OFFCURVE",
"503 548 OFFCURVE",
"534 548 CURVE SMOOTH",
"596 548 LINE",
"596 627 LINE",
"454 627 LINE SMOOTH",
"368 627 OFFCURVE",
"342 608 OFFCURVE",
"342 529 CURVE SMOOTH",
"342 470 LINE",
"299 470 LINE",
"299 392 LINE",
"342 392 LINE"
);
},
{
closed = 1;
nodes = (
"53 0 LINE",
"210 0 LINE",
"210 392 LINE",
"319 392 LINE",
"329 470 LINE",
"210 470 LINE",
"210 500 LINE SMOOTH",
"210 542 OFFCURVE",
"214 548 OFFCURVE",
"245 548 CURVE SMOOTH",
"307 548 LINE",
"307 627 LINE",
"165 627 LINE SMOOTH",
"79 627 OFFCURVE",
"53 608 OFFCURVE",
"53 529 CURVE SMOOTH",
"53 470 LINE",
"10 470 LINE",
"10 392 LINE",
"53 392 LINE"
);
},
{
closed = 1;
nodes = (
"655 0 LINE",
"805 0 LINE",
"805 470 LINE",
"655 470 LINE"
);
}
);
width = 820;
}
);
leftMetricsKey = f;
},
{
glyphname = f_f_l;
lastChange = "2021-11-29 03:15:47 +0000";
layers = (
{
layerId = "6AABE730-D951-472C-A552-DEE34E1BBDD6";
paths = (
{
closed = 1;
nodes = (
"73 0 LINE",
"83 0 LINE",
"83 461 LINE",
"273 461 LINE",
"276 470 LINE",
"83 470 LINE",
"83 557 LINE SMOOTH",
"83 596 OFFCURVE",
"98 611 OFFCURVE",
"149 611 CURVE SMOOTH",
"207 611 LINE",
"207 620 LINE",
"149 620 LINE SMOOTH",
"91 620 OFFCURVE",
"73 601 OFFCURVE",
"73 557 CURVE SMOOTH",
"73 470 LINE",
"30 470 LINE",
"30 461 LINE",
"73 461 LINE"
);
},
{
closed = 1;
nodes = (
"300 0 LINE",
"310 0 LINE",
"310 461 LINE",
"395 461 LINE",
"398 470 LINE",
"310 470 LINE",
"310 557 LINE SMOOTH",
"310 596 OFFCURVE",
"325 611 OFFCURVE",
"376 611 CURVE SMOOTH",
"497 611 LINE",
"497 620 LINE",
"376 620 LINE SMOOTH",
"318 620 OFFCURVE",
"300 601 OFFCURVE",
"300 557 CURVE SMOOTH",
"300 470 LINE",
"257 470 LINE",
"257 461 LINE",
"300 461 LINE"
);
},
{
closed = 1;
nodes = (
"494 0 LINE",
"504 0 LINE",
"504 620 LINE",
"494 620 LINE"
);
}
);
width = 544;
},
{
layerId = "D686CB0C-BBDB-4E69-8E5A-045D5C85CA47";
paths = (
{
closed = 1;
nodes = (
"370 0 LINE",
"527 0 LINE",
"527 392 LINE",
"601 392 LINE",
"611 470 LINE",
"527 470 LINE",
"527 500 LINE SMOOTH",
"527 542 OFFCURVE",
"531 548 OFFCURVE",
"562 548 CURVE SMOOTH",
"731 548 LINE",
"814 620 LINE",
"482 627 LINE SMOOTH",
"396 629 OFFCURVE",
"370 608 OFFCURVE",
"370 529 CURVE SMOOTH",
"370 470 LINE",
"327 470 LINE",
"327 392 LINE",
"370 392 LINE"
);
},
{
closed = 1;
nodes = (
"53 0 LINE",
"210 0 LINE",
"210 392 LINE",
"436 392 LINE",
"446 470 LINE",
"210 470 LINE",
"210 500 LINE SMOOTH",
"210 542 OFFCURVE",
"214 548 OFFCURVE",
"245 548 CURVE SMOOTH",
"307 548 LINE",
"307 627 LINE",
"165 627 LINE SMOOTH",
"79 627 OFFCURVE",
"53 608 OFFCURVE",
"53 529 CURVE SMOOTH",
"53 470 LINE",
"10 470 LINE",
"10 392 LINE",
"53 392 LINE"
);
},
{
closed = 1;
nodes = (
"664 0 LINE",
"814 0 LINE",
"814 620 LINE",
"664 620 LINE"
);
}
);
width = 844;
}
);
leftMetricsKey = f;
rightMetricsKey = l;
},
{
glyphname = fi;
lastChange = "2021-11-29 03:15:47 +0000";
layers = (
{
layerId = "6AABE730-D951-472C-A552-DEE34E1BBDD6";
paths = (
{
closed = 1;
nodes = (
"73 0 LINE",
"83 0 LINE",
"83 461 LINE",
"286 461 LINE",
"289 470 LINE",
"83 470 LINE",
"83 557 LINE SMOOTH",
"83 596 OFFCURVE",
"98 611 OFFCURVE",
"149 611 CURVE SMOOTH",
"207 611 LINE",
"207 620 LINE",
"149 620 LINE SMOOTH",
"91 620 OFFCURVE",
"73 601 OFFCURVE",
"73 557 CURVE SMOOTH",
"73 470 LINE",
"30 470 LINE",
"30 461 LINE",
"73 461 LINE"
);
},
{
closed = 1;
nodes = (
"283 0 LINE",
"293 0 LINE",
"293 470 LINE",
"283 470 LINE"
);
}
);
width = 349;
},
{
layerId = "D686CB0C-BBDB-4E69-8E5A-045D5C85CA47";
paths = (
{
closed = 1;
nodes = (
"53 0 LINE",
"210 0 LINE",
"210 392 LINE",
"383 392 LINE",
"393 470 LINE",
"210 470 LINE",
"210 500 LINE SMOOTH",
"210 542 OFFCURVE",
"214 548 OFFCURVE",
"245 548 CURVE SMOOTH",
"307 548 LINE",
"307 627 LINE",
"165 627 LINE SMOOTH",
"79 627 OFFCURVE",
"53 608 OFFCURVE",
"53 529 CURVE SMOOTH",
"53 470 LINE",
"10 470 LINE",
"10 392 LINE",
"53 392 LINE"
);
},
{
closed = 1;
nodes = (
"338 0 LINE",
"488 0 LINE",
"488 470 LINE",
"338 470 LINE"
);
}
);
width = 503;
}
);
leftMetricsKey = f;
unicode = FB01;
},
{
glyphname = fl;
lastChange = "2021-11-29 03:15:47 +0000";
layers = (
{
layerId = "6AABE730-D951-472C-A552-DEE34E1BBDD6";
paths = (
{
closed = 1;
nodes = (
"73 0 LINE",
"83 0 LINE",
"83 461 LINE",
"168 461 LINE",
"171 470 LINE",
"83 470 LINE",
"83 557 LINE SMOOTH",
"83 596 OFFCURVE",
"98 611 OFFCURVE",
"149 611 CURVE SMOOTH",
"275 611 LINE",
"275 620 LINE",
"149 620 LINE SMOOTH",
"91 620 OFFCURVE",
"73 601 OFFCURVE",
"73 557 CURVE SMOOTH",
"73 470 LINE",
"30 470 LINE",
"30 461 LINE",
"73 461 LINE"
);
},
{
closed = 1;
nodes = (
"267 0 LINE",
"277 0 LINE",
"277 620 LINE",
"267 620 LINE"
);
}
);
width = 317;
},
{
layerId = "D686CB0C-BBDB-4E69-8E5A-045D5C85CA47";
paths = (
{
closed = 1;
nodes = (
"53 0 LINE",
"210 0 LINE",
"210 392 LINE",
"284 392 LINE",
"294 470 LINE",
"210 470 LINE",
"210 500 LINE SMOOTH",
"210 542 OFFCURVE",
"214 548 OFFCURVE",
"245 548 CURVE SMOOTH",
"414 548 LINE",
"497 620 LINE",
"165 627 LINE SMOOTH",
"79 629 OFFCURVE",
"53 608 OFFCURVE",
"53 529 CURVE SMOOTH",
"53 470 LINE",
"10 470 LINE",
"10 392 LINE",
"53 392 LINE"
);
},
{
closed = 1;
nodes = (
"347 0 LINE",
"497 0 LINE",
"497 620 LINE",
"347 620 LINE"
);
}
);
width = 527;
}
);
leftMetricsKey = f;
rightMetricsKey = l;
unicode = FB02;
},
{
glyphname = ordfeminine;
lastChange = "2021-11-29 03:15:47 +0000";
layers = (
{
layerId = "6AABE730-D951-472C-A552-DEE34E1BBDD6";
paths = (
{
closed = 1;
nodes = (
"182 350 LINE",
"184 359 LINE",
"97 359 LINE SMOOTH",
"62 359 OFFCURVE",
"60 370 OFFCURVE",
"60 414 CURVE SMOOTH",
"60 587 LINE SMOOTH",
"60 631 OFFCURVE",
"56 646 OFFCURVE",
"103 646 CURVE SMOOTH",
"206 646 LINE",
"206 350 LINE",
"216 350 LINE",
"216 655 LINE",
"116 655 LINE SMOOTH",
"58 655 OFFCURVE",
"50 651 OFFCURVE",
"50 603 CURVE SMOOTH",
"50 431 LINE SMOOTH",
"50 364 OFFCURVE",
"50 350 OFFCURVE",
"94 350 CURVE SMOOTH"
);
}
);
width = 266;
},
{
layerId = "D686CB0C-BBDB-4E69-8E5A-045D5C85CA47";
paths = (
{
closed = 1;
nodes = (
"156 350 LINE",
"165 428 LINE",
"158 428 LINE SMOOTH",
"146 428 OFFCURVE",
"141 429 OFFCURVE",
"141 451 CURVE SMOOTH",
"141 559 LINE SMOOTH",
"141 572 OFFCURVE",
"146 577 OFFCURVE",
"157 577 CURVE SMOOTH",
"172 577 LINE",
"172 350 LINE",
"289 350 LINE",
"289 655 LINE",
"122 655 LINE SMOOTH",
"45 656 OFFCURVE",
"25 624 OFFCURVE",
"25 573 CURVE SMOOTH",
"25 436 LINE SMOOTH",
"25 376 OFFCURVE",
"28 350 OFFCURVE",
"102 350 CURVE SMOOTH"
);
}
);
width = 314;
}
);
unicode = 00AA;
},
{
glyphname = ordmasculine;
lastChange = "2021-11-29 03:15:47 +0000";
layers = (
{
layerId = "6AABE730-D951-472C-A552-DEE34E1BBDD6";
paths = (
{
closed = 1;
nodes = (
"203 345 OFFCURVE",
"216 382 OFFCURVE",
"216 422 CURVE SMOOTH",
"216 590 LINE SMOOTH",
"216 618 OFFCURVE",
"203 655 OFFCURVE",
"133 655 CURVE SMOOTH",
"62 655 OFFCURVE",
"50 618 OFFCURVE",
"50 590 CURVE SMOOTH",
"50 410 LINE SMOOTH",
"50 382 OFFCURVE",
"62 345 OFFCURVE",
"127 345 CURVE SMOOTH"
);
},
{
closed = 1;
nodes = (
"90 354 OFFCURVE",
"60 367 OFFCURVE",
"60 412 CURVE SMOOTH",
"60 589 LINE SMOOTH",
"60 633 OFFCURVE",
"90 646 OFFCURVE",
"133 646 CURVE SMOOTH",
"177 646 OFFCURVE",
"206 633 OFFCURVE",
"206 589 CURVE SMOOTH",
"206 418 LINE SMOOTH",
"206 368 OFFCURVE",
"177 354 OFFCURVE",
"127 354 CURVE SMOOTH"
);
}
);
width = 266;
},
{
layerId = "D686CB0C-BBDB-4E69-8E5A-045D5C85CA47";
paths = (
{
closed = 1;
nodes = (
"239 344 OFFCURVE",
"271 374 OFFCURVE",
"271 424 CURVE SMOOTH",
"271 576 LINE SMOOTH",
"271 625 OFFCURVE",
"240 657 OFFCURVE",
"148 656 CURVE SMOOTH",
"44 656 OFFCURVE",
"25 623 OFFCURVE",
"25 575 CURVE SMOOTH",
"25 425 LINE SMOOTH",
"25 379 OFFCURVE",
"43 344 OFFCURVE",
"144 344 CURVE SMOOTH"
);
},
{
closed = 1;
nodes = (
"127 423 OFFCURVE",
"127 437 OFFCURVE",
"127 445 CURVE SMOOTH",
"127 558 LINE SMOOTH",
"127 565 OFFCURVE",
"127 582 OFFCURVE",
"148 582 CURVE SMOOTH",
"168 581 OFFCURVE",
"168 565 OFFCURVE",
"168 558 CURVE SMOOTH",
"168 445 LINE SMOOTH",
"168 437 OFFCURVE",
"168 423 OFFCURVE",
"148 423 CURVE SMOOTH"
);
}
);
width = 296;
}
);
unicode = 00BA;
},
{
glyphname = Omega;
lastChange = "2021-11-29 03:12:42 +0000";
layers = (
{
layerId = "6AABE730-D951-472C-A552-DEE34E1BBDD6";
paths = (
{
closed = 1;
nodes = (
"30 0 LINE",
"170 0 LINE",
"176 9 LINE",
"105 63 OFFCURVE",
"46 222 OFFCURVE",
"46 350 CURVE SMOOTH",
"46 494 OFFCURVE",
"57 611 OFFCURVE",
"281 611 CURVE SMOOTH",
"504 611 OFFCURVE",
"512 485 OFFCURVE",
"512 350 CURVE SMOOTH",
"512 200 OFFCURVE",
"433 48 OFFCURVE",
"380 9 CURVE",
"386 0 LINE",
"527 0 LINE",
"527 9 LINE",
"393 9 LINE",
"459 69 OFFCURVE",
"522 201 OFFCURVE",
"522 350 CURVE SMOOTH",
"522 513 OFFCURVE",
"501 620 OFFCURVE",
"281 620 CURVE SMOOTH",
"60 620 OFFCURVE",
"36 519 OFFCURVE",
"36 350 CURVE SMOOTH",
"36 201 OFFCURVE",
"93 67 OFFCURVE",
"162 9 CURVE",
"30 9 LINE"
);
}
);
width = 557;
},
{
layerId = "D686CB0C-BBDB-4E69-8E5A-045D5C85CA47";
paths = (
{
closed = 1;
nodes = (
"50 0 LINE",
"317 0 LINE",
"324 126 LINE",
"275 156 OFFCURVE",
"253 240 OFFCURVE",
"253 334 CURVE SMOOTH",
"253 434 OFFCURVE",
"259 516 OFFCURVE",
"353 516 CURVE SMOOTH",
"453 516 OFFCURVE",
"450 424 OFFCURVE",
"450 323 CURVE SMOOTH",
"450 224 OFFCURVE",
"425 161 OFFCURVE",
"380 126 CURVE",
"387 0 LINE",
"653 0 LINE",
"653 120 LINE",
"491 120 LINE",
"571 180 OFFCURVE",
"632 248 OFFCURVE",
"632 359 CURVE SMOOTH",
"632 494 OFFCURVE",
"626 620 OFFCURVE",
"355 620 CURVE SMOOTH",
"83 620 OFFCURVE",
"73 500 OFFCURVE",
"73 349 CURVE SMOOTH",
"74 248 OFFCURVE",
"127 178 OFFCURVE",
"210 120 CURVE",
"50 120 LINE"
);
}
);
width = 703;
}
);
unicode = 03A9;
},
{
glyphname = mu;
lastChange = "2021-11-29 03:15:47 +0000";
layers = (
{
layerId = "6AABE730-D951-472C-A552-DEE34E1BBDD6";
paths = (
{
closed = 1;
nodes = (
"295 0 LINE",
"295 470 LINE",
"285 470 LINE",
"285 9 LINE",
"168 9 LINE SMOOTH",
"99 9 OFFCURVE",
"50 32 OFFCURVE",
"50 100 CURVE SMOOTH",
"50 470 LINE",
"40 470 LINE",
"40 98 LINE SMOOTH",
"40 54 OFFCURVE",
"59 0 OFFCURVE",
"168 0 CURVE SMOOTH"
);
},
{
closed = 1;
nodes = (
"106 -170 LINE",
"109 -161 LINE",
"98 -161 LINE SMOOTH",
"58 -161 OFFCURVE",
"50 -140 OFFCURVE",
"50 -96 CURVE SMOOTH",
"50 470 LINE",
"40 470 LINE",
"40 -96 LINE SMOOTH",
"40 -152 OFFCURVE",
"54 -170 OFFCURVE",
"102 -170 CURVE SMOOTH"
);
}
);
width = 335;
},
{
layerId = "D686CB0C-BBDB-4E69-8E5A-045D5C85CA47";
paths = (
{
closed = 1;
nodes = (
"378 0 LINE",
"378 470 LINE",
"228 470 LINE",
"228 120 LINE",
"203 120 LINE SMOOTH",
"180 120 OFFCURVE",
"180 135 OFFCURVE",
"180 159 CURVE SMOOTH",
"180 470 LINE",
"30 470 LINE",
"30 93 LINE SMOOTH",
"30 49 OFFCURVE",
"45 0 OFFCURVE",
"133 0 CURVE SMOOTH"
);
},
{
closed = 1;
nodes = (
"208 -181 LINE",
"226 -61 LINE",
"219 -61 LINE SMOOTH",
"188 -61 OFFCURVE",
"180 -52 OFFCURVE",
"180 -13 CURVE SMOOTH",
"180 470 LINE",
"30 470 LINE",
"30 -54 LINE SMOOTH",
"30 -132 OFFCURVE",
"61 -181 OFFCURVE",
"151 -181 CURVE SMOOTH"
);
}
);
width = 438;
}
);
unicode = 03BC;
},
{
glyphname = pi;
lastChange = "2021-11-29 03:15:47 +0000";
layers = (
{
layerId = "6AABE730-D951-472C-A552-DEE34E1BBDD6";
paths = (
{
closed = 1;
nodes = (
"153 0 LINE",
"153 460 LINE",
"326 460 LINE",
"326 170 LINE",
"336 170 LINE",
"336 460 LINE",
"423 460 LINE",
"423 470 LINE",
"50 470 LINE",
"50 460 LINE",
"143 460 LINE",
"143 0 LINE"
);
},
{
closed = 1;
nodes = (
"390 0 LINE",
"393 9 LINE",
"384 9 LINE SMOOTH",
"344 9 OFFCURVE",
"336 30 OFFCURVE",
"336 74 CURVE SMOOTH",
"336 470 LINE",
"326 470 LINE",
"326 74 LINE SMOOTH",
"326 18 OFFCURVE",
"340 0 OFFCURVE",
"388 0 CURVE SMOOTH"
);
}
);
width = 473;
},
{
layerId = "D686CB0C-BBDB-4E69-8E5A-045D5C85CA47";
paths = (
{
closed = 1;
nodes = (
"270 0 LINE",
"270 368 LINE",
"315 368 LINE",
"315 181 LINE",
"466 181 LINE",
"466 368 LINE",
"556 368 LINE",
"556 470 LINE",
"20 470 LINE",
"20 368 LINE",
"120 368 LINE",
"120 0 LINE"
);
},
{
closed = 1;
nodes = (
"492 0 LINE",
"510 120 LINE",
"504 120 LINE SMOOTH",
"473 120 OFFCURVE",
"465 129 OFFCURVE",
"465 168 CURVE SMOOTH",
"465 470 LINE",
"315 470 LINE",
"315 127 LINE SMOOTH",
"315 49 OFFCURVE",
"346 0 OFFCURVE",
"436 0 CURVE SMOOTH"
);
}
);
width = 576;
}
);
unicode = 03C0;
},
{
glyphname = zero;
lastChange = "2021-11-29 03:15:47 +0000";
layers = (
{
background = {
paths = (
{
closed = 1;
nodes = (
"369 -4 LINE SMOOTH",
"534 -4 OFFCURVE",
"585 83 OFFCURVE",
"585 192 CURVE SMOOTH",
"584 357 LINE",
"585 507 LINE SMOOTH",
"586 647 OFFCURVE",
"527 700 OFFCURVE",
"369 700 CURVE SMOOTH",
"263 700 LINE SMOOTH",
"121 700 OFFCURVE",
"46 647 OFFCURVE",
"46 507 CURVE SMOOTH",
"47 357 LINE",
"46 192 LINE SMOOTH",
"46 83 OFFCURVE",
"99 -4 OFFCURVE",
"263 -4 CURVE SMOOTH"
);
},
{
closed = 1;
nodes = (
"271 122 OFFCURVE",
"241 122 OFFCURVE",
"240 205 CURVE SMOOTH",
"237 356 LINE",
"240 507 LINE SMOOTH",
"241 571 OFFCURVE",
"269 572 OFFCURVE",
"315 572 CURVE SMOOTH",
"317 572 OFFCURVE",
"319 572 OFFCURVE",
"320.996 571.994 CURVE SMOOTH",
"364 572 OFFCURVE",
"392 569 OFFCURVE",
"392 507 CURVE SMOOTH",
"393 356 LINE",
"392 205 LINE SMOOTH",
"390 126 OFFCURVE",
"362 122 OFFCURVE",
"321 122 CURVE SMOOTH",
"319 122 OFFCURVE",
"317 122 OFFCURVE",
"315 122 CURVE SMOOTH"
);
}
);
};
layerId = "6AABE730-D951-472C-A552-DEE34E1BBDD6";
paths = (
{
closed = 1;
nodes = (
"50 169 LINE",
"50 492 LINE SMOOTH",
"50 597 OFFCURVE",
"121 612 OFFCURVE",
"171 612 CURVE SMOOTH",
"225 612 OFFCURVE",
"295 597 OFFCURVE",
"295 491 CURVE SMOOTH",
"295 169 LINE",
"305 169 LINE",
"305 491 LINE SMOOTH",
"305 611 OFFCURVE",
"225 622 OFFCURVE",
"171 622 CURVE SMOOTH",
"121 622 OFFCURVE",
"40 611 OFFCURVE",
"40 492 CURVE SMOOTH",
"40 169 LINE"
);
},
{
closed = 1;
nodes = (
"225 -6 OFFCURVE",
"305 5 OFFCURVE",
"305 125 CURVE SMOOTH",
"305 447 LINE",
"295 447 LINE",
"295 125 LINE SMOOTH",
"295 19 OFFCURVE",
"225 4 OFFCURVE",
"171 4 CURVE SMOOTH",
"121 4 OFFCURVE",
"50 19 OFFCURVE",
"50 124 CURVE SMOOTH",
"50 447 LINE",
"40 447 LINE",
"40 124 LINE SMOOTH",
"40 5 OFFCURVE",
"121 -6 OFFCURVE",
"171 -6 CURVE SMOOTH"
);
}
);
width = 345;
},
{
layerId = "D686CB0C-BBDB-4E69-8E5A-045D5C85CA47";
paths = (
{
closed = 1;
nodes = (
"175 198 LINE",
"175 461 LINE SMOOTH",
"175 489 OFFCURVE",
"178 503 OFFCURVE",
"199 503 CURVE SMOOTH",
"226 503 OFFCURVE",
"226 495 OFFCURVE",
"226 460 CURVE SMOOTH",
"226 198 LINE",
"380 198 LINE",
"380 491 LINE SMOOTH",
"381 592 OFFCURVE",
"317 627 OFFCURVE",
"199 627 CURVE SMOOTH",
"77 627 OFFCURVE",
"20 592 OFFCURVE",
"20 492 CURVE SMOOTH",
"20 198 LINE"
);
},
{
closed = 1;
nodes = (
"317 -7 OFFCURVE",
"381 28 OFFCURVE",
"380 129 CURVE SMOOTH",
"380 422 LINE",
"226 422 LINE",
"226 160 LINE SMOOTH",
"226 125 OFFCURVE",
"226 117 OFFCURVE",
"199 117 CURVE SMOOTH",
"178 117 OFFCURVE",
"175 131 OFFCURVE",
"175 159 CURVE SMOOTH",
"175 422 LINE",
"20 422 LINE",
"20 128 LINE SMOOTH",
"20 28 OFFCURVE",
"77 -7 OFFCURVE",
"199 -7 CURVE SMOOTH"
);
}
);
width = 400;
}
);
unicode = 0030;
},
{
glyphname = one;
lastChange = "2021-11-29 03:12:25 +0000";
layers = (
{
background = {
paths = (
{
closed = 1;
nodes = (
"147 450 LINE",
"147 356 LINE",
"144 0 LINE",
"341 0 LINE",
"336 349 LINE",
"340 700 LINE",
"213 700 LINE",
"6 491 LINE",
"8 479 OFFCURVE",
"52 414 OFFCURVE",
"55 402 CURVE"
);
}
);
};
layerId = "6AABE730-D951-472C-A552-DEE34E1BBDD6";
paths = (
{
closed = 1;
nodes = (
"185 0 LINE",
"185 620 LINE",
"175 620 LINE",
"40 451 LINE",
"47 444 LINE",
"175 602 LINE",
"175 0 LINE"
);
}
);
width = 245;
},
{
background = {
paths = (
{
closed = 1;
nodes = (
"36 559 LINE",
"129 559 LINE",
"133 356 LINE",
"127 0 LINE",
"325 0 LINE",
"322 358 LINE",
"327 700 LINE",
"12 700 LINE"
);
}
);
};
layerId = "D686CB0C-BBDB-4E69-8E5A-045D5C85CA47";
paths = (
{
closed = 1;
nodes = (
"340 0 LINE",
"339 620 LINE",
"193 620 LINE",
"20 406 LINE",
"102 329 LINE",
"190 420 LINE",
"190 0 LINE"
);
}
);
width = 380;
}
);
unicode = 0031;
},
{
glyphname = two;
lastChange = "2021-11-29 03:12:42 +0000";
layers = (
{
layerId = "6AABE730-D951-472C-A552-DEE34E1BBDD6";
paths = (
{
closed = 1;
nodes = (
"291 0 LINE",
"295 9 LINE",
"50 9 LINE",
"50 76 OFFCURVE",
"56 173 OFFCURVE",
"150 252 CURVE SMOOTH",
"168 267 OFFCURVE",
"184 280 OFFCURVE",
"199 293 CURVE SMOOTH",
"258 345 OFFCURVE",
"295 387 OFFCURVE",
"295 455 CURVE SMOOTH",
"295 497 LINE SMOOTH",
"295 579 OFFCURVE",
"258 620 OFFCURVE",
"189 620 CURVE SMOOTH",
"166 620 LINE SMOOTH",
"85 620 OFFCURVE",
"46 584 OFFCURVE",
"46 486 CURVE SMOOTH",
"46 402 LINE",
"56 402 LINE",
"56 503 LINE SMOOTH",
"56 544 OFFCURVE",
"75 611 OFFCURVE",
"156 611 CURVE SMOOTH",
"188 611 LINE SMOOTH",
"246 611 OFFCURVE",
"285 579 OFFCURVE",
"285 497 CURVE SMOOTH",
"285 470 LINE SMOOTH",
"285 397 OFFCURVE",
"260 360 OFFCURVE",
"199 307 CURVE SMOOTH",
"190 299 OFFCURVE",
"179 290 OFFCURVE",
"168 281 CURVE SMOOTH",
"89 217 OFFCURVE",
"40 162 OFFCURVE",
"40 0 CURVE"
);
}
);
width = 335;
},
{
background = {
paths = (
{
closed = 0;
nodes = (
"208 485 LINE SMOOTH",
"208 548 OFFCURVE",
"211 572 OFFCURVE",
"249 572 CURVE SMOOTH",
"261 572 LINE SMOOTH",
"302 572 OFFCURVE",
"302 548 OFFCURVE",
"302 497 CURVE SMOOTH"
);
}
);
};
layerId = "D686CB0C-BBDB-4E69-8E5A-045D5C85CA47";
paths = (
{
closed = 1;
nodes = (
"342 0 LINE",
"369 120 LINE",
"171 119 LINE",
"171 121 OFFCURVE",
"170 128 OFFCURVE",
"170 137 CURVE SMOOTH",
"170 161 OFFCURVE",
"177 201 OFFCURVE",
"225 227 CURVE SMOOTH",
"235 232 OFFCURVE",
"244 237 OFFCURVE",
"252 242 CURVE SMOOTH",
"340 294 OFFCURVE",
"369 339 OFFCURVE",
"369 427 CURVE SMOOTH",
"369 509 LINE SMOOTH",
"369 603 OFFCURVE",
"324 621 OFFCURVE",
"219 621 CURVE SMOOTH",
"171 621 LINE SMOOTH",
"68 621 OFFCURVE",
"20 603 OFFCURVE",
"20 509 CURVE SMOOTH",
"20 412 LINE",
"171 377 LINE",
"171 470 LINE SMOOTH",
"171 498 OFFCURVE",
"176 509 OFFCURVE",
"194 509 CURVE SMOOTH",
"196 509 LINE SMOOTH",
"214 509 OFFCURVE",
"219 498 OFFCURVE",
"219 464 CURVE SMOOTH",
"219 413 LINE SMOOTH",
"219 390 OFFCURVE",
"221 366 OFFCURVE",
"164 334 CURVE SMOOTH",
"152 328 OFFCURVE",
"139 322 OFFCURVE",
"123 315 CURVE SMOOTH",
"20 271 OFFCURVE",
"21 257 OFFCURVE",
"21 0 CURVE"
);
}
);
width = 389;
}
);
unicode = 0032;
},
{
glyphname = three;
lastChange = "2021-11-29 03:12:25 +0000";
layers = (
{
background = {
components = (
{
name = O;
transform = "{1, 0, 0, 1, -79, 0}";
}
);
};
layerId = "6AABE730-D951-472C-A552-DEE34E1BBDD6";
paths = (
{
closed = 1;
nodes = (
"185 0 LINE SMOOTH",
"254 0 OFFCURVE",
"295 40 OFFCURVE",
"295 132 CURVE SMOOTH",
"295 206 LINE SMOOTH",
"295 290 OFFCURVE",
"249 319 OFFCURVE",
"203 322 CURVE",
"242 323 OFFCURVE",
"295 356 OFFCURVE",
"295 448 CURVE SMOOTH",
"295 496 LINE SMOOTH",
"295 595 OFFCURVE",
"259 620 OFFCURVE",
"190 620 CURVE SMOOTH",
"139 620 LINE SMOOTH",
"77 620 OFFCURVE",
"40 578 OFFCURVE",
"40 496 CURVE SMOOTH",
"40 415 LINE",
"50 407 LINE",
"50 496 LINE SMOOTH",
"50 552 OFFCURVE",
"68 611 OFFCURVE",
"147 611 CURVE SMOOTH",
"186 611 LINE SMOOTH",
"257 611 OFFCURVE",
"285 586 OFFCURVE",
"285 497 CURVE SMOOTH",
"285 450 LINE SMOOTH",
"285 356 OFFCURVE",
"237 326 OFFCURVE",
"176 326 CURVE SMOOTH",
"122 326 LINE",
"122 317 LINE",
"175 317 LINE SMOOTH",
"239 317 OFFCURVE",
"285 292 OFFCURVE",
"285 190 CURVE SMOOTH",
"285 137 LINE SMOOTH",
"285 65 OFFCURVE",
"263 9 OFFCURVE",
"184 9 CURVE SMOOTH",
"151 9 LINE SMOOTH",
"74 9 OFFCURVE",
"50 58 OFFCURVE",
"50 139 CURVE SMOOTH",
"50 214 LINE",
"40 219 LINE",
"40 131 LINE SMOOTH",
"40 38 OFFCURVE",
"75 0 OFFCURVE",
"151 0 CURVE SMOOTH"
);
}
);
width = 335;
},
{
background = {
paths = (
{
closed = 1;
nodes = (
"157 621 LINE SMOOTH",
"54 621 OFFCURVE",
"6 603 OFFCURVE",
"6 509 CURVE SMOOTH",
"6 412 LINE",
"157 377 LINE",
"157 470 LINE SMOOTH",
"157 498 OFFCURVE",
"162 509 OFFCURVE",
"180 509 CURVE SMOOTH",
"182 509 LINE SMOOTH",
"200 509 OFFCURVE",
"205 498 OFFCURVE",
"205 464 CURVE SMOOTH",
"205 413 LINE SMOOTH",
"205 390 OFFCURVE",
"207 366 OFFCURVE",
"150 334 CURVE SMOOTH",
"138 328 OFFCURVE",
"125 322 OFFCURVE",
"109 315 CURVE SMOOTH",
"6 271 OFFCURVE",
"7 257 OFFCURVE",
"7 0 CURVE",
"328 0 LINE",
"355 120 LINE",
"157 119 LINE",
"157 125 OFFCURVE",
"143 190 OFFCURVE",
"211 227 CURVE SMOOTH",
"221 232 OFFCURVE",
"230 237 OFFCURVE",
"238 242 CURVE SMOOTH",
"326 294 OFFCURVE",
"355 339 OFFCURVE",
"355 427 CURVE",
"355 509 LINE",
"355 603 OFFCURVE",
"310 621 OFFCURVE",
"205 621 CURVE SMOOTH"
);
}
);
};
layerId = "D686CB0C-BBDB-4E69-8E5A-045D5C85CA47";
paths = (
{
closed = 1;
nodes = (
"205 -3 LINE SMOOTH",
"306 -3 OFFCURVE",
"369 40 OFFCURVE",
"369 132 CURVE SMOOTH",
"368 206 LINE SMOOTH",
"368 280 OFFCURVE",
"282 305 OFFCURVE",
"250 305 CURVE",
"248 306 LINE",
"250 307 LINE",
"278 307 OFFCURVE",
"368 356 OFFCURVE",
"368 448 CURVE SMOOTH",
"368 478 LINE SMOOTH",
"368 592 OFFCURVE",
"306 620 OFFCURVE",
"221 620 CURVE SMOOTH",
"178 620 LINE SMOOTH",
"77 620 OFFCURVE",
"20 578 OFFCURVE",
"20 486 CURVE SMOOTH",
"20 439 LINE",
"170 419 LINE",
"170 480 LINE SMOOTH",
"170 503 OFFCURVE",
"178 509 OFFCURVE",
"189 509 CURVE SMOOTH",
"200 509 LINE SMOOTH",
"210 509 OFFCURVE",
"218 503 OFFCURVE",
"218 480 CURVE SMOOTH",
"218 435 LINE SMOOTH",
"218 365 OFFCURVE",
"192 363 OFFCURVE",
"165 363 CURVE SMOOTH",
"80 363 LINE",
"80 262 LINE",
"191 262 LINE SMOOTH",
"210 262 OFFCURVE",
"218 257 OFFCURVE",
"218 211 CURVE SMOOTH",
"218 162 LINE SMOOTH",
"218 124 OFFCURVE",
"208 120 OFFCURVE",
"197 120 CURVE SMOOTH",
"191 120 LINE SMOOTH",
"181 120 OFFCURVE",
"170 124 OFFCURVE",
"170 162 CURVE SMOOTH",
"170 198 LINE",
"20 211 LINE",
"20 131 LINE SMOOTH",
"20 38 OFFCURVE",
"45 -3 OFFCURVE",
"194 -3 CURVE SMOOTH"
);
}
);
width = 389;
}
);
unicode = 0033;
},
{
glyphname = four;
lastChange = "2021-11-29 03:12:25 +0000";
layers = (
{
background = {
paths = (
{
closed = 1;
nodes = (
"6 149 LINE",
"360 149 LINE",
"360 99 OFFCURVE",
"358 49 OFFCURVE",
"358 0 CURVE",
"402 0 LINE",
"402 49 OFFCURVE",
"400 99 OFFCURVE",
"400 149 CURVE",
"500 149 LINE",
"500 182 LINE",
"400 182 LINE",
"400 239 OFFCURVE",
"399 294 OFFCURVE",
"399 351 CURVE SMOOTH",
"399 468 OFFCURVE",
"402 583 OFFCURVE",
"402 700 CURVE",
"360 700 LINE",
"295 601 OFFCURVE",
"234 502 OFFCURVE",
"169 403 CURVE SMOOTH"
);
},
{
closed = 1;
nodes = (
"361 539 OFFCURVE",
"362 445 OFFCURVE",
"362 350 CURVE SMOOTH",
"362 294 OFFCURVE",
"361 238 OFFCURVE",
"360 182 CURVE",
"68 182 LINE",
"166 336 OFFCURVE",
"262 484 OFFCURVE",
"361 634 CURVE"
);
}
);
};
layerId = "6AABE730-D951-472C-A552-DEE34E1BBDD6";
paths = (
{
closed = 1;
nodes = (
"336 0 LINE",
"346 0 LINE",
"346 132 LINE",
"446 132 LINE",
"450 141 LINE",
"346 141 LINE",
"346 620 LINE",
"340 620 LINE",
"30 140 LINE",
"36 132 LINE",
"336 132 LINE"
);
},
{
closed = 1;
nodes = (
"43 141 LINE",
"336 598 LINE",
"336 141 LINE"
);
}
);
width = 490;
},
{
background = {
paths = (
{
closed = 1;
nodes = (
"-16 135 LINE",
"286 135 LINE",
"280 0 LINE",
"480 0 LINE",
"479 135 LINE",
"573 135 LINE",
"573 268 LINE",
"478 268 LINE",
"478 352 LINE",
"481 700 LINE",
"262 700 LINE",
"125 419 LINE"
);
},
{
closed = 1;
nodes = (
"298 476 LINE",
"297 350 LINE",
"293 268 LINE",
"210 268 LINE",
"243 351 LINE"
);
}
);
};
layerId = "D686CB0C-BBDB-4E69-8E5A-045D5C85CA47";
paths = (
{
closed = 1;
nodes = (
"433 0 LINE",
"432 118 LINE",
"506 118 LINE",
"533 239 LINE",
"430 239 LINE",
"433 620 LINE",
"225 620 LINE",
"20 189 LINE",
"64 118 LINE",
"264 118 LINE",
"262 0 LINE"
);
},
{
closed = 1;
nodes = (
"191 239 LINE",
"272 438 LINE",
"272 239 LINE"
);
}
);
width = 553;
}
);
unicode = 0034;
},
{
glyphname = five;
lastChange = "2021-11-29 03:12:25 +0000";
layers = (
{
layerId = "6AABE730-D951-472C-A552-DEE34E1BBDD6";
paths = (
{
closed = 1;
nodes = (
"183 -2 LINE SMOOTH",
"238 -2 OFFCURVE",
"295 32 OFFCURVE",
"295 131 CURVE SMOOTH",
"295 221 LINE SMOOTH",
"295 342 OFFCURVE",
"274 386 OFFCURVE",
"183 386 CURVE SMOOTH",
"158 386 LINE SMOOTH",
"89 386 OFFCURVE",
"54 334 OFFCURVE",
"50 326 CURVE",
"50 611 LINE",
"280 611 LINE",
"280 620 LINE",
"40 620 LINE",
"40 312 LINE",
"51 309 LINE",
"55 322 OFFCURVE",
"91 377 OFFCURVE",
"158 377 CURVE SMOOTH",
"183 377 LINE SMOOTH",
"251 377 OFFCURVE",
"285 350 OFFCURVE",
"285 221 CURVE SMOOTH",
"285 120 LINE SMOOTH",
"285 53 OFFCURVE",
"243 7 OFFCURVE",
"183 7 CURVE SMOOTH",
"140 7 LINE SMOOTH",
"66 7 OFFCURVE",
"50 61 OFFCURVE",
"50 127 CURVE SMOOTH",
"50 210 LINE",
"40 216 LINE",
"40 131 LINE SMOOTH",
"40 40 OFFCURVE",
"68 -2 OFFCURVE",
"140 -2 CURVE SMOOTH"
);
}
);
width = 335;
},
{
background = {
paths = (
{
closed = 1;
nodes = (
"46 466 LINE",
"46 328 LINE",
"253 328 LINE SMOOTH",
"316 326 OFFCURVE",
"339 293 OFFCURVE",
"341 241 CURVE SMOOTH",
"341 206 LINE SMOOTH",
"341 175 OFFCURVE",
"336 124 OFFCURVE",
"298 124 CURVE SMOOTH",
"280 124 LINE SMOOTH",
"235 124 OFFCURVE",
"235 166 OFFCURVE",
"235 215 CURVE SMOOTH",
"235 246 LINE",
"34 246 LINE",
"31 140 LINE SMOOTH",
"29 46 OFFCURVE",
"86 -3 OFFCURVE",
"192 -3 CURVE SMOOTH",
"365 -3 LINE SMOOTH",
"478 -3 OFFCURVE",
"541 32 OFFCURVE",
"537 165 CURVE SMOOTH",
"535 288 LINE SMOOTH",
"534 375 OFFCURVE",
"500 466 OFFCURVE",
"347 466 CURVE SMOOTH",
"237 466 LINE",
"237 557 LINE",
"521 557 LINE",
"493 700 LINE",
"48 700 LINE",
"48 466 LINE"
);
}
);
};
layerId = "D686CB0C-BBDB-4E69-8E5A-045D5C85CA47";
paths = (
{
closed = 1;
nodes = (
"252 -2 LINE SMOOTH",
"280 -2 OFFCURVE",
"395 0 OFFCURVE",
"395 166 CURVE SMOOTH",
"395 303 LINE SMOOTH",
"395 437 OFFCURVE",
"322 442 OFFCURVE",
"299 442 CURVE SMOOTH",
"271 442 LINE SMOOTH",
"243 442 OFFCURVE",
"207 436 OFFCURVE",
"197 427 CURVE",
"197 500 LINE",
"391 500 LINE",
"391 620 LINE",
"47 620 LINE",
"47 308 LINE",
"195 279 LINE",
"195 308 OFFCURVE",
"202 336 OFFCURVE",
"221 336 CURVE SMOOTH",
"227 336 LINE SMOOTH",
"242 336 OFFCURVE",
"245 326 OFFCURVE",
"245 281 CURVE SMOOTH",
"245 181 LINE SMOOTH",
"245 141 OFFCURVE",
"245 120 OFFCURVE",
"225 120 CURVE SMOOTH",
"216 120 LINE SMOOTH",
"204 120 OFFCURVE",
"197 126 OFFCURVE",
"197 166 CURVE SMOOTH",
"197 196 LINE",
"40 220 LINE",
"40 142 LINE SMOOTH",
"40 50 OFFCURVE",
"70 -2 OFFCURVE",
"204 -2 CURVE SMOOTH"
);
}
);
width = 435;
}
);
unicode = 0035;
},
{
glyphname = six;
lastChange = "2021-11-29 03:12:25 +0000";
layers = (
{
background = {
paths = (
{
closed = 0;
nodes = (
"167 613 LINE SMOOTH",
"251 613 OFFCURVE",
"285 575 OFFCURVE",
"285 508 CURVE SMOOTH",
"285 349 LINE",
"272 370 OFFCURVE",
"232 393 OFFCURVE",
"171 393 CURVE SMOOTH",
"57 393 OFFCURVE",
"40 338 OFFCURVE",
"40 275 CURVE SMOOTH",
"40 163 LINE SMOOTH",
"40 26 OFFCURVE",
"86 -3 OFFCURVE",
"171 -3 CURVE SMOOTH"
);
},
{
closed = 0;
nodes = (
"167 623 LINE SMOOTH",
"264 623 OFFCURVE",
"295 575 OFFCURVE",
"295 508 CURVE SMOOTH",
"295 163 LINE SMOOTH"
);
},
{
closed = 0;
nodes = (
"172 6 LINE SMOOTH",
"98 6 OFFCURVE",
"50 30 OFFCURVE",
"50 163 CURVE SMOOTH",
"50 275 LINE SMOOTH",
"50 331 OFFCURVE",
"67 383 OFFCURVE",
"171 383 CURVE SMOOTH",
"250 383 OFFCURVE",
"285 349 OFFCURVE",
"285 303 CURVE SMOOTH"
);
}
);
};
layerId = "6AABE730-D951-472C-A552-DEE34E1BBDD6";
paths = (
{
closed = 1;
nodes = (
"249 -3 OFFCURVE",
"295 26 OFFCURVE",
"295 163 CURVE SMOOTH",
"295 259 LINE SMOOTH",
"295 322 OFFCURVE",
"278 393 OFFCURVE",
"167 393 CURVE SMOOTH",
"103 393 OFFCURVE",
"59 359 OFFCURVE",
"50 317 CURVE",
"50 508 LINE SMOOTH",
"50 575 OFFCURVE",
"84 613 OFFCURVE",
"168 613 CURVE SMOOTH",
"251 613 OFFCURVE",
"285 575 OFFCURVE",
"285 508 CURVE SMOOTH",
"285 444 LINE",
"295 450 LINE",
"295 508 LINE SMOOTH",
"295 575 OFFCURVE",
"264 623 OFFCURVE",
"168 623 CURVE SMOOTH",
"71 623 OFFCURVE",
"40 575 OFFCURVE",
"40 508 CURVE SMOOTH",
"40 163 LINE SMOOTH",
"40 26 OFFCURVE",
"90 -3 OFFCURVE",
"164 -3 CURVE SMOOTH"
);
},
{
closed = 1;
nodes = (
"105 6 OFFCURVE",
"50 30 OFFCURVE",
"50 163 CURVE SMOOTH",
"50 259 LINE SMOOTH",
"50 332 OFFCURVE",
"85 383 OFFCURVE",
"167 383 CURVE SMOOTH",
"268 383 OFFCURVE",
"285 315 OFFCURVE",
"285 259 CURVE SMOOTH",
"285 163 LINE SMOOTH",
"285 30 OFFCURVE",
"237 6 OFFCURVE",
"163 6 CURVE SMOOTH"
);
}
);
width = 335;
},
{
background = {
components = (
{
name = O;
transform = "{1, 0, 0, 1, 5, 0}";
}
);
};
layerId = "D686CB0C-BBDB-4E69-8E5A-045D5C85CA47";
paths = (
{
closed = 1;
nodes = (
"285 -7 OFFCURVE",
"368 0 OFFCURVE",
"368 132 CURVE SMOOTH",
"368 279 LINE SMOOTH",
"368 350 OFFCURVE",
"329 393 OFFCURVE",
"260 393 CURVE SMOOTH",
"193 393 OFFCURVE",
"176 378 OFFCURVE",
"170 365 CURVE",
"170 458 LINE SMOOTH",
"170 491 OFFCURVE",
"176 502 OFFCURVE",
"195 502 CURVE SMOOTH",
"212 502 OFFCURVE",
"218 491 OFFCURVE",
"218 458 CURVE SMOOTH",
"218 430 LINE",
"365 440 LINE",
"365 507 LINE SMOOTH",
"365 605 OFFCURVE",
"293 626 OFFCURVE",
"195 626 CURVE SMOOTH",
"72 626 OFFCURVE",
"20 593 OFFCURVE",
"20 472 CURVE SMOOTH",
"20 132 LINE SMOOTH",
"20 2 OFFCURVE",
"106 -7 OFFCURVE",
"195 -7 CURVE SMOOTH"
);
},
{
closed = 1;
nodes = (
"172 119 OFFCURVE",
"170 133 OFFCURVE",
"170 174 CURVE SMOOTH",
"170 255 LINE SMOOTH",
"170 290 OFFCURVE",
"178 300 OFFCURVE",
"194 300 CURVE SMOOTH",
"213 300 OFFCURVE",
"218 290 OFFCURVE",
"218 255 CURVE SMOOTH",
"218 174 LINE SMOOTH",
"218 133 OFFCURVE",
"216 119 OFFCURVE",
"194 119 CURVE SMOOTH"
);
}
);
width = 388;
}
);
unicode = 0036;
},
{
glyphname = seven;
lastChange = "2021-11-29 03:12:25 +0000";
layers = (
{
layerId = "6AABE730-D951-472C-A552-DEE34E1BBDD6";
paths = (
{
closed = 1;
nodes = (
"34 0 LINE",
"309 620 LINE",
"22 620 LINE",
"20 611 LINE",
"292 611 LINE",
"22 0 LINE"
);
}
);
width = 324;
},
{
background = {
paths = (
{
closed = 1;
nodes = (
"111 0 LINE",
"282 341 LINE",
"475 700 LINE",
"48 700 LINE",
"40 670 LINE",
"414 670 LINE",
"259 372 LINE",
"62 0 LINE"
);
}
);
};
layerId = "D686CB0C-BBDB-4E69-8E5A-045D5C85CA47";
paths = (
{
closed = 1;
nodes = (
"214 0 LINE",
"429 620 LINE",
"41 620 LINE",
"15 500 LINE",
"215 500 LINE",
"39 0 LINE"
);
}
);
width = 439;
}
);
unicode = 0037;
},
{
glyphname = eight;
lastChange = "2021-11-29 03:12:25 +0000";
layers = (
{
background = {
paths = (
{
closed = 0;
nodes = (
"160 622 LINE SMOOTH",
"177 622 LINE SMOOTH",
"258 622 OFFCURVE",
"298 585 OFFCURVE",
"298 489 CURVE SMOOTH",
"298 477 OFFCURVE",
"298 464 OFFCURVE",
"298 452 CURVE SMOOTH",
"298 362 OFFCURVE",
"269 337 OFFCURVE",
"216 321 CURVE",
"272 316 OFFCURVE",
"301 276 OFFCURVE",
"301 192 CURVE SMOOTH",
"301 177 OFFCURVE",
"301 161 OFFCURVE",
"301 146 CURVE SMOOTH",
"301 36 OFFCURVE",
"258 -2 OFFCURVE",
"177 -2 CURVE SMOOTH",
"172 -2 LINE SMOOTH"
);
},
{
closed = 0;
nodes = (
"175 7 LINE SMOOTH",
"233 7 OFFCURVE",
"290 25 OFFCURVE",
"290 146 CURVE SMOOTH",
"290 192 LINE SMOOTH",
"290 271 OFFCURVE",
"271 317 OFFCURVE",
"171 317 CURVE SMOOTH"
);
},
{
closed = 0;
nodes = (
"171 328 LINE SMOOTH",
"242 328 OFFCURVE",
"288 349 OFFCURVE",
"288 452 CURVE SMOOTH",
"288 489 LINE SMOOTH",
"288 560 OFFCURVE",
"271 613 OFFCURVE",
"171 613 CURVE SMOOTH"
);
}
);
};
layerId = "6AABE730-D951-472C-A552-DEE34E1BBDD6";
paths = (
{
closed = 1;
nodes = (
"169 -2 LINE SMOOTH",
"256 -2 OFFCURVE",
"301 36 OFFCURVE",
"301 162 CURVE SMOOTH",
"301 192 LINE SMOOTH",
"301 276 OFFCURVE",
"271 317 OFFCURVE",
"216 321 CURVE",
"269 337 OFFCURVE",
"298 362 OFFCURVE",
"298 453 CURVE SMOOTH",
"298 486 LINE SMOOTH",
"298 585 OFFCURVE",
"258 622 OFFCURVE",
"181 622 CURVE SMOOTH",
"164 622 LINE SMOOTH",
"83 622 OFFCURVE",
"43 585 OFFCURVE",
"43 489 CURVE SMOOTH",
"43 452 LINE SMOOTH",
"43 362 OFFCURVE",
"72 337 OFFCURVE",
"125 321 CURVE",
"69 316 OFFCURVE",
"40 276 OFFCURVE",
"40 192 CURVE SMOOTH",
"40 146 LINE SMOOTH",
"40 36 OFFCURVE",
"83 -2 OFFCURVE",
"164 -2 CURVE SMOOTH"
);
},
{
closed = 1;
nodes = (
"108 7 OFFCURVE",
"51 25 OFFCURVE",
"51 146 CURVE SMOOTH",
"51 192 LINE SMOOTH",
"51 271 OFFCURVE",
"70 318 OFFCURVE",
"170 318 CURVE SMOOTH",
"271 318 OFFCURVE",
"290 271 OFFCURVE",
"290 192 CURVE SMOOTH",
"290 162 LINE SMOOTH",
"290 26 OFFCURVE",
"240 7 OFFCURVE",
"166 7 CURVE SMOOTH"
);
},
{
closed = 1;
nodes = (
"99 327 OFFCURVE",
"53 349 OFFCURVE",
"53 452 CURVE SMOOTH",
"53 489 LINE SMOOTH",
"53 560 OFFCURVE",
"70 613 OFFCURVE",
"170 613 CURVE SMOOTH",
"271 613 OFFCURVE",
"288 560 OFFCURVE",
"288 486 CURVE SMOOTH",
"288 453 LINE SMOOTH",
"288 349 OFFCURVE",
"242 327 OFFCURVE",
"170 327 CURVE SMOOTH"
);
}
);
width = 341;
},
{
background = {
paths = (
{
closed = 1;
nodes = (
"170 458 LINE SMOOTH",
"170 491 OFFCURVE",
"176 502 OFFCURVE",
"195 502 CURVE SMOOTH",
"212 502 OFFCURVE",
"218 491 OFFCURVE",
"218 458 CURVE SMOOTH",
"218 430 LINE",
"365 440 LINE",
"365 507 LINE SMOOTH",
"365 605 OFFCURVE",
"293 626 OFFCURVE",
"195 626 CURVE SMOOTH",
"72 626 OFFCURVE",
"20 593 OFFCURVE",
"20 472 CURVE SMOOTH",
"20 132 LINE SMOOTH",
"20 2 OFFCURVE",
"106 -7 OFFCURVE",
"195 -7 CURVE SMOOTH",
"285 -7 OFFCURVE",
"368 0 OFFCURVE",
"368 132 CURVE SMOOTH",
"368 279 LINE SMOOTH",
"368 350 OFFCURVE",
"329 393 OFFCURVE",
"260 393 CURVE SMOOTH",
"193 393 OFFCURVE",
"176 378 OFFCURVE",
"170 365 CURVE"
);
},
{
closed = 1;
nodes = (
"172 119 OFFCURVE",
"170 133 OFFCURVE",
"170 174 CURVE SMOOTH",
"170 255 LINE SMOOTH",
"170 290 OFFCURVE",
"178 300 OFFCURVE",
"194 300 CURVE SMOOTH",
"213 300 OFFCURVE",
"218 290 OFFCURVE",
"218 255 CURVE SMOOTH",
"218 174 LINE SMOOTH",
"218 133 OFFCURVE",
"216 119 OFFCURVE",
"194 119 CURVE SMOOTH"
);
}
);
};
layerId = "D686CB0C-BBDB-4E69-8E5A-045D5C85CA47";
paths = (
{
closed = 1;
nodes = (
"215 -3 LINE SMOOTH",
"333 -3 OFFCURVE",
"368 34 OFFCURVE",
"368 161 CURVE SMOOTH",
"368 189 LINE SMOOTH",
"368 277 OFFCURVE",
"314 303 OFFCURVE",
"284 310 CURVE",
"313 319 OFFCURVE",
"363 352 OFFCURVE",
"363 431 CURVE SMOOTH",
"363 480 LINE SMOOTH",
"363 578 OFFCURVE",
"331 623 OFFCURVE",
"219 623 CURVE SMOOTH",
"165 623 LINE SMOOTH",
"52 623 OFFCURVE",
"24 573 OFFCURVE",
"24 471 CURVE SMOOTH",
"24 431 LINE SMOOTH",
"24 346 OFFCURVE",
"69 319 OFFCURVE",
"95 310 CURVE",
"70 306 OFFCURVE",
"20 284 OFFCURVE",
"20 189 CURVE SMOOTH",
"20 145 LINE SMOOTH",
"20 35 OFFCURVE",
"52 -3 OFFCURVE",
"163 -3 CURVE SMOOTH"
);
},
{
closed = 1;
nodes = (
"172 119 OFFCURVE",
"170 130 OFFCURVE",
"170 164 CURVE SMOOTH",
"170 230 LINE SMOOTH",
"170 259 OFFCURVE",
"178 267 OFFCURVE",
"194 267 CURVE SMOOTH",
"213 267 OFFCURVE",
"218 259 OFFCURVE",
"218 230 CURVE SMOOTH",
"218 164 LINE SMOOTH",
"218 130 OFFCURVE",
"216 119 OFFCURVE",
"194 119 CURVE SMOOTH"
);
},
{
closed = 1;
nodes = (
"172 381 OFFCURVE",
"170 392 OFFCURVE",
"170 425 CURVE SMOOTH",
"170 474 LINE SMOOTH",
"170 502 OFFCURVE",
"178 510 OFFCURVE",
"194 510 CURVE SMOOTH",
"213 510 OFFCURVE",
"218 502 OFFCURVE",
"218 474 CURVE SMOOTH",
"218 425 LINE SMOOTH",
"218 392 OFFCURVE",
"216 381 OFFCURVE",
"194 381 CURVE SMOOTH"
);
}
);
width = 388;
}
);
unicode = 0038;
},
{
glyphname = nine;
lastChange = "2021-11-29 03:12:25 +0000";
layers = (
{
layerId = "6AABE730-D951-472C-A552-DEE34E1BBDD6";
paths = (
{
closed = 1;
nodes = (
"264 -4 OFFCURVE",
"295 44 OFFCURVE",
"295 111 CURVE SMOOTH",
"295 456 LINE SMOOTH",
"295 593 OFFCURVE",
"245 622 OFFCURVE",
"171 622 CURVE SMOOTH",
"86 622 OFFCURVE",
"40 593 OFFCURVE",
"40 456 CURVE SMOOTH",
"40 360 LINE SMOOTH",
"40 297 OFFCURVE",
"57 226 OFFCURVE",
"168 226 CURVE SMOOTH",
"232 226 OFFCURVE",
"276 260 OFFCURVE",
"285 302 CURVE",
"285 111 LINE SMOOTH",
"285 44 OFFCURVE",
"251 6 OFFCURVE",
"167 6 CURVE SMOOTH",
"84 6 OFFCURVE",
"50 44 OFFCURVE",
"50 111 CURVE SMOOTH",
"50 175 LINE",
"40 180 LINE",
"40 111 LINE SMOOTH",
"40 44 OFFCURVE",
"71 -4 OFFCURVE",
"167 -4 CURVE SMOOTH"
);
},
{
closed = 1;
nodes = (
"67 236 OFFCURVE",
"50 304 OFFCURVE",
"50 360 CURVE SMOOTH",
"50 456 LINE SMOOTH",
"50 589 OFFCURVE",
"98 613 OFFCURVE",
"172 613 CURVE SMOOTH",
"230 613 OFFCURVE",
"285 589 OFFCURVE",
"285 456 CURVE SMOOTH",
"285 360 LINE SMOOTH",
"285 287 OFFCURVE",
"250 236 OFFCURVE",
"168 236 CURVE SMOOTH"
);
}
);
width = 335;
},
{
layerId = "D686CB0C-BBDB-4E69-8E5A-045D5C85CA47";
paths = (
{
closed = 1;
nodes = (
"321 -7 OFFCURVE",
"373 26 OFFCURVE",
"373 147 CURVE SMOOTH",
"373 487 LINE SMOOTH",
"373 617 OFFCURVE",
"287 626 OFFCURVE",
"198 626 CURVE SMOOTH",
"108 626 OFFCURVE",
"25 619 OFFCURVE",
"25 487 CURVE SMOOTH",
"25 340 LINE SMOOTH",
"25 269 OFFCURVE",
"64 226 OFFCURVE",
"133 226 CURVE SMOOTH",
"200 226 OFFCURVE",
"217 241 OFFCURVE",
"223 254 CURVE",
"223 161 LINE SMOOTH",
"223 128 OFFCURVE",
"217 117 OFFCURVE",
"198 117 CURVE SMOOTH",
"181 117 OFFCURVE",
"175 128 OFFCURVE",
"175 161 CURVE SMOOTH",
"175 184 LINE",
"28 193 LINE",
"28 112 LINE SMOOTH",
"28 14 OFFCURVE",
"100 -7 OFFCURVE",
"198 -7 CURVE SMOOTH"
);
},
{
closed = 1;
nodes = (
"180 319 OFFCURVE",
"175 329 OFFCURVE",
"175 364 CURVE SMOOTH",
"175 445 LINE SMOOTH",
"175 486 OFFCURVE",
"177 500 OFFCURVE",
"199 500 CURVE SMOOTH",
"221 500 OFFCURVE",
"223 486 OFFCURVE",
"223 445 CURVE SMOOTH",
"223 364 LINE SMOOTH",
"223 329 OFFCURVE",
"215 319 OFFCURVE",
"199 319 CURVE SMOOTH"
);
}
);
width = 398;
}
);
unicode = 0039;
},
{
glyphname = onesuperior;
lastChange = "2021-11-29 03:15:47 +0000";
layers = (
{
layerId = "6AABE730-D951-472C-A552-DEE34E1BBDD6";
paths = (
{
closed = 1;
nodes = (
"148 217 LINE",
"148 620 LINE",
"138 620 LINE",
"50 510 LINE",
"56 504 LINE",
"138 604 LINE",
"138 217 LINE"
);
}
);
width = 198;
},
{
layerId = "D686CB0C-BBDB-4E69-8E5A-045D5C85CA47";
paths = (
{
closed = 1;
nodes = (
"263 240 LINE",
"262 643 LINE",
"137 643 LINE",
"25 504 LINE",
"78 454 LINE",
"135 513 LINE",
"135 240 LINE"
);
}
);
width = 288;
}
);
unicode = 00B9;
},
{
glyphname = twosuperior;
lastChange = "2021-11-29 03:12:25 +0000";
layers = (
{
layerId = "6AABE730-D951-472C-A552-DEE34E1BBDD6";
paths = (
{
closed = 1;
nodes = (
"213 220 LINE",
"216 229 LINE",
"60 229 LINE",
"60 272 OFFCURVE",
"60 329 OFFCURVE",
"121 381 CURVE SMOOTH",
"133 391 OFFCURVE",
"144 399 OFFCURVE",
"153 407 CURVE SMOOTH",
"192 441 OFFCURVE",
"219 472 OFFCURVE",
"219 516 CURVE SMOOTH",
"219 543 LINE SMOOTH",
"219 596 OFFCURVE",
"192 623 OFFCURVE",
"147 623 CURVE SMOOTH",
"132 623 LINE SMOOTH",
"79 623 OFFCURVE",
"54 600 OFFCURVE",
"54 536 CURVE SMOOTH",
"54 481 LINE",
"64 481 LINE",
"64 547 LINE SMOOTH",
"64 574 OFFCURVE",
"73 614 OFFCURVE",
"126 614 CURVE SMOOTH",
"147 614 LINE SMOOTH",
"185 614 OFFCURVE",
"209 596 OFFCURVE",
"209 543 CURVE SMOOTH",
"209 525 LINE SMOOTH",
"209 478 OFFCURVE",
"193 454 OFFCURVE",
"153 420 CURVE SMOOTH",
"147 414 OFFCURVE",
"140 408 OFFCURVE",
"133 403 CURVE SMOOTH",
"82 361 OFFCURVE",
"50 325 OFFCURVE",
"50 220 CURVE"
);
}
);
width = 269;
},
{
background = {
paths = (
{
closed = 1;
nodes = (
"-13 513 LINE",
"-13 240 LINE",
"114 240 LINE",
"113 643 LINE",
"-11 643 LINE",
"-124 504 LINE",
"-71 454 LINE"
);
}
);
};
layerId = "D686CB0C-BBDB-4E69-8E5A-045D5C85CA47";
paths = (
{
closed = 1;
nodes = (
"301 240 LINE",
"319 340 LINE",
"153 339 LINE",
"153 343 OFFCURVE",
"162 363 OFFCURVE",
"206 388 CURVE",
"213 391 OFFCURVE",
"219 395 OFFCURVE",
"224 397 CURVE SMOOTH",
"300 427 OFFCURVE",
"319 460 OFFCURVE",
"319 518 CURVE SMOOTH",
"319 571 LINE SMOOTH",
"319 632 OFFCURVE",
"290 644 OFFCURVE",
"221 644 CURVE SMOOTH",
"123 644 LINE SMOOTH",
"56 644 OFFCURVE",
"25 632 OFFCURVE",
"25 571 CURVE SMOOTH",
"25 508 LINE",
"153 485 LINE",
"153 545 LINE SMOOTH",
"153 564 OFFCURVE",
"156 571 OFFCURVE",
"168 571 CURVE SMOOTH",
"169 571 LINE SMOOTH",
"181 571 OFFCURVE",
"184 564 OFFCURVE",
"184 542 CURVE SMOOTH",
"184 508 LINE SMOOTH",
"184 493 OFFCURVE",
"186 478 OFFCURVE",
"119 457 CURVE SMOOTH",
"111 454 OFFCURVE",
"102 449 OFFCURVE",
"92 445 CURVE SMOOTH",
"25 416 OFFCURVE",
"26 407 OFFCURVE",
"26 240 CURVE"
);
}
);
width = 344;
}
);
unicode = 00B2;
},
{
glyphname = threesuperior;
lastChange = "2021-11-29 03:12:25 +0000";
layers = (
{
layerId = "6AABE730-D951-472C-A552-DEE34E1BBDD6";
paths = (
{
closed = 1;
nodes = (
"144 219 LINE SMOOTH",
"189 219 OFFCURVE",
"219 245 OFFCURVE",
"219 305 CURVE SMOOTH",
"219 353 LINE SMOOTH",
"219 407 OFFCURVE",
"186 426 OFFCURVE",
"156 428 CURVE",
"181 429 OFFCURVE",
"219 452 OFFCURVE",
"219 511 CURVE SMOOTH",
"219 543 LINE SMOOTH",
"219 607 OFFCURVE",
"192 622 OFFCURVE",
"147 622 CURVE SMOOTH",
"114 622 LINE SMOOTH",
"74 622 OFFCURVE",
"50 595 OFFCURVE",
"50 541 CURVE SMOOTH",
"50 489 LINE",
"60 485 LINE",
"60 543 LINE SMOOTH",
"60 579 OFFCURVE",
"68 613 OFFCURVE",
"120 613 CURVE SMOOTH",
"145 613 LINE SMOOTH",
"191 613 OFFCURVE",
"209 600 OFFCURVE",
"209 542 CURVE SMOOTH",
"209 511 LINE SMOOTH",
"209 450 OFFCURVE",
"178 431 OFFCURVE",
"138 431 CURVE SMOOTH",
"103 431 LINE",
"103 422 LINE",
"138 422 LINE SMOOTH",
"179 422 OFFCURVE",
"209 409 OFFCURVE",
"209 342 CURVE SMOOTH",
"209 308 LINE SMOOTH",
"209 261 OFFCURVE",
"195 228 OFFCURVE",
"144 228 CURVE SMOOTH",
"122 228 LINE SMOOTH",
"72 228 OFFCURVE",
"60 257 OFFCURVE",
"60 309 CURVE SMOOTH",
"60 358 LINE",
"50 361 LINE",
"50 304 LINE SMOOTH",
"50 244 OFFCURVE",
"73 219 OFFCURVE",
"122 219 CURVE SMOOTH"
);
}
);
width = 269;
},
{
layerId = "D686CB0C-BBDB-4E69-8E5A-045D5C85CA47";
paths = (
{
closed = 1;
nodes = (
"213 240 LINE SMOOTH",
"279 240 OFFCURVE",
"320 268 OFFCURVE",
"320 328 CURVE SMOOTH",
"319 376 LINE SMOOTH",
"319 424 OFFCURVE",
"263 440 OFFCURVE",
"242 440 CURVE SMOOTH",
"204 441 LINE",
"242 442 LINE SMOOTH",
"261 442 OFFCURVE",
"319 473 OFFCURVE",
"319 533 CURVE SMOOTH",
"319 553 LINE SMOOTH",
"319 627 OFFCURVE",
"279 645 OFFCURVE",
"224 645 CURVE SMOOTH",
"117 645 LINE SMOOTH",
"51 645 OFFCURVE",
"25 618 OFFCURVE",
"25 575 CURVE SMOOTH",
"25 527 LINE",
"153 505 LINE",
"153 554 LINE SMOOTH",
"153 569 OFFCURVE",
"159 573 OFFCURVE",
"166 573 CURVE SMOOTH",
"173 573 LINE SMOOTH",
"179 573 OFFCURVE",
"185 569 OFFCURVE",
"185 554 CURVE SMOOTH",
"185 525 LINE SMOOTH",
"185 486 OFFCURVE",
"168 484 OFFCURVE",
"150 484 CURVE SMOOTH",
"98 484 LINE",
"98 407 LINE",
"167 406 LINE SMOOTH",
"179 406 OFFCURVE",
"185 403 OFFCURVE",
"185 379 CURVE SMOOTH",
"185 347 LINE SMOOTH",
"185 323 OFFCURVE",
"178 320 OFFCURVE",
"171 320 CURVE SMOOTH",
"167 320 LINE SMOOTH",
"161 320 OFFCURVE",
"153 323 OFFCURVE",
"153 347 CURVE SMOOTH",
"153 371 LINE",
"25 384 LINE",
"25 327 LINE SMOOTH",
"25 267 OFFCURVE",
"65 240 OFFCURVE",
"146 240 CURVE SMOOTH"
);
}
);
width = 345;
}
);
unicode = 00B3;
},
{
glyphname = foursuperior;
lastChange = "2021-11-29 03:12:25 +0000";
layers = (
{
layerId = "6AABE730-D951-472C-A552-DEE34E1BBDD6";
paths = (
{
closed = 1;
nodes = (
"251 222 LINE",
"261 222 LINE",
"261 305 LINE",
"326 305 LINE",
"328 314 LINE",
"261 314 LINE",
"261 625 LINE",
"252 625 LINE",
"50 313 LINE",
"54 305 LINE",
"251 305 LINE"
);
},
{
closed = 1;
nodes = (
"61 314 LINE",
"251 607 LINE",
"251 314 LINE"
);
}
);
width = 378;
},
{
layerId = "D686CB0C-BBDB-4E69-8E5A-045D5C85CA47";
paths = (
{
closed = 1;
nodes = (
"359 240 LINE",
"358 317 LINE",
"406 317 LINE",
"424 395 LINE",
"357 395 LINE",
"359 643 LINE",
"184 643 LINE",
"25 395 LINE",
"79 317 LINE",
"209 317 LINE",
"208 240 LINE"
);
},
{
closed = 1;
nodes = (
"162 395 LINE",
"214 495 LINE",
"214 395 LINE"
);
}
);
width = 449;
}
);
unicode = 2074;
},
{
glyphname = period;
lastChange = "2021-11-29 03:15:47 +0000";
layers = (
{
layerId = "6AABE730-D951-472C-A552-DEE34E1BBDD6";
paths = (
{
closed = 1;
nodes = (
"77 8 OFFCURVE",
"77 14 OFFCURVE",
"77 21 CURVE SMOOTH",
"77 30 OFFCURVE",
"77 36 OFFCURVE",
"63 36 CURVE SMOOTH",
"50 36 OFFCURVE",
"50 30 OFFCURVE",
"50 21 CURVE SMOOTH",
"50 14 OFFCURVE",
"50 8 OFFCURVE",
"63 8 CURVE SMOOTH"
);
}
);
width = 177;
},
{
layerId = "D686CB0C-BBDB-4E69-8E5A-045D5C85CA47";
paths = (
{
closed = 1;
nodes = (
"157 -6 OFFCURVE",
"159 7 OFFCURVE",
"159 45 CURVE SMOOTH",
"159 86 OFFCURVE",
"158 96 OFFCURVE",
"108 96 CURVE SMOOTH",
"60 96 OFFCURVE",
"60 86 OFFCURVE",
"60 45 CURVE SMOOTH",
"60 7 OFFCURVE",
"60 -6 OFFCURVE",
"108 -6 CURVE SMOOTH"
);
}
);
width = 219;
}
);
note = period;
unicode = 002E;
},
{
glyphname = comma;
lastChange = "2021-11-29 03:15:47 +0000";
layers = (
{
layerId = "6AABE730-D951-472C-A552-DEE34E1BBDD6";
paths = (
{
closed = 1;
nodes = (
"49 -95 LINE",
"66 -68 OFFCURVE",
"77 -19 OFFCURVE",
"77 21 CURVE SMOOTH",
"77 30 OFFCURVE",
"76 36 OFFCURVE",
"64 36 CURVE SMOOTH",
"50 36 OFFCURVE",
"50 28 OFFCURVE",
"50 19 CURVE SMOOTH",
"50 14 OFFCURVE",
"51 8 OFFCURVE",
"66 8 CURVE",
"66 -32 OFFCURVE",
"56 -68 OFFCURVE",
"40 -95 CURVE"
);
}
);
width = 177;
},
{
background = {
paths = (
{
closed = 1;
nodes = (
"164 -6 OFFCURVE",
"166 7 OFFCURVE",
"166 45 CURVE SMOOTH",
"166 86 OFFCURVE",
"165 96 OFFCURVE",
"115 96 CURVE SMOOTH",
"67 96 OFFCURVE",
"67 86 OFFCURVE",
"67 45 CURVE SMOOTH",
"67 7 OFFCURVE",
"67 -6 OFFCURVE",
"115 -6 CURVE SMOOTH"
);
}
);
};
layerId = "D686CB0C-BBDB-4E69-8E5A-045D5C85CA47";
paths = (
{
closed = 1;
nodes = (
"116 -144 LINE",
"135 -108 OFFCURVE",
"169 -12 OFFCURVE",
"169 45 CURVE SMOOTH",
"169 86 OFFCURVE",
"168 96 OFFCURVE",
"118 96 CURVE SMOOTH",
"64 96 OFFCURVE",
"64 86 OFFCURVE",
"64 45 CURVE SMOOTH",
"64 17 OFFCURVE",
"66 0 OFFCURVE",
"96 0 CURVE",
"96 -33 OFFCURVE",
"76 -75 OFFCURVE",
"50 -144 CURVE"
);
}
);
width = 227;
}
);
note = comma;
unicode = 002C;
},
{
glyphname = semicolon;
lastChange = "2021-11-29 03:15:47 +0000";
layers = (
{
layerId = "6AABE730-D951-472C-A552-DEE34E1BBDD6";
paths = (
{
closed = 1;
nodes = (
"49 -95 LINE",
"66 -68 OFFCURVE",
"77 -19 OFFCURVE",
"77 21 CURVE SMOOTH",
"77 30 OFFCURVE",
"76 36 OFFCURVE",
"64 36 CURVE SMOOTH",
"50 36 OFFCURVE",
"50 28 OFFCURVE",
"50 19 CURVE SMOOTH",
"50 14 OFFCURVE",
"51 8 OFFCURVE",
"66 8 CURVE",
"66 -32 OFFCURVE",
"56 -68 OFFCURVE",
"40 -95 CURVE"
);
},
{
closed = 1;
nodes = (
"77 358 OFFCURVE",
"77 364 OFFCURVE",
"77 371 CURVE SMOOTH",
"77 380 OFFCURVE",
"77 386 OFFCURVE",
"63 386 CURVE SMOOTH",
"50 386 OFFCURVE",
"50 380 OFFCURVE",
"50 371 CURVE SMOOTH",
"50 364 OFFCURVE",
"50 358 OFFCURVE",
"63 358 CURVE SMOOTH"
);
}
);
width = 177;
},
{
background = {
components = (
{
name = comma;
}
);
};
layerId = "D686CB0C-BBDB-4E69-8E5A-045D5C85CA47";
paths = (
{
closed = 1;
nodes = (
"116 -144 LINE",
"135 -108 OFFCURVE",
"166 -12 OFFCURVE",
"166 45 CURVE SMOOTH",
"166 86 OFFCURVE",
"165 96 OFFCURVE",
"118 96 CURVE SMOOTH",
"67 96 OFFCURVE",
"67 86 OFFCURVE",
"67 45 CURVE SMOOTH",
"67 17 OFFCURVE",
"69 0 OFFCURVE",
"96 0 CURVE",
"96 -33 OFFCURVE",
"76 -75 OFFCURVE",
"50 -144 CURVE"
);
},
{
closed = 1;
nodes = (
"157 344 OFFCURVE",
"159 357 OFFCURVE",
"159 395 CURVE SMOOTH",
"159 436 OFFCURVE",
"158 446 OFFCURVE",
"108 446 CURVE SMOOTH",
"60 446 OFFCURVE",
"60 436 OFFCURVE",
"60 395 CURVE SMOOTH",
"60 357 OFFCURVE",
"60 344 OFFCURVE",
"108 344 CURVE SMOOTH"
);
}
);
width = 244;
}
);
note = semicolon;
unicode = 003B;
},
{
glyphname = exclam;
lastChange = "2021-11-29 03:15:47 +0000";
layers = (
{
components = (
{
name = period;
transform = "{1, 0, 0, 1, 30, 0}";
}
);
layerId = "6AABE730-D951-472C-A552-DEE34E1BBDD6";
paths = (
{
closed = 1;
nodes = (
"97 188 LINE",
"100 620 LINE",
"88 620 LINE",
"91 188 LINE"
);
}
);
width = 207;
},
{
components = (
{
name = period;
transform = "{1, 0, 0, 1, 27, 0}";
}
);
layerId = "D686CB0C-BBDB-4E69-8E5A-045D5C85CA47";
paths = (
{
closed = 1;
nodes = (
"165 188 LINE",
"210 620 LINE",
"60 620 LINE",
"103 188 LINE"
);
}
);
width = 270;
}
);
note = exclam;
unicode = 0021;
},
{
glyphname = question;
lastChange = "2021-11-29 03:15:47 +0000";
layers = (
{
background = {
components = (
{
name = two;
transform = "{1, 0, 0, 1, 10, 0}";
}
);
};
layerId = "6AABE730-D951-472C-A552-DEE34E1BBDD6";
paths = (
{
closed = 1;
nodes = (
"121 145 LINE",
"124 303 LINE",
"214 303 LINE SMOOTH",
"282 303 OFFCURVE",
"305 322 OFFCURVE",
"305 386 CURVE SMOOTH",
"305 503 LINE SMOOTH",
"305 579 OFFCURVE",
"262 620 OFFCURVE",
"199 620 CURVE SMOOTH",
"170 620 LINE SMOOTH",
"90 620 OFFCURVE",
"50 584 OFFCURVE",
"50 488 CURVE SMOOTH",
"50 386 LINE",
"60 382 LINE",
"60 503 LINE SMOOTH",
"60 544 OFFCURVE",
"80 611 OFFCURVE",
"160 611 CURVE",
"160 611 LINE",
"198 611 LINE SMOOTH",
"250 611 OFFCURVE",
"295 579 OFFCURVE",
"295 503 CURVE SMOOTH",
"295 395 LINE SMOOTH",
"295 353 OFFCURVE",
"297 312 OFFCURVE",
"215 312 CURVE SMOOTH",
"110 312 LINE",
"114 145 LINE"
);
},
{
closed = 1;
nodes = (
"132 2 OFFCURVE",
"132 8 OFFCURVE",
"132 15 CURVE SMOOTH",
"132 24 OFFCURVE",
"132 30 OFFCURVE",
"118 30 CURVE SMOOTH",
"105 30 OFFCURVE",
"105 24 OFFCURVE",
"105 15 CURVE SMOOTH",
"105 8 OFFCURVE",
"105 2 OFFCURVE",
"118 2 CURVE SMOOTH"
);
}
);
width = 370;
},
{
background = {
components = (
{
name = O;
transform = "{1, 0, 0, 1, 20, 0}";
}
);
};
layerId = "D686CB0C-BBDB-4E69-8E5A-045D5C85CA47";
paths = (
{
closed = 1;
nodes = (
"210 149 LINE",
"233 228 LINE",
"241 228 OFFCURVE",
"249 228 OFFCURVE",
"257 229 CURVE SMOOTH",
"317 232 OFFCURVE",
"383 253 OFFCURVE",
"383 390 CURVE SMOOTH",
"383 483 LINE SMOOTH",
"383 583 OFFCURVE",
"320 623 OFFCURVE",
"216 627 CURVE SMOOTH",
"198 627 LINE SMOOTH",
"128 627 OFFCURVE",
"35 594 OFFCURVE",
"35 492 CURVE SMOOTH",
"35 419 LINE",
"185 402 LINE",
"185 453 LINE SMOOTH",
"185 478 OFFCURVE",
"183 499 OFFCURVE",
"208 499 CURVE",
"208 499 LINE",
"210 499 LINE SMOOTH",
"233 498 OFFCURVE",
"233 483 OFFCURVE",
"233 453 CURVE SMOOTH",
"233 399 LINE SMOOTH",
"233 360 OFFCURVE",
"233 339 OFFCURVE",
"215 339 CURVE SMOOTH",
"111 339 LINE",
"111 149 LINE"
);
},
{
closed = 1;
nodes = (
"211 -6 OFFCURVE",
"213 7 OFFCURVE",
"213 45 CURVE SMOOTH",
"213 86 OFFCURVE",
"212 96 OFFCURVE",
"162 96 CURVE SMOOTH",
"114 96 OFFCURVE",
"114 86 OFFCURVE",
"114 45 CURVE SMOOTH",
"114 7 OFFCURVE",
"114 -6 OFFCURVE",
"162 -6 CURVE SMOOTH"
);
}
);
width = 423;
}
);
note = question;
unicode = 003F;
},
{
glyphname = bullet;
lastChange = "2021-11-29 03:15:47 +0000";
layers = (
{
layerId = "6AABE730-D951-472C-A552-DEE34E1BBDD6";
paths = (
{
closed = 1;
nodes = (
"209 195 OFFCURVE",
"248 235 OFFCURVE",
"248 285 CURVE SMOOTH",
"248 336 OFFCURVE",
"208 375 OFFCURVE",
"159 375 CURVE SMOOTH",
"110 375 OFFCURVE",
"70 337 OFFCURVE",
"70 287 CURVE SMOOTH",
"70 235 OFFCURVE",
"108 195 OFFCURVE",
"158 195 CURVE SMOOTH"
);
}
);
width = 318;
},
{
layerId = "D686CB0C-BBDB-4E69-8E5A-045D5C85CA47";
paths = (
{
closed = 1;
nodes = (
"278 131 OFFCURVE",
"345 199 OFFCURVE",
"345 285 CURVE SMOOTH",
"345 372 OFFCURVE",
"276 439 OFFCURVE",
"192 439 CURVE SMOOTH",
"108 439 OFFCURVE",
"40 374 OFFCURVE",
"40 289 CURVE SMOOTH",
"40 200 OFFCURVE",
"106 131 OFFCURVE",
"191 131 CURVE SMOOTH"
);
}
);
width = 385;
}
);
note = bullet;
unicode = 2022;
},
{
glyphname = asterisk;
lastChange = "2021-11-29 03:15:47 +0000";
layers = (
{
background = {
paths = (
{
closed = 1;
nodes = (
"244 531 LINE",
"262 331 LINE",
"77 411 LINE",
"53 337 LINE",
"249 293 LINE",
"118 141 LINE",
"180 95 LINE",
"284 268 LINE",
"386 97 LINE",
"393 103 OFFCURVE",
"441 135 OFFCURVE",
"449 141 CURVE",
"317 293 LINE",
"512 337 LINE",
"488 411 LINE",
"304 332 LINE",
"322 531 LINE"
);
},
{
closed = 1;
nodes = (
"289 296 OFFCURVE",
"294 301 OFFCURVE",
"294 306 CURVE SMOOTH",
"294 311 OFFCURVE",
"289 316 OFFCURVE",
"284 316 CURVE SMOOTH",
"279 316 OFFCURVE",
"274 311 OFFCURVE",
"274 306 CURVE SMOOTH",
"274 301 OFFCURVE",
"279 296 OFFCURVE",
"284 296 CURVE SMOOTH"
);
}
);
};
layerId = "6AABE730-D951-472C-A552-DEE34E1BBDD6";
paths = (
{
closed = 1;
nodes = (
"207 459 LINE",
"289 337 LINE",
"304 348 LINE",
"212 461 LINE",
"350 505 LINE",
"345 518 LINE",
"210 467 LINE",
"214 611 LINE",
"197 611 LINE",
"204 467 LINE",
"65 512 LINE",
"60 498 LINE",
"202 461 LINE",
"107 348 LINE",
"122 337 LINE"
);
}
);
width = 410;
},
{
background = {
paths = (
{
closed = 1;
nodes = (
"207 620 LINE",
"222 457 LINE",
"72 522 LINE",
"52 462 LINE",
"211 426 LINE",
"105 303 LINE",
"155 265 LINE",
"240 406 LINE",
"323 267 LINE",
"374 303 LINE",
"267 426 LINE",
"425 462 LINE",
"406 522 LINE",
"256 458 LINE",
"271 620 LINE"
);
}
);
};
layerId = "D686CB0C-BBDB-4E69-8E5A-045D5C85CA47";
paths = (
{
closed = 1;
nodes = (
"240 406 LINE",
"318 263 LINE",
"379 307 LINE",
"267 426 LINE",
"427 456 LINE",
"404 528 LINE",
"256 458 LINE",
"278 620 LINE",
"200 620 LINE",
"222 457 LINE",
"74 528 LINE",
"50 456 LINE",
"211 426 LINE",
"99 308 LINE",
"162 260 LINE"
);
}
);
width = 477;
}
);
note = asterisk;
unicode = 002A;
},
{
glyphname = numbersign;
lastChange = "2021-11-29 03:15:47 +0000";
layers = (
{
layerId = "6AABE730-D951-472C-A552-DEE34E1BBDD6";
paths = (
{
closed = 1;
nodes = (
"75 0 LINE",
"148 234 LINE",
"285 234 LINE",
"212 0 LINE",
"222 0 LINE",
"295 234 LINE",
"428 234 LINE",
"431 242 LINE",
"298 242 LINE",
"337 367 LINE",
"468 367 LINE",
"472 375 LINE",
"340 375 LINE",
"403 574 LINE",
"393 574 LINE",
"330 375 LINE",
"193 375 LINE",
"256 574 LINE",
"246 574 LINE",
"184 375 LINE",
"47 375 LINE",
"44 367 LINE",
"180 367 LINE",
"141 242 LINE",
"6 242 LINE",
"3 234 LINE",
"138 234 LINE",
"65 0 LINE"
);
},
{
closed = 1;
nodes = (
"151 242 LINE",
"190 367 LINE",
"327 367 LINE",
"288 242 LINE"
);
}
);
width = 502;
},
{
layerId = "D686CB0C-BBDB-4E69-8E5A-045D5C85CA47";
paths = (
{
closed = 1;
nodes = (
"216 0 LINE",
"272 177 LINE",
"386 177 LINE",
"330 0 LINE",
"417 0 LINE",
"473 177 LINE",
"606 177 LINE",
"626 242 LINE",
"493 242 LINE",
"534 371 LINE",
"665 371 LINE",
"686 436 LINE",
"554 436 LINE",
"598 574 LINE",
"511 574 LINE",
"467 436 LINE",
"353 436 LINE",
"397 574 LINE",
"310 574 LINE",
"267 436 LINE",
"130 436 LINE",
"110 371 LINE",
"246 371 LINE",
"205 242 LINE",
"70 242 LINE",
"50 177 LINE",
"185 177 LINE",
"129 0 LINE"
);
},
{
closed = 1;
nodes = (
"292 242 LINE",
"333 371 LINE",
"447 371 LINE",
"406 242 LINE"
);
}
);
width = 736;
}
);
note = numbersign;
unicode = 0023;
},
{
glyphname = slash;
lastChange = "2021-11-29 03:15:47 +0000";
layers = (
{
layerId = "6AABE730-D951-472C-A552-DEE34E1BBDD6";
paths = (
{
closed = 1;
nodes = (
"49 -44 LINE",
"391 630 LINE",
"380 630 LINE",
"40 -44 LINE"
);
}
);
width = 431;
},
{
layerId = "D686CB0C-BBDB-4E69-8E5A-045D5C85CA47";
paths = (
{
closed = 1;
nodes = (
"124 -44 LINE",
"466 630 LINE",
"370 630 LINE",
"30 -44 LINE"
);
}
);
width = 496;
}
);
note = slash;
unicode = 002F;
},
{
glyphname = backslash;
lastChange = "2021-11-29 03:15:47 +0000";
layers = (
{
layerId = "6AABE730-D951-472C-A552-DEE34E1BBDD6";
paths = (
{
closed = 1;
nodes = (
"391 -44 LINE",
"51 630 LINE",
"40 630 LINE",
"382 -44 LINE"
);
}
);
width = 431;
},
{
layerId = "D686CB0C-BBDB-4E69-8E5A-045D5C85CA47";
paths = (
{
closed = 1;
nodes = (
"466 -44 LINE",
"126 630 LINE",
"30 630 LINE",
"372 -44 LINE"
);
}
);
width = 496;
}
);
note = backslash;
unicode = 005C;
},
{
glyphname = parenleft;
lastChange = "2021-11-29 03:15:47 +0000";
layers = (
{
layerId = "6AABE730-D951-472C-A552-DEE34E1BBDD6";
paths = (
{
closed = 1;
nodes = (
"280 -109 LINE",
"112 -86 OFFCURVE",
"40 93 OFFCURVE",
"40 251 CURVE SMOOTH",
"40 413 OFFCURVE",
"125 644 OFFCURVE",
"291 655 CURVE",
"291 664 LINE",
"134 655 OFFCURVE",
"30 455 OFFCURVE",
"30 251 CURVE SMOOTH",
"30 63 OFFCURVE",
"119 -103 OFFCURVE",
"280 -118 CURVE"
);
}
);
width = 341;
},
{
background = {
paths = (
{
closed = 1;
nodes = (
"330 664 LINE",
"173 655 OFFCURVE",
"69 455 OFFCURVE",
"69 251 CURVE SMOOTH",
"69 63 OFFCURVE",
"158 -103 OFFCURVE",
"319 -118 CURVE",
"319 -108 LINE",
"151 -85 OFFCURVE",
"79 93 OFFCURVE",
"79 251 CURVE SMOOTH",
"79 413 OFFCURVE",
"164 644 OFFCURVE",
"330 655 CURVE"
);
}
);
};
layerId = "D686CB0C-BBDB-4E69-8E5A-045D5C85CA47";
paths = (
{
closed = 1;
nodes = (
"354 -59 LINE",
"250 -56 OFFCURVE",
"199 103 OFFCURVE",
"199 267 CURVE SMOOTH",
"199 440 OFFCURVE",
"255 615 OFFCURVE",
"365 627 CURVE",
"365 691 LINE",
"194 691 OFFCURVE",
"60 473 OFFCURVE",
"60 261 CURVE SMOOTH",
"60 65 OFFCURVE",
"181 -124 OFFCURVE",
"354 -124 CURVE"
);
}
);
width = 465;
}
);
note = parenleft;
unicode = 0028;
},
{
glyphname = braceleft;
lastChange = "2021-11-29 03:15:47 +0000";
layers = (
{
background = {
paths = (
{
closed = 0;
nodes = (
"235 661 LINE",
"92 661 OFFCURVE",
"69 576 OFFCURVE",
"69 537 CURVE SMOOTH",
"69 491 OFFCURVE",
"80 456 OFFCURVE",
"91 413 CURVE SMOOTH",
"110 337 OFFCURVE",
"102 265 OFFCURVE",
"35 265 CURVE",
"102 265 OFFCURVE",
"110 193 OFFCURVE",
"91 117 CURVE SMOOTH",
"80 74 OFFCURVE",
"69 39 OFFCURVE",
"69 -7 CURVE SMOOTH",
"69 -46 OFFCURVE",
"92 -131 OFFCURVE",
"235 -131 CURVE"
);
}
);
};
layerId = "6AABE730-D951-472C-A552-DEE34E1BBDD6";
paths = (
{
closed = 1;
nodes = (
"235 -127 LINE",
"96 -127 OFFCURVE",
"74 -46 OFFCURVE",
"74 -7 CURVE SMOOTH",
"74 39 OFFCURVE",
"85 73 OFFCURVE",
"96 116 CURVE SMOOTH",
"102 140 OFFCURVE",
"105 162 OFFCURVE",
"105 182 CURVE SMOOTH",
"105 237 OFFCURVE",
"81 269 OFFCURVE",
"35 269 CURVE",
"35 261 LINE",
"81 261 OFFCURVE",
"105 293 OFFCURVE",
"105 348 CURVE SMOOTH",
"105 368 OFFCURVE",
"102 390 OFFCURVE",
"96 414 CURVE SMOOTH",
"85 457 OFFCURVE",
"74 491 OFFCURVE",
"74 537 CURVE SMOOTH",
"74 576 OFFCURVE",
"96 657 OFFCURVE",
"235 657 CURVE",
"235 665 LINE",
"88 665 OFFCURVE",
"64 576 OFFCURVE",
"64 537 CURVE SMOOTH",
"64 491 OFFCURVE",
"75 455 OFFCURVE",
"86 412 CURVE SMOOTH",
"92 388 OFFCURVE",
"95 366 OFFCURVE",
"95 348 CURVE SMOOTH",
"95 298 OFFCURVE",
"74 269 OFFCURVE",
"35 269 CURVE",
"35 261 LINE",
"74 261 OFFCURVE",
"95 232 OFFCURVE",
"95 182 CURVE SMOOTH",
"95 164 OFFCURVE",
"92 142 OFFCURVE",
"86 118 CURVE SMOOTH",
"75 75 OFFCURVE",
"64 39 OFFCURVE",
"64 -7 CURVE SMOOTH",
"64 -46 OFFCURVE",
"88 -135 OFFCURVE",
"235 -135 CURVE"
);
}
);
width = 295;
},
{
background = {
paths = (
{
closed = 1;
nodes = (
"315 -41 LINE",
"242 -41 OFFCURVE",
"217 -18 OFFCURVE",
"217 24 CURVE SMOOTH",
"217 39 OFFCURVE",
"229 73 OFFCURVE",
"233 125 CURVE SMOOTH",
"240 221 OFFCURVE",
"163 255 OFFCURVE",
"90 265 CURVE",
"163 275 OFFCURVE",
"240 309 OFFCURVE",
"233 405 CURVE SMOOTH",
"229 457 OFFCURVE",
"217 491 OFFCURVE",
"217 506 CURVE SMOOTH",
"217 548 OFFCURVE",
"242 571 OFFCURVE",
"315 571 CURVE",
"315 665 LINE",
"83 665 OFFCURVE",
"59 576 OFFCURVE",
"59 537 CURVE SMOOTH",
"59 491 OFFCURVE",
"70 455 OFFCURVE",
"81 412 CURVE SMOOTH",
"103 324 OFFCURVE",
"84 269 OFFCURVE",
"30 269 CURVE",
"30 261 LINE",
"84 261 OFFCURVE",
"103 206 OFFCURVE",
"81 118 CURVE SMOOTH",
"70 75 OFFCURVE",
"59 39 OFFCURVE",
"59 -7 CURVE SMOOTH",
"59 -46 OFFCURVE",
"83 -135 OFFCURVE",
"315 -135 CURVE"
);
}
);
};
layerId = "D686CB0C-BBDB-4E69-8E5A-045D5C85CA47";
paths = (
{
closed = 1;
nodes = (
"315 -41 LINE",
"239 -41 OFFCURVE",
"217 -15 OFFCURVE",
"217 24 CURVE SMOOTH",
"217 45 OFFCURVE",
"234 94 OFFCURVE",
"234 144 CURVE SMOOTH",
"234 227 OFFCURVE",
"186 269 OFFCURVE",
"30 269 CURVE",
"30 261 LINE",
"186 261 OFFCURVE",
"234 303 OFFCURVE",
"234 386 CURVE SMOOTH",
"234 392 OFFCURVE",
"233 399 OFFCURVE",
"233 405 CURVE SMOOTH",
"229 457 OFFCURVE",
"217 491 OFFCURVE",
"217 506 CURVE SMOOTH",
"217 545 OFFCURVE",
"241 571 OFFCURVE",
"315 571 CURVE",
"315 665 LINE",
"83 665 OFFCURVE",
"59 576 OFFCURVE",
"59 537 CURVE SMOOTH",
"59 491 OFFCURVE",
"70 455 OFFCURVE",
"81 412 CURVE SMOOTH",
"87 388 OFFCURVE",
"90 366 OFFCURVE",
"90 348 CURVE SMOOTH",
"90 298 OFFCURVE",
"69 269 OFFCURVE",
"30 269 CURVE",
"30 261 LINE",
"69 261 OFFCURVE",
"90 232 OFFCURVE",
"90 182 CURVE SMOOTH",
"90 164 OFFCURVE",
"87 142 OFFCURVE",
"81 118 CURVE SMOOTH",
"70 75 OFFCURVE",
"59 39 OFFCURVE",
"59 -7 CURVE SMOOTH",
"59 -46 OFFCURVE",
"83 -135 OFFCURVE",
"315 -135 CURVE"
);
}
);
width = 355;
}
);
note = braceleft;
unicode = 007B;
},
{
glyphname = braceright;
lastChange = "2021-11-29 03:15:47 +0000";
layers = (
{
layerId = "6AABE730-D951-472C-A552-DEE34E1BBDD6";
paths = (
{
closed = 1;
nodes = (
"207 -135 OFFCURVE",
"231 -46 OFFCURVE",
"231 -7 CURVE SMOOTH",
"231 39 OFFCURVE",
"220 75 OFFCURVE",
"209 118 CURVE SMOOTH",
"203 142 OFFCURVE",
"200 164 OFFCURVE",
"200 182 CURVE SMOOTH",
"200 232 OFFCURVE",
"221 261 OFFCURVE",
"260 261 CURVE",
"260 269 LINE",
"221 269 OFFCURVE",
"200 298 OFFCURVE",
"200 348 CURVE SMOOTH",
"200 366 OFFCURVE",
"203 388 OFFCURVE",
"209 412 CURVE SMOOTH",
"220 455 OFFCURVE",
"231 491 OFFCURVE",
"231 537 CURVE SMOOTH",
"231 576 OFFCURVE",
"207 665 OFFCURVE",
"60 665 CURVE",
"60 657 LINE",
"199 657 OFFCURVE",
"221 576 OFFCURVE",
"221 537 CURVE SMOOTH",
"221 491 OFFCURVE",
"210 457 OFFCURVE",
"199 414 CURVE SMOOTH",
"193 390 OFFCURVE",
"190 368 OFFCURVE",
"190 348 CURVE SMOOTH",
"190 293 OFFCURVE",
"214 261 OFFCURVE",
"260 261 CURVE",
"260 269 LINE",
"214 269 OFFCURVE",
"190 237 OFFCURVE",
"190 182 CURVE SMOOTH",
"190 162 OFFCURVE",
"193 140 OFFCURVE",
"199 116 CURVE SMOOTH",
"210 73 OFFCURVE",
"221 39 OFFCURVE",
"221 -7 CURVE SMOOTH",
"221 -46 OFFCURVE",
"199 -127 OFFCURVE",
"60 -127 CURVE",
"60 -135 LINE"
);
}
);
width = 295;
},
{
layerId = "D686CB0C-BBDB-4E69-8E5A-045D5C85CA47";
paths = (
{
closed = 1;
nodes = (
"272 -135 OFFCURVE",
"296 -46 OFFCURVE",
"296 -7 CURVE SMOOTH",
"296 39 OFFCURVE",
"285 75 OFFCURVE",
"274 118 CURVE SMOOTH",
"268 142 OFFCURVE",
"265 164 OFFCURVE",
"265 182 CURVE SMOOTH",
"265 232 OFFCURVE",
"286 261 OFFCURVE",
"325 261 CURVE",
"325 269 LINE",
"286 269 OFFCURVE",
"265 298 OFFCURVE",
"265 348 CURVE SMOOTH",
"265 366 OFFCURVE",
"268 388 OFFCURVE",
"274 412 CURVE SMOOTH",
"285 455 OFFCURVE",
"296 491 OFFCURVE",
"296 537 CURVE SMOOTH",
"296 576 OFFCURVE",
"272 665 OFFCURVE",
"40 665 CURVE",
"40 571 LINE",
"114 571 OFFCURVE",
"138 545 OFFCURVE",
"138 506 CURVE SMOOTH",
"138 489 OFFCURVE",
"121 449 OFFCURVE",
"121 386 CURVE SMOOTH",
"121 303 OFFCURVE",
"169 261 OFFCURVE",
"325 261 CURVE",
"325 269 LINE",
"169 269 OFFCURVE",
"121 227 OFFCURVE",
"121 144 CURVE SMOOTH",
"121 94 OFFCURVE",
"138 45 OFFCURVE",
"138 24 CURVE SMOOTH",
"138 -15 OFFCURVE",
"116 -41 OFFCURVE",
"40 -41 CURVE",
"40 -135 LINE"
);
}
);
width = 355;
}
);
note = braceright;
unicode = 007D;
},
{
glyphname = bracketleft;
lastChange = "2021-11-29 03:15:47 +0000";
layers = (
{
layerId = "6AABE730-D951-472C-A552-DEE34E1BBDD6";
paths = (
{
closed = 1;
nodes = (
"35 -57 LINE",
"139 -57 LINE",
"139 -48 LINE",
"45 -48 LINE",
"45 621 LINE",
"139 621 LINE",
"139 630 LINE",
"35 630 LINE"
);
}
);
width = 179;
},
{
background = {
paths = (
{
closed = 1;
nodes = (
"-23 630 LINE",
"-23 575 LINE",
"62 575 LINE",
"62 -1 LINE",
"-23 -1 LINE",
"-23 -57 LINE",
"212 -57 LINE",
"212 630 LINE"
);
}
);
};
layerId = "D686CB0C-BBDB-4E69-8E5A-045D5C85CA47";
paths = (
{
closed = 1;
nodes = (
"40 -57 LINE",
"275 -57 LINE",
"275 -1 LINE",
"190 -1 LINE",
"190 574 LINE",
"275 574 LINE",
"275 630 LINE",
"40 630 LINE"
);
}
);
width = 310;
}
);
note = bracketleft;
unicode = 005B;
},
{
glyphname = bracketright;
lastChange = "2021-11-29 03:15:47 +0000";
layers = (
{
layerId = "6AABE730-D951-472C-A552-DEE34E1BBDD6";
paths = (
{
closed = 1;
nodes = (
"40 -57 LINE",
"144 -57 LINE",
"144 630 LINE",
"40 630 LINE",
"40 621 LINE",
"134 621 LINE",
"134 -48 LINE",
"40 -48 LINE"
);
}
);
width = 179;
},
{
layerId = "D686CB0C-BBDB-4E69-8E5A-045D5C85CA47";
paths = (
{
closed = 1;
nodes = (
"35 -57 LINE",
"270 -57 LINE",
"270 630 LINE",
"35 630 LINE",
"35 575 LINE",
"120 575 LINE",
"120 -1 LINE",
"35 -1 LINE"
);
}
);
width = 310;
}
);
note = bracketright;
unicode = 005D;
},
{
glyphname = hyphen;
lastChange = "2021-11-29 03:15:47 +0000";
layers = (
{
layerId = "6AABE730-D951-472C-A552-DEE34E1BBDD6";
paths = (
{
closed = 1;
nodes = (
"295 297 LINE",
"295 307 LINE",
"75 307 LINE",
"75 297 LINE"
);
}
);
width = 370;
},
{
layerId = "D686CB0C-BBDB-4E69-8E5A-045D5C85CA47";
paths = (
{
closed = 1;
nodes = (
"402 246 LINE",
"402 366 LINE",
"40 366 LINE",
"40 246 LINE"
);
}
);
width = 442;
}
);
note = hyphen;
unicode = 002D;
},
{
glyphname = endash;
lastChange = "2021-11-29 03:15:47 +0000";
layers = (
{
layerId = "6AABE730-D951-472C-A552-DEE34E1BBDD6";
paths = (
{
closed = 1;
nodes = (
"345 297 LINE",
"345 307 LINE",
"75 307 LINE",
"75 297 LINE"
);
}
);
width = 420;
},
{
layerId = "D686CB0C-BBDB-4E69-8E5A-045D5C85CA47";
paths = (
{
closed = 1;
nodes = (
"508 246 LINE",
"508 366 LINE",
"40 366 LINE",
"40 246 LINE"
);
}
);
width = 548;
}
);
note = endash;
unicode = 2013;
},
{
glyphname = emdash;
lastChange = "2021-11-29 03:15:47 +0000";
layers = (
{
layerId = "6AABE730-D951-472C-A552-DEE34E1BBDD6";
paths = (
{
closed = 1;
nodes = (
"544 297 LINE",
"544 307 LINE",
"75 307 LINE",
"75 297 LINE"
);
}
);
width = 619;
},
{
layerId = "D686CB0C-BBDB-4E69-8E5A-045D5C85CA47";
paths = (
{
closed = 1;
nodes = (
"637 246 LINE",
"637 366 LINE",
"40 366 LINE",
"40 246 LINE"
);
}
);
width = 677;
}
);
note = emdash;
unicode = 2014;
},
{
glyphname = underscore;
lastChange = "2021-11-29 03:15:47 +0000";
layers = (
{
layerId = "6AABE730-D951-472C-A552-DEE34E1BBDD6";
paths = (
{
closed = 1;
nodes = (
"642 -79 LINE",
"642 -69 LINE",
"0 -69 LINE",
"0 -79 LINE"
);
}
);
width = 642;
},
{
layerId = "D686CB0C-BBDB-4E69-8E5A-045D5C85CA47";
paths = (
{
closed = 1;
nodes = (
"642 -175 LINE",
"642 -55 LINE",
"0 -55 LINE",
"0 -175 LINE"
);
}
);
width = 600;
}
);
note = underscore;
unicode = 005F;
},
{
glyphname = quotesinglbase;
lastChange = "2021-11-29 03:15:47 +0000";
layers = (
{
layerId = "6AABE730-D951-472C-A552-DEE34E1BBDD6";
paths = (
{
closed = 1;
nodes = (
"93 -133 LINE",
"98 81 LINE",
"80 81 LINE",
"85 -133 LINE"
);
}
);
width = 178;
},
{
layerId = "D686CB0C-BBDB-4E69-8E5A-045D5C85CA47";
paths = (
{
closed = 1;
nodes = (
"161 -133 LINE",
"177 81 LINE",
"40 81 LINE",
"58 -133 LINE"
);
}
);
width = 217;
}
);
note = quotesinglbase;
unicode = 201A;
},
{
glyphname = quotedblbase;
lastChange = "2021-11-29 03:15:47 +0000";
layers = (
{
layerId = "6AABE730-D951-472C-A552-DEE34E1BBDD6";
paths = (
{
closed = 1;
nodes = (
"207 -133 LINE",
"242 81 LINE",
"224 81 LINE",
"199 -133 LINE"
);
},
{
closed = 1;
nodes = (
"88 -133 LINE",
"123 81 LINE",
"105 81 LINE",
"80 -133 LINE"
);
}
);
width = 322;
},
{
layerId = "D686CB0C-BBDB-4E69-8E5A-045D5C85CA47";
paths = (
{
closed = 1;
nodes = (
"334 -133 LINE",
"380 81 LINE",
"243 81 LINE",
"231 -133 LINE"
);
},
{
closed = 1;
nodes = (
"143 -133 LINE",
"189 81 LINE",
"52 81 LINE",
"40 -133 LINE"
);
}
);
width = 420;
}
);
note = quotedblbase;
unicode = 201E;
},
{
glyphname = guillemotleft;
lastChange = "2021-11-29 03:15:47 +0000";
layers = (
{
layerId = "6AABE730-D951-472C-A552-DEE34E1BBDD6";
paths = (
{
closed = 1;
nodes = (
"425 104 LINE",
"297 289 LINE",
"430 482 LINE",
"415 482 LINE",
"282 289 LINE",
"411 104 LINE"
);
},
{
closed = 1;
nodes = (
"223 104 LINE",
"95 289 LINE",
"228 482 LINE",
"214 482 LINE",
"80 289 LINE",
"209 104 LINE"
);
}
);
width = 510;
},
{
layerId = "D686CB0C-BBDB-4E69-8E5A-045D5C85CA47";
paths = (
{
closed = 1;
nodes = (
"510 104 LINE",
"382 289 LINE",
"515 482 LINE",
"395 482 LINE",
"262 289 LINE",
"391 104 LINE"
);
},
{
closed = 1;
nodes = (
"288 104 LINE",
"160 289 LINE",
"293 482 LINE",
"174 482 LINE",
"40 289 LINE",
"169 104 LINE"
);
}
);
width = 555;
}
);
note = guillemotleft;
unicode = 00AB;
},
{
glyphname = guillemotright;
lastChange = "2021-11-29 03:15:47 +0000";
layers = (
{
layerId = "6AABE730-D951-472C-A552-DEE34E1BBDD6";
paths = (
{
closed = 1;
nodes = (
"261 104 LINE",
"390 289 LINE",
"256 482 LINE",
"242 482 LINE",
"375 289 LINE",
"247 104 LINE"
);
},
{
closed = 1;
nodes = (
"59 104 LINE",
"188 289 LINE",
"55 482 LINE",
"40 482 LINE",
"173 289 LINE",
"45 104 LINE"
);
}
);
width = 430;
},
{
layerId = "D686CB0C-BBDB-4E69-8E5A-045D5C85CA47";
paths = (
{
closed = 1;
nodes = (
"426 104 LINE",
"555 289 LINE",
"421 482 LINE",
"302 482 LINE",
"435 289 LINE",
"307 104 LINE"
);
},
{
closed = 1;
nodes = (
"204 104 LINE",
"333 289 LINE",
"200 482 LINE",
"80 482 LINE",
"213 289 LINE",
"85 104 LINE"
);
}
);
width = 635;
}
);
note = guillemotright;
unicode = 00BB;
},
{
glyphname = guilsinglleft;
lastChange = "2021-11-29 03:15:47 +0000";
layers = (
{
layerId = "6AABE730-D951-472C-A552-DEE34E1BBDD6";
paths = (
{
closed = 1;
nodes = (
"223 104 LINE",
"95 289 LINE",
"228 482 LINE",
"214 482 LINE",
"80 289 LINE",
"209 104 LINE"
);
}
);
width = 308;
},
{
layerId = "D686CB0C-BBDB-4E69-8E5A-045D5C85CA47";
paths = (
{
closed = 1;
nodes = (
"288 104 LINE",
"160 289 LINE",
"293 482 LINE",
"174 482 LINE",
"40 289 LINE",
"169 104 LINE"
);
}
);
width = 333;
}
);
note = guilsinglleft;
unicode = 2039;
},
{
glyphname = guilsinglright;
lastChange = "2021-11-29 03:15:47 +0000";
layers = (
{
layerId = "6AABE730-D951-472C-A552-DEE34E1BBDD6";
paths = (
{
closed = 1;
nodes = (
"99 104 LINE",
"228 289 LINE",
"95 482 LINE",
"80 482 LINE",
"213 289 LINE",
"85 104 LINE"
);
}
);
width = 308;
},
{
layerId = "D686CB0C-BBDB-4E69-8E5A-045D5C85CA47";
paths = (
{
closed = 1;
nodes = (
"164 104 LINE",
"293 289 LINE",
"160 482 LINE",
"40 482 LINE",
"173 289 LINE",
"45 104 LINE"
);
}
);
width = 333;
}
);
note = guilsinglright;
unicode = 203A;
},
{
glyphname = "leftanglebracket-math";
lastChange = "2021-11-29 03:15:47 +0000";
layers = (
{
layerId = "6AABE730-D951-472C-A552-DEE34E1BBDD6";
paths = (
{
closed = 1;
nodes = (
"222 -44 LINE",
"51 294 LINE",
"40 294 LINE",
"213 -44 LINE"
);
},
{
closed = 1;
nodes = (
"50 294 LINE",
"222 630 LINE",
"211 630 LINE",
"41 294 LINE"
);
}
);
width = 262;
},
{
layerId = "D686CB0C-BBDB-4E69-8E5A-045D5C85CA47";
paths = (
{
closed = 1;
nodes = (
"124 288 LINE",
"298 630 LINE",
"202 630 LINE",
"30 288 LINE"
);
},
{
closed = 1;
nodes = (
"298 -44 LINE",
"126 288 LINE",
"30 288 LINE",
"204 -44 LINE"
);
}
);
width = 328;
}
);
unicode = 27E8;
},
{
glyphname = "rightanglebracket-math";
lastChange = "2021-11-29 03:12:25 +0000";
layers = (
{
layerId = "6AABE730-D951-472C-A552-DEE34E1BBDD6";
paths = (
{
closed = 1;
nodes = (
"49 -44 LINE",
"222 294 LINE",
"211 294 LINE",
"40 -44 LINE"
);
},
{
closed = 1;
nodes = (
"221 294 LINE",
"51 630 LINE",
"40 630 LINE",
"212 294 LINE"
);
}
);
width = 262;
},
{
layerId = "D686CB0C-BBDB-4E69-8E5A-045D5C85CA47";
paths = (
{
closed = 1;
nodes = (
"298 288 LINE",
"126 630 LINE",
"30 630 LINE",
"204 288 LINE"
);
},
{
closed = 1;
nodes = (
"124 -44 LINE",
"298 288 LINE",
"202 288 LINE",
"30 -44 LINE"
);
}
);
width = 328;
}
);
unicode = 27E9;
},
{
glyphname = cedi;
lastChange = "2021-11-29 03:15:47 +0000";
layers = (
{
layerId = "6AABE730-D951-472C-A552-DEE34E1BBDD6";
paths = (
{
closed = 1;
nodes = (
"244 -6 OFFCURVE",
"291 24 OFFCURVE",
"291 91 CURVE SMOOTH",
"291 226 LINE",
"281 221 LINE",
"281 91 LINE SMOOTH",
"281 38 OFFCURVE",
"244 3 OFFCURVE",
"164 3 CURVE SMOOTH",
"86 3 OFFCURVE",
"50 38 OFFCURVE",
"50 90 CURVE SMOOTH",
"50 525 LINE SMOOTH",
"50 580 OFFCURVE",
"76 618 OFFCURVE",
"164 618 CURVE SMOOTH",
"254 618 OFFCURVE",
"281 580 OFFCURVE",
"281 524 CURVE SMOOTH",
"281 389 LINE",
"291 392 LINE",
"291 525 LINE SMOOTH",
"291 593 OFFCURVE",
"253 628 OFFCURVE",
"161 628 CURVE SMOOTH",
"75 628 OFFCURVE",
"40 591 OFFCURVE",
"40 526 CURVE SMOOTH",
"40 90 LINE SMOOTH",
"40 24 OFFCURVE",
"86 -6 OFFCURVE",
"164 -6 CURVE SMOOTH"
);
},
{
closed = 1;
nodes = (
"148 -85 LINE",
"198 678 LINE",
"188 678 LINE",
"138 -85 LINE"
);
}
);
width = 331;
},
{
background = {
paths = (
{
closed = 0;
nodes = (
"211 688 LINE",
"181 688 LINE"
);
},
{
closed = 0;
nodes = (
"263 688 LINE",
"233 688 LINE"
);
}
);
};
layerId = "D686CB0C-BBDB-4E69-8E5A-045D5C85CA47";
paths = (
{
closed = 1;
nodes = (
"302 -8 OFFCURVE",
"363 41 OFFCURVE",
"363 116 CURVE SMOOTH",
"363 272 LINE",
"231 256 LINE",
"231 153 LINE SMOOTH",
"231 134 OFFCURVE",
"231 118 OFFCURVE",
"189 118 CURVE SMOOTH",
"159 118 OFFCURVE",
"160 134 OFFCURVE",
"160 153 CURVE SMOOTH",
"160 453 LINE SMOOTH",
"160 481 OFFCURVE",
"158 502 OFFCURVE",
"189 502 CURVE SMOOTH",
"231 502 OFFCURVE",
"231 487 OFFCURVE",
"231 452 CURVE SMOOTH",
"231 340 LINE",
"363 358 LINE",
"363 490 LINE SMOOTH",
"364 591 OFFCURVE",
"302 626 OFFCURVE",
"189 626 CURVE SMOOTH",
"67 626 OFFCURVE",
"15 591 OFFCURVE",
"15 491 CURVE SMOOTH",
"15 116 LINE SMOOTH",
"15 41 OFFCURVE",
"67 -8 OFFCURVE",
"192 -8 CURVE SMOOTH"
);
},
{
closed = 1;
nodes = (
"184 -85 LINE",
"231 688 LINE",
"201 688 LINE",
"154 -85 LINE"
);
}
);
width = 378;
}
);
unicode = 20B5;
},
{
glyphname = cent;
lastChange = "2021-11-29 03:15:47 +0000";
layers = (
{
layerId = "6AABE730-D951-472C-A552-DEE34E1BBDD6";
paths = (
{
closed = 1;
nodes = (
"276 93 OFFCURVE",
"295 150 OFFCURVE",
"295 211 CURVE SMOOTH",
"295 270 LINE",
"285 266 LINE",
"285 204 LINE SMOOTH",
"285 128 OFFCURVE",
"236 102 OFFCURVE",
"158 102 CURVE SMOOTH",
"101 102 OFFCURVE",
"50 127 OFFCURVE",
"50 195 CURVE SMOOTH",
"50 468 LINE SMOOTH",
"50 536 OFFCURVE",
"101 561 OFFCURVE",
"168 561 CURVE SMOOTH",
"236 561 OFFCURVE",
"285 535 OFFCURVE",
"285 468 CURVE SMOOTH",
"285 399 LINE",
"295 404 LINE",
"295 470 LINE SMOOTH",
"295 513 OFFCURVE",
"276 570 OFFCURVE",
"168 570 CURVE SMOOTH",
"59 570 OFFCURVE",
"40 513 OFFCURVE",
"40 470 CURVE SMOOTH",
"40 193 LINE SMOOTH",
"40 150 OFFCURVE",
"59 93 OFFCURVE",
"158 93 CURVE SMOOTH"
);
},
{
closed = 1;
nodes = (
"143 -85 LINE",
"193 678 LINE",
"183 678 LINE",
"133 -85 LINE"
);
}
);
width = 335;
},
{
layerId = "D686CB0C-BBDB-4E69-8E5A-045D5C85CA47";
paths = (
{
closed = 1;
nodes = (
"316 88 OFFCURVE",
"363 136 OFFCURVE",
"363 211 CURVE SMOOTH",
"363 304 LINE",
"213 294 LINE",
"213 243 LINE SMOOTH",
"213 231 OFFCURVE",
"213 210 OFFCURVE",
"189 210 CURVE SMOOTH",
"165 210 OFFCURVE",
"165 231 OFFCURVE",
"165 243 CURVE SMOOTH",
"165 418 LINE SMOOTH",
"165 429 OFFCURVE",
"165 454 OFFCURVE",
"189 454 CURVE SMOOTH",
"213 454 OFFCURVE",
"213 429 OFFCURVE",
"213 418 CURVE SMOOTH",
"213 358 LINE",
"363 368 LINE",
"363 446 LINE SMOOTH",
"363 521 OFFCURVE",
"316 569 OFFCURVE",
"190 569 CURVE SMOOTH",
"45 569 OFFCURVE",
"15 517 OFFCURVE",
"15 444 CURVE SMOOTH",
"15 213 LINE SMOOTH",
"15 140 OFFCURVE",
"45 88 OFFCURVE",
"190 88 CURVE SMOOTH"
);
},
{
closed = 1;
nodes = (
"177 -85 LINE",
"224 688 LINE",
"194 688 LINE",
"147 -85 LINE"
);
}
);
width = 378;
}
);
unicode = 00A2;
},
{
glyphname = colonsign;
lastChange = "2021-11-29 03:12:37 +0000";
layers = (
{
background = {
paths = (
{
closed = 0;
nodes = (
"211 678 LINE",
"181 678 LINE"
);
},
{
closed = 0;
nodes = (
"263 678 LINE",
"233 678 LINE"
);
}
);
};
layerId = "6AABE730-D951-472C-A552-DEE34E1BBDD6";
paths = (
{
closed = 1;
nodes = (
"244 -6 OFFCURVE",
"291 24 OFFCURVE",
"291 91 CURVE SMOOTH",
"291 226 LINE",
"281 221 LINE",
"281 91 LINE SMOOTH",
"281 38 OFFCURVE",
"244 3 OFFCURVE",
"164 3 CURVE SMOOTH",
"86 3 OFFCURVE",
"50 38 OFFCURVE",
"50 90 CURVE SMOOTH",
"50 525 LINE SMOOTH",
"50 580 OFFCURVE",
"76 618 OFFCURVE",
"164 618 CURVE SMOOTH",
"254 618 OFFCURVE",
"281 580 OFFCURVE",
"281 524 CURVE SMOOTH",
"281 389 LINE",
"291 392 LINE",
"291 525 LINE SMOOTH",
"291 593 OFFCURVE",
"253 628 OFFCURVE",
"161 628 CURVE SMOOTH",
"75 628 OFFCURVE",
"40 591 OFFCURVE",
"40 526 CURVE SMOOTH",
"40 90 LINE SMOOTH",
"40 24 OFFCURVE",
"86 -6 OFFCURVE",
"164 -6 CURVE SMOOTH"
);
},
{
closed = 1;
nodes = (
"105 -85 LINE",
"156 678 LINE",
"146 678 LINE",
"95 -85 LINE"
);
},
{
closed = 1;
nodes = (
"175 -85 LINE",
"226 678 LINE",
"216 678 LINE",
"165 -85 LINE"
);
}
);
width = 331;
},
{
background = {
paths = (
{
closed = 1;
nodes = (
"301 -8 OFFCURVE",
"364 41 OFFCURVE",
"364 116 CURVE SMOOTH",
"364 333 LINE",
"196 333 LINE",
"188 204 LINE",
"225 204 LINE",
"225 141 LINE SMOOTH",
"225 127 OFFCURVE",
"222 118 OFFCURVE",
"192 118 CURVE SMOOTH",
"162 118 OFFCURVE",
"149 127 OFFCURVE",
"149 141 CURVE SMOOTH",
"149 460 LINE SMOOTH",
"149 488 OFFCURVE",
"147 502 OFFCURVE",
"190 502 CURVE SMOOTH",
"240 502 OFFCURVE",
"240 494 OFFCURVE",
"240 459 CURVE SMOOTH",
"240 405 LINE",
"364 410 LINE",
"364 490 LINE SMOOTH",
"364 591 OFFCURVE",
"301 626 OFFCURVE",
"188 626 CURVE SMOOTH",
"66 626 OFFCURVE",
"15 591 OFFCURVE",
"15 491 CURVE SMOOTH",
"15 116 LINE SMOOTH",
"15 41 OFFCURVE",
"66 -8 OFFCURVE",
"191 -8 CURVE SMOOTH"
);
},
{
closed = 0;
nodes = (
"211 688 LINE",
"181 688 LINE"
);
},
{
closed = 0;
nodes = (
"263 688 LINE",
"233 688 LINE"
);
}
);
};
layerId = "D686CB0C-BBDB-4E69-8E5A-045D5C85CA47";
paths = (
{
closed = 1;
nodes = (
"302 -8 OFFCURVE",
"363 41 OFFCURVE",
"363 116 CURVE SMOOTH",
"363 272 LINE",
"240 256 LINE",
"240 153 LINE SMOOTH",
"240 134 OFFCURVE",
"240 118 OFFCURVE",
"189 118 CURVE SMOOTH",
"148 118 OFFCURVE",
"149 134 OFFCURVE",
"149 153 CURVE SMOOTH",
"149 453 LINE SMOOTH",
"149 481 OFFCURVE",
"147 502 OFFCURVE",
"189 502 CURVE SMOOTH",
"240 502 OFFCURVE",
"240 487 OFFCURVE",
"240 452 CURVE SMOOTH",
"240 340 LINE",
"363 358 LINE",
"363 490 LINE SMOOTH",
"364 591 OFFCURVE",
"302 626 OFFCURVE",
"189 626 CURVE SMOOTH",
"67 626 OFFCURVE",
"15 591 OFFCURVE",
"15 491 CURVE SMOOTH",
"15 116 LINE SMOOTH",
"15 41 OFFCURVE",
"67 -8 OFFCURVE",
"192 -8 CURVE SMOOTH"
);
},
{
closed = 1;
nodes = (
"163 -85 LINE",
"211 688 LINE",
"181 688 LINE",
"133 -85 LINE"
);
},
{
closed = 1;
nodes = (
"215 -85 LINE",
"263 688 LINE",
"233 688 LINE",
"185 -85 LINE"
);
}
);
width = 378;
}
);
unicode = 20A1;
},
{
glyphname = currency;
lastChange = "2021-11-29 03:15:47 +0000";
layers = (
{
layerId = "6AABE730-D951-472C-A552-DEE34E1BBDD6";
paths = (
{
closed = 1;
nodes = (
"205 254 OFFCURVE",
"253 302 OFFCURVE",
"253 360 CURVE SMOOTH",
"253 418 OFFCURVE",
"205 466 OFFCURVE",
"147 466 CURVE SMOOTH",
"89 466 OFFCURVE",
"41 418 OFFCURVE",
"41 360 CURVE SMOOTH",
"41 302 OFFCURVE",
"89 254 OFFCURVE",
"147 254 CURVE SMOOTH"
);
},
{
closed = 1;
nodes = (
"79 286 LINE",
"71 292 LINE",
"26 246 LINE",
"33 239 LINE"
);
},
{
closed = 1;
nodes = (
"78 434 LINE",
"29 483 LINE",
"22 476 LINE",
"72 426 LINE"
);
},
{
closed = 1;
nodes = (
"261 251 LINE",
"221 291 LINE",
"214 284 LINE",
"254 244 LINE"
);
},
{
closed = 1;
nodes = (
"94 264 OFFCURVE",
"51 307 OFFCURVE",
"51 360 CURVE SMOOTH",
"51 413 OFFCURVE",
"94 456 OFFCURVE",
"147 456 CURVE SMOOTH",
"200 456 OFFCURVE",
"243 413 OFFCURVE",
"243 360 CURVE SMOOTH",
"242 308 OFFCURVE",
"199 265 OFFCURVE",
"147 264 CURVE SMOOTH"
);
},
{
closed = 1;
nodes = (
"266 473 LINE",
"259 480 LINE",
"214 435 LINE",
"221 428 LINE"
);
}
);
width = 288;
},
{
layerId = "D686CB0C-BBDB-4E69-8E5A-045D5C85CA47";
paths = (
{
closed = 1;
nodes = (
"348 189 OFFCURVE",
"425 266 OFFCURVE",
"425 360 CURVE SMOOTH",
"425 454 OFFCURVE",
"348 531 OFFCURVE",
"254 531 CURVE SMOOTH",
"160 531 OFFCURVE",
"83 454 OFFCURVE",
"83 360 CURVE SMOOTH",
"83 266 OFFCURVE",
"160 189 OFFCURVE",
"254 189 CURVE SMOOTH"
);
},
{
closed = 1;
nodes = (
"212 265 LINE",
"150 313 LINE",
"40 203 LINE",
"95 148 LINE"
);
},
{
closed = 1;
nodes = (
"468 203 LINE",
"362 309 LINE",
"291 270 LINE",
"413 148 LINE"
);
},
{
closed = 1;
nodes = (
"218 292 OFFCURVE",
"187 323 OFFCURVE",
"187 359 CURVE SMOOTH",
"187 396 OFFCURVE",
"218 427 OFFCURVE",
"255 427 CURVE SMOOTH",
"291 427 OFFCURVE",
"322 396 OFFCURVE",
"322 359 CURVE SMOOTH",
"322 323 OFFCURVE",
"291 292 OFFCURVE",
"255 292 CURVE SMOOTH"
);
},
{
closed = 1;
nodes = (
"197 474 LINE",
"116 555 LINE",
"61 500 LINE",
"146 415 LINE"
);
},
{
closed = 1;
nodes = (
"447 500 LINE",
"392 555 LINE",
"311 474 LINE",
"364 417 LINE"
);
}
);
width = 508;
}
);
unicode = 00A4;
},
{
glyphname = dollar;
lastChange = "2021-11-29 03:15:47 +0000";
layers = (
{
layerId = "6AABE730-D951-472C-A552-DEE34E1BBDD6";
paths = (
{
closed = 1;
nodes = (
"258 -1 OFFCURVE",
"295 12 OFFCURVE",
"295 100 CURVE SMOOTH",
"295 209 LINE SMOOTH",
"295 269 OFFCURVE",
"272 300 OFFCURVE",
"211 316 CURVE SMOOTH",
"128 338 LINE SMOOTH",
"88 349 OFFCURVE",
"50 369 OFFCURVE",
"50 421 CURVE SMOOTH",
"50 523 LINE SMOOTH",
"50 588 OFFCURVE",
"79 613 OFFCURVE",
"173 613 CURVE SMOOTH",
"265 613 OFFCURVE",
"285 589 OFFCURVE",
"285 542 CURVE SMOOTH",
"285 416 LINE",
"295 421 LINE",
"295 542 LINE SMOOTH",
"295 606 OFFCURVE",
"256 621 OFFCURVE",
"173 622 CURVE SMOOTH",
"88 621 OFFCURVE",
"40 608 OFFCURVE",
"40 523 CURVE SMOOTH",
"40 426 LINE SMOOTH",
"40 369 OFFCURVE",
"64 345 OFFCURVE",
"124 329 CURVE SMOOTH",
"207 307 LINE SMOOTH",
"255 294 OFFCURVE",
"285 267 OFFCURVE",
"285 209 CURVE SMOOTH",
"285 100 LINE SMOOTH",
"285 32 OFFCURVE",
"267 7 OFFCURVE",
"173 7 CURVE SMOOTH",
"81 7 OFFCURVE",
"50 31 OFFCURVE",
"50 78 CURVE SMOOTH",
"50 204 LINE",
"40 199 LINE",
"40 78 LINE SMOOTH",
"40 14 OFFCURVE",
"90 -1 OFFCURVE",
"173 -2 CURVE SMOOTH"
);
},
{
closed = 1;
nodes = (
"115 -93 LINE",
"127 5 LINE",
"117 7 LINE",
"105 -93 LINE"
);
},
{
closed = 1;
nodes = (
"215 713 LINE",
"205 713 LINE",
"192 617 LINE",
"202 616 LINE"
);
}
);
width = 335;
},
{
layerId = "D686CB0C-BBDB-4E69-8E5A-045D5C85CA47";
paths = (
{
closed = 1;
nodes = (
"282 -10 OFFCURVE",
"363 7 OFFCURVE",
"363 92 CURVE SMOOTH",
"363 234 LINE SMOOTH",
"363 297 OFFCURVE",
"335 318 OFFCURVE",
"273 340 CURVE SMOOTH",
"199 366 LINE SMOOTH",
"170 376 OFFCURVE",
"169 409 OFFCURVE",
"169 430 CURVE SMOOTH",
"169 467 LINE SMOOTH",
"169 504 OFFCURVE",
"177 509 OFFCURVE",
"189 509 CURVE SMOOTH",
"201 509 OFFCURVE",
"209 507 OFFCURVE",
"209 469 CURVE SMOOTH",
"209 379 LINE",
"363 399 LINE",
"363 548 LINE SMOOTH",
"363 610 OFFCURVE",
"280 628 OFFCURVE",
"195 628 CURVE SMOOTH",
"102 628 OFFCURVE",
"15 616 OFFCURVE",
"15 529 CURVE SMOOTH",
"15 384 LINE SMOOTH",
"15 317 OFFCURVE",
"41 294 OFFCURVE",
"98 275 CURVE SMOOTH",
"161 254 LINE SMOOTH",
"202 240 OFFCURVE",
"209 211 OFFCURVE",
"209 184 CURVE SMOOTH",
"209 136 LINE SMOOTH",
"209 123 OFFCURVE",
"203 112 OFFCURVE",
"188 112 CURVE SMOOTH",
"171 112 OFFCURVE",
"169 123 OFFCURVE",
"169 136 CURVE SMOOTH",
"169 234 LINE",
"15 219 LINE",
"15 70 LINE SMOOTH",
"15 4 OFFCURVE",
"104 -10 OFFCURVE",
"197 -10 CURVE SMOOTH"
);
},
{
closed = 1;
nodes = (
"174 -93 LINE",
"193 56 LINE",
"99 63 LINE",
"80 -93 LINE"
);
},
{
closed = 1;
nodes = (
"277 725 LINE",
"181 725 LINE",
"163 580 LINE",
"255 557 LINE"
);
}
);
width = 378;
}
);
unicode = 0024;
},
{
glyphname = euro;
lastChange = "2021-11-29 03:15:47 +0000";
layers = (
{
layerId = "6AABE730-D951-472C-A552-DEE34E1BBDD6";
paths = (
{
closed = 1;
nodes = (
"279 -6 OFFCURVE",
"326 24 OFFCURVE",
"326 91 CURVE SMOOTH",
"326 201 LINE",
"316 196 LINE",
"316 91 LINE SMOOTH",
"316 38 OFFCURVE",
"279 3 OFFCURVE",
"199 3 CURVE SMOOTH",
"121 3 OFFCURVE",
"85 38 OFFCURVE",
"85 90 CURVE SMOOTH",
"85 525 LINE SMOOTH",
"85 580 OFFCURVE",
"111 618 OFFCURVE",
"199 618 CURVE SMOOTH",
"289 618 OFFCURVE",
"316 580 OFFCURVE",
"316 524 CURVE SMOOTH",
"316 415 LINE",
"326 418 LINE",
"326 525 LINE SMOOTH",
"326 593 OFFCURVE",
"288 628 OFFCURVE",
"196 628 CURVE SMOOTH",
"110 628 OFFCURVE",
"75 591 OFFCURVE",
"75 526 CURVE SMOOTH",
"75 90 LINE SMOOTH",
"75 24 OFFCURVE",
"121 -6 OFFCURVE",
"199 -6 CURVE SMOOTH"
);
},
{
closed = 1;
nodes = (
"207 248 LINE",
"213 257 LINE",
"20 257 LINE",
"20 248 LINE"
);
},
{
closed = 1;
nodes = (
"261 343 LINE",
"267 352 LINE",
"20 352 LINE",
"20 343 LINE"
);
}
);
width = 366;
},
{
background = {
paths = (
{
closed = 1;
nodes = (
"357 -8 OFFCURVE",
"418 41 OFFCURVE",
"418 116 CURVE",
"418 272 LINE",
"266 256 LINE",
"266 153 LINE SMOOTH",
"266 134 OFFCURVE",
"266 118 OFFCURVE",
"244 118 CURVE SMOOTH",
"224 118 OFFCURVE",
"225 134 OFFCURVE",
"225 153 CURVE SMOOTH",
"225 453 LINE SMOOTH",
"225 481 OFFCURVE",
"223 502 OFFCURVE",
"244 502 CURVE SMOOTH",
"266 502 OFFCURVE",
"266 487 OFFCURVE",
"266 452 CURVE SMOOTH",
"266 340 LINE",
"418 358 LINE",
"418 490 LINE",
"419 591 OFFCURVE",
"357 626 OFFCURVE",
"244 626 CURVE SMOOTH",
"122 626 OFFCURVE",
"70 591 OFFCURVE",
"70 491 CURVE SMOOTH",
"70 116 LINE SMOOTH",
"70 41 OFFCURVE",
"122 -8 OFFCURVE",
"247 -8 CURVE SMOOTH"
);
}
);
};
layerId = "D686CB0C-BBDB-4E69-8E5A-045D5C85CA47";
paths = (
{
closed = 1;
nodes = (
"357 -8 OFFCURVE",
"418 41 OFFCURVE",
"418 116 CURVE SMOOTH",
"418 209 LINE",
"266 193 LINE",
"266 153 LINE SMOOTH",
"266 134 OFFCURVE",
"266 118 OFFCURVE",
"244 118 CURVE SMOOTH",
"224 118 OFFCURVE",
"225 134 OFFCURVE",
"225 153 CURVE SMOOTH",
"225 453 LINE SMOOTH",
"225 481 OFFCURVE",
"223 502 OFFCURVE",
"244 502 CURVE SMOOTH",
"266 502 OFFCURVE",
"266 487 OFFCURVE",
"266 452 CURVE SMOOTH",
"266 413 LINE",
"418 431 LINE",
"418 490 LINE SMOOTH",
"419 591 OFFCURVE",
"357 626 OFFCURVE",
"244 626 CURVE SMOOTH",
"122 626 OFFCURVE",
"70 591 OFFCURVE",
"70 491 CURVE SMOOTH",
"70 116 LINE SMOOTH",
"70 41 OFFCURVE",
"122 -8 OFFCURVE",
"247 -8 CURVE SMOOTH"
);
},
{
closed = 1;
nodes = (
"289 227 LINE",
"323 291 LINE",
"15 291 LINE",
"15 227 LINE"
);
},
{
closed = 1;
nodes = (
"352 332 LINE",
"387 396 LINE",
"15 396 LINE",
"15 332 LINE"
);
}
);
width = 448;
}
);
unicode = 20AC;
},
{
glyphname = florin;
lastChange = "2021-11-29 03:15:47 +0000";
layers = (
{
layerId = "6AABE730-D951-472C-A552-DEE34E1BBDD6";
paths = (
{
closed = 1;
nodes = (
"-48 -170 LINE SMOOTH",
"0 -170 OFFCURVE",
"16 -152 OFFCURVE",
"22 -96 CURVE SMOOTH",
"80 461 LINE",
"165 461 LINE",
"169 470 LINE",
"81 470 LINE",
"90 557 LINE SMOOTH",
"94 596 OFFCURVE",
"111 611 OFFCURVE",
"162 611 CURVE SMOOTH",
"220 611 LINE",
"221 620 LINE",
"163 620 LINE SMOOTH",
"105 620 OFFCURVE",
"85 601 OFFCURVE",
"80 557 CURVE SMOOTH",
"71 470 LINE",
"28 470 LINE",
"27 461 LINE",
"70 461 LINE",
"12 -96 LINE SMOOTH",
"7 -140 OFFCURVE",
"-3 -161 OFFCURVE",
"-43 -161 CURVE SMOOTH",
"-108 -161 LINE",
"-106 -170 LINE"
);
}
);
width = 227;
},
{
layerId = "D686CB0C-BBDB-4E69-8E5A-045D5C85CA47";
paths = (
{
closed = 1;
nodes = (
"100 -181 LINE SMOOTH",
"190 -181 OFFCURVE",
"226 -132 OFFCURVE",
"234 -54 CURVE SMOOTH",
"281 392 LINE",
"355 392 LINE",
"373 470 LINE",
"289 470 LINE",
"292 500 LINE SMOOTH",
"296 542 OFFCURVE",
"301 548 OFFCURVE",
"332 548 CURVE SMOOTH",
"394 548 LINE",
"403 627 LINE",
"267 627 LINE SMOOTH",
"181 627 OFFCURVE",
"152 608 OFFCURVE",
"144 529 CURVE SMOOTH",
"138 470 LINE",
"95 470 LINE",
"87 392 LINE",
"130 392 LINE",
"89 -13 LINE SMOOTH",
"85 -52 OFFCURVE",
"76 -61 OFFCURVE",
"45 -61 CURVE SMOOTH",
"-16 -61 LINE",
"4 -181 LINE"
);
}
);
width = 433;
}
);
unicode = 0192;
},
